<svg width="24" height="24" viewBox="0 0 24 24" fill="none" xmlns="http://www.w3.org/2000/svg">
<g clip-path="url(#clip0)">
<path d="M23.625 22.8691C23.4176 22.8691 23.2501 22.7016 23.2501 22.4942V13.5008H0.750132V22.4942C0.750132 22.7016 0.582419 22.8691 0.375157 22.8691C0.167713 22.8691 0.000183105 22.7016 0.000183105 22.4942V13.1258C0.000183105 12.9184 0.167713 12.7509 0.375157 12.7509H23.625C23.8325 12.7509 24 12.9184 24 13.1258V22.4942C24 22.7016 23.8325 22.8691 23.625 22.8691Z" fill="black"/>
<path d="M0.374827 13.5008C0.296463 13.5008 0.217734 13.4765 0.150172 13.4258C-0.0155269 13.3018 -0.0493991 13.0665 0.0751041 12.9012L2.32495 9.90139C2.44945 9.73569 2.68454 9.702 2.84969 9.82651C3.01539 9.95064 3.04908 10.1857 2.92458 10.3514L0.674734 13.3509C0.601679 13.449 0.489077 13.5008 0.374827 13.5008Z" fill="black"/>
<path d="M23.6254 13.5008C23.511 13.5008 23.3989 13.449 23.3251 13.3509L21.0753 10.3514C20.9508 10.1857 20.9845 9.95064 21.1502 9.8265C21.3155 9.70163 21.5502 9.73569 21.6747 9.90139L23.9246 12.9012C24.0491 13.0665 24.0154 13.3018 23.8497 13.4258C23.7825 13.4761 23.7038 13.5008 23.6254 13.5008Z" fill="black"/>
<path d="M5.24983 10.501H2.625C2.41756 10.501 2.25003 10.3329 2.25003 10.126C2.25003 9.91915 2.41756 9.75107 2.625 9.75107H5.24983C5.45709 9.75107 5.6248 9.91915 5.6248 10.126C5.6248 10.3329 5.45709 10.501 5.24983 10.501Z" fill="black"/>
<path d="M19.1201 12.0006H4.86957C4.66231 12.0006 4.4946 11.8325 4.4946 11.6256C4.4946 11.4185 4.66231 11.2506 4.86957 11.2506H19.1201C19.3275 11.2506 19.495 11.4185 19.495 11.6256C19.495 11.8325 19.3275 12.0006 19.1201 12.0006Z" fill="black"/>
<path d="M18.7489 12.0005C18.5415 12.0005 18.3739 11.8325 18.3739 11.6256V3.75149C18.3739 3.5446 18.5415 3.37652 18.7489 3.37652C18.9562 3.37652 19.1239 3.5446 19.1239 3.75149V11.6256C19.1239 11.8328 18.9562 12.0005 18.7489 12.0005Z" fill="black"/>
<path d="M5.24985 12.0006C5.04241 12.0006 4.87488 11.8325 4.87488 11.6256V1.50164C4.87488 1.29474 5.04241 1.12666 5.24985 1.12666C5.45712 1.12666 5.62483 1.29474 5.62483 1.50164V11.6256C5.62483 11.8328 5.45712 12.0006 5.24985 12.0006Z" fill="black"/>
<path d="M18.7489 4.12646C18.6528 4.12646 18.5568 4.08966 18.4838 4.0166L16.2339 1.76676C16.0873 1.6201 16.0873 1.38318 16.2339 1.23652C16.3806 1.08986 16.6175 1.08986 16.7642 1.23652L19.014 3.48637C19.1605 3.63302 19.1605 3.86995 19.014 4.0166C18.9408 4.09002 18.8448 4.12646 18.7489 4.12646Z" fill="black"/>
<path d="M16.4991 1.87661H5.24985C5.04241 1.87661 4.87488 1.70853 4.87488 1.50164C4.87488 1.29474 5.04241 1.12666 5.24985 1.12666H16.4991C16.7063 1.12666 16.8741 1.29474 16.8741 1.50164C16.8741 1.70853 16.7063 1.87661 16.4991 1.87661Z" fill="black"/>
<path d="M18.7489 4.12647H16.4991C16.2916 4.12647 16.1241 3.95839 16.1241 3.75149C16.1241 3.5446 16.2916 3.37652 16.4991 3.37652H18.7489C18.9562 3.37652 19.1239 3.5446 19.1239 3.75149C19.1239 3.95839 18.9562 4.12647 18.7489 4.12647Z" fill="black"/>
<path d="M16.4991 4.12646C16.2916 4.12646 16.1241 3.95838 16.1241 3.75148V1.50164C16.1241 1.29474 16.2916 1.12666 16.4991 1.12666C16.7063 1.12666 16.874 1.29474 16.874 1.50164V3.75148C16.874 3.95893 16.7063 4.12646 16.4991 4.12646Z" fill="black"/>
<path d="M21.3752 10.501H18.7489C18.5415 10.501 18.3739 10.3329 18.3739 10.126C18.3739 9.91915 18.5415 9.75107 18.7489 9.75107H21.3752C21.5826 9.75107 21.7502 9.91915 21.7502 10.126C21.7502 10.3329 21.5826 10.501 21.3752 10.501Z" fill="black"/>
<path d="M5.24375 20.2533C5.03631 20.2533 4.86877 20.0857 4.86877 19.8783V13.1258C4.86877 12.9184 5.03631 12.7509 5.24375 12.7509C5.4512 12.7509 5.61873 12.9184 5.61873 13.1258V19.8783C5.61873 20.0854 5.4512 20.2533 5.24375 20.2533Z" fill="black"/>
<path d="M18.7489 20.2533C18.5415 20.2533 18.3739 20.0857 18.3739 19.8783V13.1258C18.3739 12.9184 18.5415 12.7509 18.7489 12.7509C18.9562 12.7509 19.1239 12.9184 19.1239 13.1258V19.8783C19.1239 20.0854 18.9562 20.2533 18.7489 20.2533Z" fill="black"/>
<path d="M18.7489 20.2533H5.24375C5.0363 20.2533 4.86877 20.0858 4.86877 19.8783C4.86877 19.671 5.0363 19.5033 5.24375 19.5033H18.7489C18.9561 19.5033 19.1238 19.671 19.1238 19.8783C19.1238 20.0858 18.9561 20.2533 18.7489 20.2533Z" fill="black"/>
<path d="M9.00027 7.50122H7.50037C7.29293 7.50122 7.1254 7.33314 7.1254 7.12624V5.62635C7.1254 5.41945 7.29293 5.25137 7.50037 5.25137H9.00027C9.20753 5.25137 9.37524 5.41945 9.37524 5.62635V7.12624C9.37524 7.33369 9.20753 7.50122 9.00027 7.50122ZM7.87534 6.75127H8.62529V6.00132H7.87534V6.75127Z" fill="#3387EB"/>
<path d="M16.499 6.75128H10.5002C10.2927 6.75128 10.1252 6.5832 10.1252 6.3763C10.1252 6.16941 10.2927 6.00133 10.5002 6.00133H16.499C16.7063 6.00133 16.874 6.16941 16.874 6.3763C16.874 6.5832 16.7063 6.75128 16.499 6.75128Z" fill="#3387EB"/>
<path d="M16.499 9.75107H10.5002C10.2927 9.75107 10.1252 9.58299 10.1252 9.3761C10.1252 9.1692 10.2927 9.00112 10.5002 9.00112H16.499C16.7063 9.00112 16.874 9.1692 16.874 9.3761C16.874 9.58299 16.7063 9.75107 16.499 9.75107Z" fill="#3387EB"/>
<path d="M9.00027 16.5014H7.50037C7.29293 16.5014 7.1254 16.3338 7.1254 16.1264V14.6265C7.1254 14.4192 7.29293 14.2515 7.50037 14.2515H9.00027C9.20753 14.2515 9.37524 14.4192 9.37524 14.6265V16.1264C9.37524 16.3338 9.20753 16.5014 9.00027 16.5014ZM7.87534 15.7514H8.62529V15.0014H7.87534V15.7514Z" fill="#3387EB"/>
<path d="M16.499 15.7514H10.5002C10.2927 15.7514 10.1252 15.5839 10.1252 15.3764C10.1252 15.1692 10.2927 15.0014 10.5002 15.0014H16.499C16.7063 15.0014 16.874 15.1692 16.874 15.3764C16.874 15.5839 16.7063 15.7514 16.499 15.7514Z" fill="#3387EB"/>
<path d="M7.87463 10.1264C7.77851 10.1264 7.68257 10.0896 7.60951 10.0166L7.23527 9.64195C7.08861 9.49529 7.08861 9.25837 7.23527 9.11171C7.38193 8.96542 7.61885 8.96505 7.76551 9.11208L8.13975 9.48669C8.28623 9.63334 8.28623 9.87027 8.13975 10.0169C8.06651 10.09 7.97057 10.1264 7.87463 10.1264Z" fill="#3387EB"/>
<path d="M7.87468 10.1264C7.77856 10.1264 7.68262 10.0896 7.60957 10.0166C7.46291 9.87026 7.46291 9.63297 7.60957 9.48632L8.73375 8.36176C8.88041 8.21511 9.11733 8.21511 9.26399 8.36176C9.41046 8.50805 9.41046 8.74534 9.26399 8.892L8.1398 10.0166C8.06656 10.09 7.97062 10.1264 7.87468 10.1264Z" fill="#3387EB"/>
</g>
<defs>
<clipPath id="clip0">
<rect width="24" height="24" fill="white"/>
</clipPath>
</defs>
</svg>
