<svg width="48" height="48" viewBox="0 0 48 48" fill="none" xmlns="http://www.w3.org/2000/svg">
<path d="M46.542 9.8756H45.6554C45.6302 8.47301 44.4821 7.33959 43.0736 7.33959H40.928V3.9895C40.928 2.56531 39.769 1.40625 38.3448 1.40625H9.65513C8.23057 1.40625 7.07189 2.56531 7.07189 3.9895V7.33959H4.92626C3.51782 7.33959 2.36975 8.47301 2.34448 9.8756H1.45788C0.654051 9.8756 0 10.5296 0 11.3335V18.8437C0 19.6476 0.654051 20.3016 1.45788 20.3016H4.63769C5.44152 20.3016 6.09557 19.6476 6.09557 18.8437V11.3335C6.09557 10.5296 5.44152 9.8756 4.63769 9.8756H3.75475C3.77966 9.25011 4.29491 8.7484 4.92626 8.7484H7.07189V34.8852C7.07189 35.2745 7.38719 35.5898 7.77647 35.5898C8.16539 35.5898 8.48106 35.2745 8.48106 34.8852V29.0753C8.83336 29.2562 9.23253 29.3587 9.65513 29.3587H38.3448C38.7674 29.3587 39.1665 29.2562 39.5188 29.0753V40.4494C39.5188 41.0969 38.9922 41.6235 38.3448 41.6235H9.65513C9.00767 41.6235 8.48106 41.0969 8.48106 40.4494V38.1415C8.48106 37.7526 8.16539 37.4369 7.77647 37.4369C7.38719 37.4369 7.07189 37.7526 7.07189 38.1415V40.4494C7.07189 41.8736 8.23057 43.0323 9.65513 43.0323H10.3879V44.67C10.3879 45.7576 11.2727 46.6427 12.3607 46.6427H15.5277C16.6153 46.6427 17.5001 45.7576 17.5001 44.67V43.0323H30.4998V44.67C30.4998 45.7576 31.3846 46.6427 32.4722 46.6427H35.6392C36.7272 46.6427 37.612 45.7576 37.612 44.67V43.0323H38.3448C39.7693 43.0323 40.928 41.8736 40.928 40.4494V8.7484H43.0736C43.705 8.7484 44.2202 9.25011 44.2455 9.8756H43.3626C42.5588 9.8756 41.9043 10.5296 41.9043 11.3335V18.8437C41.9043 19.6476 42.5588 20.3016 43.3626 20.3016H46.542C47.3459 20.3016 47.9999 19.6476 47.9999 18.8437V11.3335C47.9999 10.5296 47.3459 9.8756 46.542 9.8756ZM4.63769 11.2844C4.66479 11.2844 4.68639 11.3064 4.68639 11.3335V18.8437C4.68639 18.8708 4.66442 18.8928 4.63769 18.8928H1.45788C1.43078 18.8928 1.40881 18.8708 1.40881 18.8437V11.3335C1.40881 11.3064 1.43078 11.2844 1.45788 11.2844H4.63769ZM16.0913 44.67C16.0913 44.9805 15.8382 45.2336 15.5277 45.2336H12.3607C12.0498 45.2336 11.7971 44.9805 11.7971 44.67V43.0323H16.0909V44.67H16.0913ZM36.2028 44.67C36.2028 44.9805 35.9501 45.2336 35.6392 45.2336H32.4722C32.1617 45.2336 31.9086 44.9805 31.9086 44.67V43.0323H36.2028V44.67ZM39.5188 9.82066H11.0683C10.6794 9.82066 10.3641 10.136 10.3641 10.5253C10.3641 10.9142 10.6794 11.2298 11.0683 11.2298H39.5192V24.5753H34.865C34.4758 24.5753 34.1605 24.8906 34.1605 25.2799C34.1605 25.6691 34.4758 25.9845 34.865 25.9845H39.5192V26.7758C39.5192 27.4229 38.9926 27.9499 38.3451 27.9499H9.65513C9.00767 27.9499 8.48106 27.4229 8.48106 26.7758V25.9845H31.5772C31.9665 25.9845 32.2818 25.6691 32.2818 25.2799C32.2818 24.8906 31.9665 24.5753 31.5772 24.5753H24.6481L31.2949 19.0191C31.5926 18.7701 31.6321 18.3266 31.3831 18.0285C31.1341 17.7308 30.6906 17.6909 30.3929 17.9403L22.4556 24.5753H19.4304L26.0767 19.0191C26.3748 18.7701 26.4144 18.3266 26.1654 18.0289C25.9163 17.7308 25.4728 17.6909 25.1748 17.9403L17.2379 24.5756H8.48106V7.56627H39.5188V9.82066ZM39.5188 6.1571H8.48106V3.9895C8.48106 3.34204 9.00767 2.81543 9.65513 2.81543H38.3448C38.9922 2.81543 39.5188 3.34204 39.5188 3.9895V6.1571ZM46.5911 18.8437C46.5911 18.8708 46.5691 18.8928 46.542 18.8928H43.3626C43.3355 18.8928 43.3135 18.8708 43.3135 18.8437V11.3335C43.3135 11.3064 43.3355 11.2844 43.3626 11.2844H46.542C46.5691 11.2844 46.5911 11.3064 46.5911 11.3335V18.8437Z" fill="black"/>
<path d="M17.4012 36.7797C18.0487 36.7797 18.5753 36.2527 18.5753 35.6052V34.478C18.5753 32.9502 17.3324 31.7073 15.8042 31.7073H11.4832C10.8358 31.7073 10.3092 32.2339 10.3092 32.8813V34.0085C10.3092 35.5364 11.5521 36.7797 13.0803 36.7797H17.4012ZM11.718 34.0085V33.1161H15.8042C16.5553 33.1161 17.1661 33.7273 17.1661 34.478V35.3705H13.0803C12.3292 35.3705 11.718 34.7593 11.718 34.0085Z" fill="#3387EB"/>
<path d="M34.9196 36.7797C36.4478 36.7797 37.6907 35.5364 37.6907 34.0085V32.8813C37.6907 32.2339 37.1641 31.7073 36.5167 31.7073H32.1957C30.6679 31.7073 29.4246 32.9502 29.4246 34.478V35.6052C29.4246 36.2527 29.9512 36.7797 30.5987 36.7797H34.9196ZM30.8334 34.478C30.8334 33.7269 31.4446 33.1161 32.1957 33.1161H36.2816V34.0085C36.2816 34.7596 35.6707 35.3705 34.9196 35.3705H30.8334V34.478Z" fill="#3387EB"/>
<path d="M27.1099 40.5681C27.6075 40.5681 28.0122 40.1635 28.0122 39.6658V37.8073C28.0122 37.3096 27.6075 36.9049 27.1099 36.9049H20.8901C20.3924 36.9049 19.9878 37.3096 19.9878 37.8073V39.6658C19.9878 40.1635 20.3924 40.5681 20.8901 40.5681H27.1099ZM21.3966 38.3137H26.6034V39.1593H21.3966V38.3137Z" fill="#3387EB"/>
</svg>
