<?xml version="1.0" encoding="UTF-8" standalone="no"?>
<svg
   xmlns:dc="http://purl.org/dc/elements/1.1/"
   xmlns:cc="http://creativecommons.org/ns#"
   xmlns:rdf="http://www.w3.org/1999/02/22-rdf-syntax-ns#"
   xmlns:svg="http://www.w3.org/2000/svg"
   xmlns="http://www.w3.org/2000/svg"
   xmlns:sodipodi="http://sodipodi.sourceforge.net/DTD/sodipodi-0.dtd"
   xmlns:inkscape="http://www.inkscape.org/namespaces/inkscape"
   width="24"
   height="24"
   viewBox="0 0 24 24"
   fill="none"
   version="1.1"
   id="svg17"
   sodipodi:docname="capital-demat.svg"
   inkscape:version="0.92.4 (fd57863, 2020-04-02)">
  <metadata
     id="metadata21">
    <rdf:RDF>
      <cc:Work
         rdf:about="">
        <dc:format>image/svg+xml</dc:format>
        <dc:type
           rdf:resource="http://purl.org/dc/dcmitype/StillImage" />
      </cc:Work>
    </rdf:RDF>
  </metadata>
  <sodipodi:namedview
     pagecolor="#ffffff"
     bordercolor="#666666"
     borderopacity="1"
     objecttolerance="10"
     gridtolerance="10"
     guidetolerance="10"
     inkscape:pageopacity="0"
     inkscape:pageshadow="2"
     inkscape:window-width="1360"
     inkscape:window-height="740"
     id="namedview19"
     showgrid="false"
     inkscape:zoom="9.8333333"
     inkscape:cx="10.220339"
     inkscape:cy="12"
     inkscape:window-x="0"
     inkscape:window-y="0"
     inkscape:window-maximized="1"
     inkscape:current-layer="g10" />
  <g
     clip-path="url(#clip0)"
     id="g10">
    <path
       d="M5.8396 13.8737H0.834045C0.407959 13.8737 0.0615234 14.2203 0.0615234 14.6464V23.2273C0.0615234 23.6534 0.408142 24 0.834045 24H5.8396C6.26569 24 6.6123 23.6534 6.6123 23.2273V14.6464C6.6123 14.2203 6.26569 13.8737 5.8396 13.8737ZM5.90991 23.2275C5.90991 23.2661 5.87842 23.2976 5.8396 23.2976H0.834045C0.79541 23.2976 0.763916 23.2661 0.763916 23.2275V14.6464C0.763916 14.6076 0.79541 14.5761 0.834045 14.5761H5.8396C5.87823 14.5761 5.90991 14.6076 5.90991 14.6464V23.2275Z"
       fill="black"
       id="path2"
       style="fill:#ffffff" />
    <path
       d="M14.5131 11.1304H9.50775C9.08167 11.1304 8.73505 11.4771 8.73505 11.9031V23.2273C8.73505 23.6534 9.08167 24 9.50775 24H14.5131C14.9392 24 15.2858 23.6534 15.2858 23.2273V11.9031C15.2858 11.4771 14.9392 11.1304 14.5131 11.1304ZM14.5834 23.2275C14.5834 23.2661 14.5519 23.2976 14.5131 23.2976H9.50775C9.46893 23.2976 9.43744 23.2661 9.43744 23.2275V11.9031C9.43744 11.8643 9.46893 11.8328 9.50775 11.8328H14.5131C14.5519 11.8328 14.5834 11.8643 14.5834 11.9031V23.2275Z"
       fill="black"
       id="path4"
       style="fill:#ffffff" />
    <path
       d="M23.1868 7.77229H18.1813C17.7552 7.77229 17.4088 8.11873 17.4088 8.54482V17.5338C17.4088 17.7279 17.5659 17.885 17.7599 17.885C17.9539 17.885 18.1111 17.7277 18.1111 17.5338V8.54482C18.1111 8.50618 18.1426 8.47469 18.1813 8.47469H23.1868C23.2255 8.47469 23.257 8.50618 23.257 8.54482V23.2273C23.257 23.2661 23.2255 23.2976 23.1868 23.2976H18.1813C18.1426 23.2976 18.1111 23.2661 18.1111 23.2273V19.1534C18.1111 18.9595 17.9539 18.8022 17.7599 18.8022C17.5659 18.8022 17.4088 18.9595 17.4088 19.1534V23.2273C17.4088 23.6534 17.7552 24 18.1813 24H23.1868C23.6127 24 23.9594 23.6534 23.9594 23.2273V8.54482C23.9594 8.11873 23.6127 7.77229 23.1868 7.77229Z"
       fill="black"
       id="path6"
       style="fill:#ffffff" />
    <path
       d="M21.0161 3.88055L21.5208 4.56775C21.685 4.79132 21.9573 4.9032 22.231 4.8598C22.5049 4.8164 22.7292 4.62579 22.816 4.36249L23.9365 0.969175C24.0112 0.742856 23.9716 0.4931 23.8306 0.301023C23.6895 0.109128 23.465 -0.00384781 23.2247 0.000180507L19.1038 0.0620702C18.9327 0.0646336 18.7791 0.161496 18.7029 0.314756C18.627 0.467832 18.6425 0.64874 18.7438 0.786435L19.5053 1.82336C19.5114 1.83178 19.5135 1.84112 19.5115 1.85119C19.5093 1.86145 19.504 1.86932 19.4951 1.87463L16.7245 3.54968C16.7111 3.55792 16.6943 3.55627 16.6826 3.54565L15.4534 2.4375C15.2064 2.21484 14.8387 2.18518 14.5593 2.36554L7.65033 6.82416C7.6377 6.8324 7.62103 6.83166 7.60931 6.82232L5.57172 5.22381C5.33002 5.03412 4.99182 5.01471 4.72998 5.17566L0.472046 7.79205C0.209839 7.95318 0.046875 8.2445 0.046875 8.55231V9.79394C0.046875 10.1199 0.224304 10.4196 0.510132 10.5764C0.643982 10.65 0.791931 10.6864 0.939331 10.6864C1.10632 10.6864 1.27295 10.6395 1.41888 10.5467L5.10315 8.20001C5.11578 8.19214 5.13208 8.19269 5.1438 8.20184L7.17737 9.76813C7.42584 9.95947 7.76898 9.97265 8.03119 9.80127L9.50153 8.84033C9.66394 8.73431 9.70953 8.5166 9.60352 8.35419C9.49731 8.19177 9.2796 8.14618 9.11737 8.25238L7.64703 9.21313C7.6344 9.22137 7.61792 9.22082 7.60602 9.21167L5.57245 7.64538C5.32727 7.45642 4.98706 7.44122 4.72595 7.60748L1.0415 9.95416C0.955811 10.0087 0.877625 9.97687 0.847961 9.96057C0.818298 9.94427 0.749451 9.89557 0.749451 9.79394V8.55231C0.749451 8.48694 0.784058 8.42486 0.839905 8.39044L5.09802 5.77423C5.11047 5.76654 5.12677 5.76745 5.13831 5.77661L7.1759 7.37512C7.42328 7.56921 7.76715 7.58496 8.03137 7.41449L14.9401 2.95569C14.9535 2.94708 14.9711 2.94836 14.983 2.95917L16.2122 4.0675C16.4557 4.28705 16.8076 4.32037 17.0881 4.15082L19.8585 2.47577C20.0354 2.36883 20.1599 2.19122 20.2004 1.98852C20.2408 1.78583 20.1938 1.57416 20.0715 1.40753L19.5938 0.757139L23.2354 0.70239C23.2399 0.70239 23.2537 0.702207 23.2645 0.716855C23.2753 0.731504 23.2711 0.744138 23.2696 0.748899L22.1492 4.14221C22.147 4.1488 22.1424 4.16272 22.1212 4.16601C22.0997 4.16949 22.0911 4.15759 22.0871 4.15191L21.5823 3.46472C21.3563 3.1571 20.9385 3.07232 20.6105 3.26733L16.4105 5.76471C16.3969 5.77295 16.3793 5.77093 16.3678 5.75995L15.3918 4.83124C15.1426 4.5943 14.7675 4.55987 14.4796 4.74811L10.4658 7.37109C10.3035 7.47711 10.2579 7.69482 10.364 7.85705C10.47 8.01965 10.6877 8.06506 10.8501 7.95904L14.8638 5.33606C14.8777 5.32709 14.8956 5.32873 14.9075 5.34009L15.8837 6.2688C16.1223 6.49566 16.4863 6.53668 16.7693 6.36841L20.9694 3.87103C20.9852 3.86169 21.0053 3.8659 21.0161 3.88055Z"
       fill="#3387EB"
       id="path8" />
  </g>
  <defs
     id="defs15">
    <clipPath
       id="clip0">
      <rect
         width="24"
         height="24"
         fill="white"
         id="rect12" />
    </clipPath>
  </defs>
</svg>
