<?xml version="1.0" encoding="utf-8"?>
<!-- Generator: Adobe Illustrator 23.0.1, SVG Export Plug-In . SVG Version: 6.00 Build 0)  -->
<svg version="1.1" id="Layer_1" xmlns="http://www.w3.org/2000/svg" xmlns:xlink="http://www.w3.org/1999/xlink" x="0px" y="0px"
	 viewBox="0 0 1024 1024" style="enable-background:new 0 0 1024 1024;" xml:space="preserve">
<style type="text/css">
	.st0{fill:#BD8879;}
	.st1{fill:url(#SVGID_1_);}
	.st2{fill:url(#SVGID_2_);}
	.st3{fill:url(#SVGID_3_);}
	.st4{fill:#FFB7A4;}
	.st5{fill:#183883;}
	.st6{fill:url(#SVGID_4_);}
	.st7{fill:url(#SVGID_5_);}
	.st8{fill:url(#SVGID_6_);}
	.st9{fill:url(#SVGID_7_);}
	.st10{fill:url(#SVGID_8_);}
	.st11{fill:url(#SVGID_9_);}
	.st12{fill:#FFB178;}
	.st13{fill:#FFFFFF;}
	.st14{fill:url(#SVGID_10_);}
	.st15{fill:url(#SVGID_11_);}
	.st16{fill:url(#SVGID_12_);}
	.st17{fill:url(#SVGID_13_);}
	.st18{fill:url(#SVGID_14_);}
</style>
<g>
	<path class="st0" d="M923.7,492.7c-2.2,1.4-5.2,0.7-6.5-1.6l-8.8-14.3c-5.6,5.4-9.3,11.5-5.9,16.3c8.3,11.6,40.8-8.5,40.8-8.5
		l-1.9-2.7L923.7,492.7z"/>
	<g>
		<linearGradient id="SVGID_1_" gradientUnits="userSpaceOnUse" x1="519.8847" y1="489.2784" x2="519.8847" y2="471.476">
			<stop  offset="0" style="stop-color:#0083BD"/>
			<stop  offset="0.2262" style="stop-color:#0489C4"/>
			<stop  offset="0.5551" style="stop-color:#119AD7"/>
			<stop  offset="0.9449" style="stop-color:#25B6F7"/>
			<stop  offset="1" style="stop-color:#28BBFC"/>
		</linearGradient>
		<rect x="504.2" y="471.5" class="st1" width="31.4" height="17.8"/>
		<linearGradient id="SVGID_2_" gradientUnits="userSpaceOnUse" x1="626.2639" y1="484.192" x2="626.2639" y2="471.476">
			<stop  offset="0" style="stop-color:#0083BD"/>
			<stop  offset="0.2262" style="stop-color:#0489C4"/>
			<stop  offset="0.5551" style="stop-color:#119AD7"/>
			<stop  offset="0.9449" style="stop-color:#25B6F7"/>
			<stop  offset="1" style="stop-color:#28BBFC"/>
		</linearGradient>
		<rect x="608.8" y="471.5" class="st2" width="34.9" height="12.7"/>
		<linearGradient id="SVGID_3_" gradientUnits="userSpaceOnUse" x1="638.6276" y1="560.6658" x2="638.6276" y2="429.2684">
			<stop  offset="0" style="stop-color:#0083BD"/>
			<stop  offset="0.2262" style="stop-color:#0489C4"/>
			<stop  offset="0.5551" style="stop-color:#119AD7"/>
			<stop  offset="0.9449" style="stop-color:#25B6F7"/>
			<stop  offset="1" style="stop-color:#28BBFC"/>
		</linearGradient>
		<path class="st3" d="M747.3,429.3l-9.8,20l-9.8-20h-71.9l0.1,0.1c-1-0.1-2-0.1-3.1-0.1h-52.9c-10.8,0-19.8,3.2-26.6,9.5
			c-0.1-0.1-0.1-0.2-0.2-0.2c-6.1-6.1-15-9.2-26.3-9.2h-88.7v131.4h60.9v-33.3h28.4c5.6,0,10.6-0.8,15-2.5v35.8h60.8h5.9h61v-74.5
			l16.3,27v47.5h61.9v-47.5l50.7-83.9H747.3z M567.8,493c0,6.7-1.7,11.7-5,15c-3.3,3.3-8.5,4.9-15.3,4.9h-42.9v33.3h-31.9V443.8
			h74.2c7.4,0,12.7,1.7,16,5c3.3,3.3,5,8.6,5,16V493z M675.7,546.2h-32v-41.2h-34.9v41.2H577v-81.2c0-6.6,2-11.7,6.1-15.5
			c4.1-3.8,9.7-5.7,16.8-5.7h52.9c7.1,0,12.7,1.9,16.8,5.7c4.1,3.8,6.1,8.9,6.1,15.5V546.2z M753.9,509.2v37H721v-37l-39.5-65.4
			h37.1l18.8,38.5l18.9-38.5h37L753.9,509.2z"/>
	</g>
	<path class="st4" d="M954.5,473.9l-30.9,18.8c-2,1.2-4.5,0.8-6-0.8c-2.2,0.7-4.5,1.2-6.9,1.2c-8.6,0.2-15.2-17.3-15.2-17.3
		c-9.8-7.1-28.4,24.1-28.4,24.1l-23.8,0.6l3.4,30.5c0,0,1.6,0.6,35.8-6.7c8-3.5,45.4-7.1,52.8-15.2c4.4-13.7,26.5-25.4,19.7-35
		C954.8,474.1,954.7,474,954.5,473.9z"/>
	<g>
		<g>
			<g>
				<path class="st5" d="M589,615.3h-7.9v44h-6.8v-20.2h-10v-3.4c-2.2,5.2-6.4,8.6-12.6,10.1l15.9,13.5H557l-24.5-21l4.5-4.9
					c3,2.7,4.7,4.1,4.9,4.2c1.9,1.4,3.9,2,5.8,2c3.4,0,6.1-1.1,8.2-3.3s3.1-5.1,3.1-8.5c0-5.7-2.3-9.9-6.9-12.4h-22.9v-4.7H589
					V615.3z M574.3,615.3h-13.1c3.1,3,4.7,7.2,4.7,12.4c0,1.9-0.2,3.7-0.7,5.5h9.2V615.3z"/>
				<path class="st5" d="M635.7,615.2h-7.9v44.1h-6.8v-8.8c-3.2,2.8-7,4.1-11.3,4.1c-4.7,0-8.7-1.6-12.1-4.9
					c-3.4-3.3-5.1-7.2-5.1-11.9s1.7-8.7,5.1-12.3c3.4-3.5,7.4-5.3,12.1-5.3c3.2,0,6.4,1,9.4,3v9.5c-2-3.8-5-5.8-9.2-5.8
					c-0.9,0-1.8,0.1-2.7,0.3l11.8,15.4c1.3-2,2-3.4,2-4.1v-23.3h-32.2v-4.5h46.8V615.2z M614.3,647.1l-12.7-16.2
					c-1.5,2-2.2,4.1-2.2,6.6c0,2.9,1,5.4,3,7.6c2,2.2,4.4,3.2,7.2,3.2C611.2,648.3,612.7,647.9,614.3,647.1z"/>
				<path class="st5" d="M616.1,611.2c-2.7-1.5-5.2-3.7-7.4-6.8c-2.6-3.6-4.6-5.8-5.8-6.8c-2.8-2.2-6.7-3.5-11.8-3.9l4.9-4.3
					c4.9,0.6,8.8,2.3,11.6,5.2c0.7,0.7,3.6,3.8,8.6,9.3c-0.9-4.2-2.1-7.6-3.7-10c-1.8-2.7-4.4-5.1-8-7.2l6.3-1.8
					c3.4,2,6,4.7,7.8,8.2c0.9,1.8,2,4.9,3,9.1c0.9,3.6,1.9,5.9,2.9,7.1C622.6,609.3,619.8,610,616.1,611.2z"/>
				<path class="st5" d="M645.7,654c0,3.2-1.7,4.9-5.2,4.9c-1.5,0-2.7-0.5-3.7-1.4c-1-0.9-1.5-2.2-1.5-3.6c0-1.5,0.5-2.7,1.5-3.6
					c1-0.9,2.2-1.4,3.7-1.4c1.5,0,2.8,0.5,3.8,1.5C645.2,651.2,645.7,652.5,645.7,654z"/>
			</g>
			<path class="st5" d="M718.5,615.3h-7.9v44h-6.8v-20.2h-10v-3.4c-2.2,5.2-6.4,8.6-12.6,10.1l15.9,13.5h-10.5l-24.5-21l4.5-4.9
				c3,2.7,4.7,4.1,4.9,4.2c1.9,1.4,3.9,2,5.8,2c3.4,0,6.1-1.1,8.2-3.3s3.1-5.1,3.1-8.5c0-5.7-2.3-9.9-6.9-12.4h-22.9v-4.7h59.7
				V615.3z M703.8,615.3h-13.1c3.1,3,4.7,7.2,4.7,12.4c0,1.9-0.2,3.7-0.7,5.5h9.2V615.3z"/>
			<path class="st5" d="M768.7,615.3h-8v44h-7v-7.1c-3.6,2.9-8.3,4.3-14.2,4.3c-5,0-9.2-1.5-12.6-4.4c-3.6-3.1-5.5-7.1-5.5-12
				c0-4.5,1.7-8.4,5.1-11.5c-1.7-2.2-2.5-4.6-2.5-7.3c0-2.2,0.5-4.1,1.6-6h-7.3v-4.7h8.2v3.3c2.4-3,5.4-4.5,9.1-4.5
				c2.8,0,5.2,0.9,7.4,2.7c2.2,1.8,3.5,4,4.1,6.7h-6.7c-1.1-2-2.6-3-4.6-3c-1.5,0-2.8,0.6-4,1.7c-1.2,1.2-1.8,2.5-1.8,4
				c0,1.3,0.5,2.5,1.4,3.6c2-0.8,4.1-1.2,6.3-1.2c2,0,3.8,0.3,5.7,1v7.6c-1.8-1.3-3.7-2-5.7-2c-2.6,0-4.9,1-6.9,3.1
				c-2,2.1-3,4.4-3,7.1c0,3.1,1.1,5.5,3.4,7.3c2.3,1.7,5,2.6,8.2,2.6c7,0,11.7-2.9,14.2-8.8v-26.4h-4.7v-4.7h19.6V615.3z"/>
			<path class="st5" d="M749,611.2c-2.7-1.5-5.2-3.7-7.4-6.8c-2.6-3.6-4.6-5.8-5.8-6.8c-2.8-2.2-6.7-3.5-11.8-3.9l4.9-4.3
				c4.9,0.6,8.8,2.3,11.6,5.2c0.7,0.7,3.6,3.8,8.6,9.3c-0.9-4.2-2.1-7.6-3.7-10c-1.8-2.7-4.4-5.1-8-7.2l6.3-1.8c3.4,2,6,4.7,7.8,8.2
				c0.9,1.8,2,4.9,3,9.1c0.9,3.6,1.9,5.9,2.9,7.1C755.5,609.3,752.7,610,749,611.2z"/>
			<path class="st5" d="M767.5,601.2c0,1.5-0.5,2.7-1.4,3.6c-0.9,0.9-2.2,1.4-3.6,1.4c-3.5,0-5.3-1.7-5.3-5.2c0-1.5,0.5-2.7,1.4-3.7
				c0.9-1,2.2-1.5,3.6-1.5c1.6,0,2.8,0.5,3.8,1.5C767,598.4,767.5,599.7,767.5,601.2z"/>
		</g>
	</g>
	<g>
		<linearGradient id="SVGID_4_" gradientUnits="userSpaceOnUse" x1="820.0693" y1="496.9418" x2="917.4313" y2="496.9418">
			<stop  offset="0" style="stop-color:#0083BD"/>
			<stop  offset="0.1894" style="stop-color:#047CB9"/>
			<stop  offset="0.4648" style="stop-color:#0F69AF"/>
			<stop  offset="0.791" style="stop-color:#20499F"/>
			<stop  offset="1" style="stop-color:#2E3192"/>
		</linearGradient>
		<path class="st6" d="M863.5,621.1c-6.6,3.4-9.4-7.6-9.4-7.6l-0.6-3.3c-0.1-0.5-0.1-0.9-0.2-1.4c-0.8-7.4-1.4-14.8-2.2-22.2
			c-0.6-6.5-1.4-12.9-2-19.4c-0.6-6.6-1.2-13.1-1.8-19.7c-0.7-7.8-1.5-15.7-2.3-23.5c-0.6-6.1-1.3-12.3-1.9-18.4
			c-0.7-6.7-1.3-13.5-2-20.2c-0.8-8.2-1.8-16.3-2.6-24.5c-0.8-7.7-1.4-15.4-2.2-23c-0.8-8.2-1.7-16.4-2.5-24.5
			c-0.8-7.6-1.2-11-1.9-18.6c-0.1-0.8-0.1-0.9,0.1-2.1c0,0,0.4-1.1,0.4-1.1c3-6.7,9.1-6.4,13.8-7.3c6.8-1.3,13.7-1.9,20.6-2.6
			c8.7-1,17.5-1.8,26.3-2.6c5.9-0.7,9.5,0.3,10.7,1.5c-0.1-1.3-0.4-4.2-0.5-5.6c-0.6-5.8-3.5-10.2-10-10.2c-2.9,0-5.8,0.2-8.8,0.4
			c-5.6,0.3-11.1,0.6-16.7,1c-6,0.5-11.9,1-17.9,1.6c-5.9,0.6-11.7,1.3-17.6,1.7c-7.1,0.6-12.5,8.4-12.2,14.7
			c0.3,5.3,0.9,10.6,1.5,15.9c0.9,8,1.9,16,2.7,24c1,9.3,1.8,18.6,2.8,27.9c1,9.1,2.1,18.2,3,27.3c1,9.7,1.7,19.5,2.6,29.2
			c1.1,11.9,2.4,23.8,3.5,35.8c1.3,13.6,2.5,27.1,3.7,40.7c0.9,9.6,1.7,19.3,2.5,28.9c0.8,9,7.3,15.1,15.2,15.4
			c1.4,0,2.9,0.3,4.1-0.2c4.1-1.7,8.2-3.3,12.1-5.5c13.8-7.6,27.6-15.3,41.2-23.3c0.9-0.5,1.7-1.1,2.4-1.6
			C906,605.3,863.5,621.1,863.5,621.1z M884.5,371.2c0.6,0,1.2,0.7,1.3,1.6c0,0.9-0.4,1.7-1.1,1.7c-0.6,0-1.2-0.7-1.3-1.6
			C883.3,372,883.8,371.2,884.5,371.2z M874.8,373.8l0.1,0.7l-15.4,1.8l-0.1-0.7L874.8,373.8z"/>
		<g>
			<g>
				
					<linearGradient id="SVGID_5_" gradientUnits="userSpaceOnUse" x1="1242.8613" y1="351.332" x2="1325.2306" y2="351.332" gradientTransform="matrix(0.9998 -1.871263e-02 1.871263e-02 0.9998 -359.3717 108.965)">
					<stop  offset="0" style="stop-color:#0083BD"/>
					<stop  offset="0.1894" style="stop-color:#047CB9"/>
					<stop  offset="0.4648" style="stop-color:#0F69AF"/>
					<stop  offset="0.791" style="stop-color:#20499F"/>
					<stop  offset="1" style="stop-color:#2E3192"/>
				</linearGradient>
				<path class="st7" d="M890.1,449.8c21.9-11.1,36.9-28.6,48.1-49.7c0.1-0.3,0.3-0.5,0.4-0.8c0,0,0.1-0.1,0.3-0.2
					c0.8,0.3,1.7,0.5,2.6,0.9c9.9,4.3,18.8,10.1,26.3,17.9c5.7,6,5.2,5.2,1.3,12c-4.4,7.6-10.6,13.7-17.1,19.6
					c-9.2,8.3-18.9,15.8-30.1,21.3c-7.7,3.8-6,3.8-12.8-1.1c-7-5-12.9-11.3-17.9-18.3C890.7,450.8,890.4,450.2,890.1,449.8z
					 M896.8,451.5c4.2,5.2,8.6,9.9,13.9,13.8c5.7,4.2,3.9,4.2,10.1,0.9c12.4-6.5,23.2-15.3,33.2-25.1c4.4-4.4,8.5-9,11.7-14.4
					c1.6-2.7,1.6-2.8-0.6-5.1c-5.2-5.5-11.3-9.8-17.8-13.6c-2-1.2-4.1-2.2-6.1-3.3C930.1,423.9,916.3,440.2,896.8,451.5z"/>
				
					<linearGradient id="SVGID_6_" gradientUnits="userSpaceOnUse" x1="1246.8591" y1="335.8593" x2="1286.3186" y2="335.8593" gradientTransform="matrix(0.9998 -1.871263e-02 1.871263e-02 0.9998 -359.3717 108.965)">
					<stop  offset="0" style="stop-color:#0083BD"/>
					<stop  offset="0.1894" style="stop-color:#047CB9"/>
					<stop  offset="0.4648" style="stop-color:#0F69AF"/>
					<stop  offset="0.791" style="stop-color:#20499F"/>
					<stop  offset="1" style="stop-color:#2E3192"/>
				</linearGradient>
				<path class="st8" d="M932.6,403c0,0.1,0,0.1,0,0.2c-1.6,3.5-1.6,3.5-5.2,2.2c-1.5-0.5-2.9-0.9-4.4-1.5c-1.1-0.4-1.6-0.1-1.9,1
					c-3.6,10.5-8.8,20.3-14.9,29.5c-1.9,2.9-4.7,4.5-7.4,6.4c-1.6,1.2-3.4,2.1-4.8,3c3.9-5.6,8.2-11.3,11.9-17.2
					c5.3-8.3,9.5-17.2,12.2-26.7c0.3-0.9,0.6-1.4,1.6-1.2c4.3,1.2,8.6,2.5,13,3.7C932.6,402.6,932.6,402.8,932.6,403z"/>
				
					<linearGradient id="SVGID_7_" gradientUnits="userSpaceOnUse" x1="1231.2599" y1="377.6799" x2="1261.5997" y2="377.6799" gradientTransform="matrix(0.9998 -1.871263e-02 1.871263e-02 0.9998 -359.3717 108.965)">
					<stop  offset="0" style="stop-color:#0083BD"/>
					<stop  offset="0.1894" style="stop-color:#047CB9"/>
					<stop  offset="0.4648" style="stop-color:#0F69AF"/>
					<stop  offset="0.791" style="stop-color:#20499F"/>
					<stop  offset="1" style="stop-color:#2E3192"/>
				</linearGradient>
				<path class="st9" d="M909.3,474.5c-1.2,1.4-2.5,1.1-3.9,0.6c-6.9-2.8-13-6.7-18.7-11.4c-2.8-2.2-5.3-4.7-8.1-7.2
					c2.7-2,5.2-3.8,7.9-5.7c0.7,1.1,1.5,2.2,2.3,3.5c-1,0.9-2,1.7-3.1,2.6C892.6,464.2,902.1,467.8,909.3,474.5z"/>
				
					<linearGradient id="SVGID_8_" gradientUnits="userSpaceOnUse" x1="1230.0878" y1="383.6441" x2="1247.2065" y2="383.6441" gradientTransform="matrix(0.9998 -1.871263e-02 1.871263e-02 0.9998 -359.3717 108.965)">
					<stop  offset="0" style="stop-color:#0083BD"/>
					<stop  offset="0.1894" style="stop-color:#047CB9"/>
					<stop  offset="0.4648" style="stop-color:#0F69AF"/>
					<stop  offset="0.791" style="stop-color:#20499F"/>
					<stop  offset="1" style="stop-color:#2E3192"/>
				</linearGradient>
				<path class="st10" d="M877.6,467.1c1.1-1,2-1.9,3-2.7c0.2-0.2,0.8-0.2,1.1,0c4.5,3.3,8.9,6.7,13.2,10
					C893.3,474.9,882.1,470.3,877.6,467.1z"/>
			</g>
			<g>
				
					<linearGradient id="SVGID_9_" gradientUnits="userSpaceOnUse" x1="2888.3481" y1="-673.2513" x2="2945.2126" y2="-673.2513" gradientTransform="matrix(0.7439 -0.6683 0.6683 0.7439 -785.8197 2917.623)">
					<stop  offset="0" style="stop-color:#0083BD"/>
					<stop  offset="0.1894" style="stop-color:#047CB9"/>
					<stop  offset="0.4648" style="stop-color:#0F69AF"/>
					<stop  offset="0.791" style="stop-color:#20499F"/>
					<stop  offset="1" style="stop-color:#2E3192"/>
				</linearGradient>
				<path class="st11" d="M906.8,465.1l37.5-22.9c2.2-1.4,5.2-0.7,6.5,1.6l11.9,19.5c1.4,2.2,0.7,5.2-1.6,6.5l-37.5,22.9
					c-2.2,1.4-5.2,0.7-6.5-1.6l-11.9-19.5C903.9,469.4,904.6,466.5,906.8,465.1z"/>
				<g>
					<path class="st12" d="M925.4,462.9c-0.1,0,0.1-0.2-0.1-0.4c-0.1-0.3-0.1-0.4-0.4-0.3c-0.2,0.1-0.4,0.2-0.3,0.4
						c0.1,0.2,0.3-0.1,0.2,0.3c-0.1,0.4,0,0.4,0,0.6c0.1,0.2,0,0.4,0.1,0.5c0.1,0.1,0.4,0.6,0.4,0.2c0-0.4-0.3-0.5,0-0.6
						c0.2-0.1,0.3-0.3,0.2-0.5C925.5,463,925.5,462.9,925.4,462.9z"/>
					<path class="st12" d="M921.1,469.6c0.1-0.2,0.1-0.1-0.3-0.1c-0.5,0-0.3,0-0.5-0.2c-0.2-0.2-0.2-0.2-0.4-0.3
						c-0.2-0.1-0.4-0.1-0.5-0.1c-0.1,0-0.4-0.1-0.3,0.2c0.2,0.3,0.3,0.2,0.4,0.3c0.1,0.1,0.2,0,0.4,0.1c0.2,0.1,0.1,0.2,0.5,0.2
						c0.3,0,0.5,0,0.6,0C920.9,469.8,921,469.7,921.1,469.6z"/>
					<path class="st12" d="M918.9,469c0-0.1,0,0.1-0.1,0.1c-0.1,0.1,0,0-0.2,0c-0.2,0.1-0.2,0.1-0.2,0.2c0,0.1,0.2,0-0.1,0.1
						s-0.2,0.1-0.3,0.1c-0.1,0-0.4-0.1-0.2-0.2c0.2-0.1,0.3,0,0.4-0.2c0.1-0.1,0.2-0.1,0.3-0.2C918.7,468.9,918.8,468.9,918.9,469
						C918.9,468.9,918.9,469.1,918.9,469z"/>
					<path class="st12" d="M918,470.1c-0.1,0-0.1,0.2,0,0.3c0.1,0.2,0.2,0.1,0.1,0.3c-0.1,0.2,0,0,0.1,0.2c0.1,0.2,0.2,0.1,0.1,0.3
						c-0.1,0.2-0.1,0.2,0.1,0.2c0.1,0,0.3,0.2,0.3,0c0-0.2,0-0.3,0.1-0.5c0.1-0.1,0.1,0,0.1-0.3c0-0.3-0.1-0.2,0-0.3
						c0.1-0.1,0.6,0.1,0.2-0.1c-0.4-0.2,0.1,0,0-0.1c-0.1-0.1-0.2,0-0.3-0.1c-0.2-0.1-0.2-0.2-0.3-0.1c-0.2,0.1-0.1,0.1-0.3,0.1
						C918,469.9,918.1,470.1,918,470.1z"/>
					<path class="st12" d="M916.2,471.6c0.3,0.2-0.1,0.2-0.4,0.1c-0.3-0.1-0.2-0.3-0.3-0.1c-0.1,0.2,0,0.4-0.3,0.4
						c-0.3,0-0.3,0-0.4,0c-0.1,0.1-0.1,0.2-0.3,0.1c-0.2-0.1-0.2,0-0.3,0c-0.1,0-0.1,0-0.3-0.1c-0.2-0.1-0.1-0.2-0.3-0.2
						c-0.2,0-0.4,0.1-0.3-0.1c0-0.1,0-0.2,0.2-0.1c0.3,0,0.5,0.1,0.6,0c0.1-0.1,0-0.1,0.1-0.3c0.1-0.1,0.3-0.3,0.4-0.2
						c0.1,0.1,0.2-0.2,0.3-0.1c0.1,0.1-0.1,0.3,0.1,0.2c0.2,0,0.3,0.2,0.4,0c0.2-0.2,0.3-0.1,0.4,0c0,0.1,0.2,0.1,0.3,0.1
						C916.3,471.5,916.2,471.6,916.2,471.6z"/>
					<path class="st12" d="M919.1,473.1c0.1-0.1,0.2-0.2,0-0.4c-0.2-0.1,0-0.4-0.3-0.4s-0.4,0.2-0.2,0.2c0.1,0.1,0.2-0.1,0.2,0.2
						c0,0.3,0,0.3,0.1,0.4c0.1,0.1,0.2,0.2,0.2,0.1C919.1,473.2,919.1,473.2,919.1,473.1z"/>
					<path class="st12" d="M917.7,470.6c-0.1,0,0.1-0.1,0-0.2c-0.2-0.2-0.2-0.3-0.3-0.3c-0.1,0-0.1,0.1,0,0.2
						c0.1,0.1,0.3,0.2,0.1,0.2c-0.2,0,0,0-0.2-0.1c-0.2-0.1-0.3-0.1-0.3,0c0.1,0.1,0.1,0.1,0.2,0.3c0.1,0.1,0.2,0.2,0.1,0.2
						c-0.1,0,0,0.2,0,0.1c0.1,0,0-0.1,0.1-0.2c0.1-0.1,0-0.1,0.1-0.1c0.1,0,0.4,0,0.1,0.1c-0.3,0.2-0.5,0.3-0.4,0.3
						c0.1,0,0.2,0.2,0.3,0c0-0.2,0.1-0.2,0.2-0.2s0.3,0,0.1-0.2C917.8,470.6,917.8,470.6,917.7,470.6z"/>
					<path class="st12" d="M918,472.2c0.1,0,0.3-0.4,0.1-0.3c-0.2,0-0.2,0.2-0.2,0.1c-0.1-0.1,0.2-0.2-0.1-0.2s-0.4,0-0.3,0.1
						c0.1,0.1,0.2,0.2,0.1,0.2c-0.1,0-0.2,0-0.1,0.1c0.1,0.1,0.1,0.1,0.2,0.2c0.1,0.1,0,0.1,0.1,0
						C917.8,472.3,917.9,472.3,918,472.2z"/>
				</g>
				
					<rect x="903.2" y="458.2" transform="matrix(0.8536 -0.5209 0.5209 0.8536 -103.939 551.835)" class="st13" width="53.4" height="5.3"/>
				<g>
					<path class="st13" d="M948.1,464.3l5.9-3.6c0.7-0.4,1.6-0.1,2.1,0.7l1.9,3.1c0.5,0.8,0.3,1.8-0.3,2.2l-5.9,3.6
						c-0.7,0.4-1.6,0.1-2.1-0.7l-1.9-3.1C947.2,465.7,947.4,464.7,948.1,464.3z"/>
					
						<linearGradient id="SVGID_10_" gradientUnits="userSpaceOnUse" x1="2927.0566" y1="-662.121" x2="2937.1306" y2="-662.121" gradientTransform="matrix(0.7439 -0.6683 0.6683 0.7439 -785.8197 2917.623)">
						<stop  offset="0" style="stop-color:#0083BD"/>
						<stop  offset="0.1894" style="stop-color:#047CB9"/>
						<stop  offset="0.4648" style="stop-color:#0F69AF"/>
						<stop  offset="0.791" style="stop-color:#20499F"/>
						<stop  offset="1" style="stop-color:#2E3192"/>
					</linearGradient>
					<path class="st14" d="M949.2,468.9l0.2,0.3l2.1-1.3l0,0c0.3,0.4,0.8,0.6,1.2,0.4l0.6,1l0.3-0.2l-0.6-1l2.3-1.4l0.6,1l0.3-0.2
						l-0.6-1c0.3-0.3,0.4-0.9,0.2-1.3l0,0l1.9-1.2l-0.2-0.3l-1.9,1.2l-0.9-1.5l1.9-1.2l-0.2-0.3l-1.9,1.2l0,0
						c-0.3-0.4-0.8-0.6-1.2-0.4l-0.7-1.1l-0.3,0.2l0.6,1.1l-2.3,1.4l-0.6-1.1l-0.3,0.2l0.7,1.1c-0.3,0.3-0.4,0.9-0.2,1.3l0,0
						L948,467l0.2,0.3l2.1-1.3l0.9,1.5L949.2,468.9z M950.5,465.5c-0.2-0.3-0.1-0.7,0.2-0.9l2.5-1.5c0.3-0.2,0.7-0.1,0.9,0.2
						l1.3,2.2c0.2,0.3,0.1,0.7-0.2,0.9l-2.5,1.5c-0.3,0.2-0.7,0.1-0.9-0.2L950.5,465.5z"/>
				</g>
				<g>
					
						<rect x="943.6" y="457.7" transform="matrix(0.8536 -0.5209 0.5209 0.8536 -99.9569 561.1409)" class="st13" width="9.8" height="1.5"/>
					
						<rect x="938.4" y="456.5" transform="matrix(0.8536 -0.5209 0.5209 0.8536 -99.792 559.3156)" class="st13" width="13.9" height="1.5"/>
					
						<rect x="919" y="466.4" transform="matrix(0.8536 -0.5209 0.5209 0.8536 -107.3407 552.2921)" class="st13" width="20.2" height="1.5"/>
					
						<rect x="914.1" y="475.7" transform="matrix(0.8536 -0.5209 0.5209 0.8536 -113.679 548.383)" class="st13" width="9.8" height="1.5"/>
					
						<rect x="923.9" y="469.7" transform="matrix(0.8536 -0.5209 0.5209 0.8536 -109.1189 552.6228)" class="st13" width="9.8" height="1.5"/>
					
						<rect x="919.9" y="484.5" transform="matrix(0.8536 -0.5209 0.5209 0.8536 -117.3885 552.6918)" class="st13" width="9.8" height="1.5"/>
					
						<rect x="929.7" y="478.5" transform="matrix(0.8536 -0.5209 0.5209 0.8536 -112.8284 556.9316)" class="st13" width="9.8" height="1.5"/>
					
						<rect x="933.7" y="463.7" transform="matrix(0.8536 -0.5209 0.5209 0.8536 -104.5657 556.8561)" class="st13" width="9.8" height="1.5"/>
				</g>
			</g>
			<path class="st4" d="M896.2,501.1c8.3-5.9,5-14.3,13.8-20.5c8.7-6.2,15.9-9.2,15.9-9.2c3.9-2.8,5-7.9,2.4-11.4l-0.1-0.1
				c-2.5-3.6-7.7-4.2-11.6-1.4c0,0-8.3,6.6-14.5,11.1c-6.2,4.4-13.9,7.2-21.2,12.4C873.6,487,887.9,507,896.2,501.1z"/>
			<path class="st13" d="M913.8,462.6l6-4c0,0,4.5-1.1,6.5,1.8c2,2.9,0.4,5.6,0.4,5.6l-6.5,4L913.8,462.6z"/>
		</g>
		<linearGradient id="SVGID_11_" gradientUnits="userSpaceOnUse" x1="853.0505" y1="537.2955" x2="853.0505" y2="491.5204">
			<stop  offset="0" style="stop-color:#0083BD"/>
			<stop  offset="0.2262" style="stop-color:#0489C4"/>
			<stop  offset="0.5551" style="stop-color:#119AD7"/>
			<stop  offset="0.9449" style="stop-color:#25B6F7"/>
			<stop  offset="1" style="stop-color:#28BBFC"/>
		</linearGradient>
		<polygon class="st15" points="858.1,491.5 864.2,534.8 846.2,537.3 841.9,493.9 		"/>
	</g>
	<linearGradient id="SVGID_12_" gradientUnits="userSpaceOnUse" x1="552.7845" y1="459.1678" x2="552.7845" y2="459.1678">
		<stop  offset="0" style="stop-color:#0083BD"/>
		<stop  offset="0.2262" style="stop-color:#0489C4"/>
		<stop  offset="0.5551" style="stop-color:#119AD7"/>
		<stop  offset="0.9449" style="stop-color:#25B6F7"/>
		<stop  offset="1" style="stop-color:#28BBFC"/>
	</linearGradient>
	<path class="st16" d="M552.8,459.2L552.8,459.2L552.8,459.2z"/>
	<linearGradient id="SVGID_13_" gradientUnits="userSpaceOnUse" x1="552.4481" y1="458.8338" x2="552.4481" y2="458.8338">
		<stop  offset="0" style="stop-color:#0083BD"/>
		<stop  offset="0.2262" style="stop-color:#0489C4"/>
		<stop  offset="0.5551" style="stop-color:#119AD7"/>
		<stop  offset="0.9449" style="stop-color:#25B6F7"/>
		<stop  offset="1" style="stop-color:#28BBFC"/>
	</linearGradient>
	<path class="st17" d="M552.4,458.8L552.4,458.8L552.4,458.8z"/>
	<g>
		<linearGradient id="SVGID_14_" gradientUnits="userSpaceOnUse" x1="254.4745" y1="429.2684" x2="254.4745" y2="560.6658">
			<stop  offset="0" style="stop-color:#0083BD"/>
			<stop  offset="0.1894" style="stop-color:#047CB9"/>
			<stop  offset="0.4648" style="stop-color:#0F69AF"/>
			<stop  offset="0.791" style="stop-color:#20499F"/>
			<stop  offset="1" style="stop-color:#2E3192"/>
		</linearGradient>
		<path class="st18" d="M408.8,503.7v-74.4H346v74.4h-30.9v-74.4h-45.8h-17.1H173h-18.1H92.4c-12.7,0-22.9,3.9-30.4,11.6
			c-7.4,7.6-11.2,17.9-11.2,30.6v46.7c0,13.3,3.8,23.8,11.2,31.3c7.4,7.4,18,11.2,31.3,11.2h61.5h18h79.4h16.7H346h18.3H458v-57
			H408.8z M158.5,471.5H97.6v46.7h60.8v28h-65c-9.4,0-16.4-2.3-21-7c-4.6-4.6-7-11.6-7-21v-46.7c0-8.9,2.3-15.7,7-20.5
			c4.7-4.8,11.4-7.2,20-7.2h66.1V471.5z M254.8,471.5h-53.3v11.8h53.1v23.2h-53.1v11.8h52.9v28h-85V443.8h85.4V471.5z M349.8,546.2
			h-83.1V443.8h33.9v74.4h49.2V546.2z M443.5,546.2h-83.1V443.8h33.9v74.4h49.2V546.2z"/>
	</g>
</g>
</svg>
