<?xml version="1.0" encoding="utf-8"?>
<!-- Generator: Adobe Illustrator 17.0.0, SVG Export Plug-In . SVG Version: 6.00 Build 0)  -->
<!DOCTYPE svg PUBLIC "-//W3C//DTD SVG 1.1//EN" "http://www.w3.org/Graphics/SVG/1.1/DTD/svg11.dtd">
<svg version="1.1" id="Layer_1" xmlns="http://www.w3.org/2000/svg" xmlns:xlink="http://www.w3.org/1999/xlink" x="0px" y="0px"
	 width="473.738px" height="261.911px" viewBox="55.899 85.766 473.738 261.911"
	 enable-background="new 55.899 85.766 473.738 261.911" xml:space="preserve">
<polygon fill="#034EA1" points="350.9,150.021 372.368,138.094 410.534,124.735 438.204,119.012 457.286,118.057 461.58,120.919 
	485.434,204.408 485.913,235.417 479.23,277.401 475.892,280.738 449.177,290.281 422.938,296.959 415.781,296.959 411.01,296.959 
	407.194,294.573 365.211,188.664 "/>
<path fill="#FFFFFF" d="M413.199,296.855c1.347-66.302-25.692-109.94-61.253-147.298c-6.145,8.117-10.38,17.66-10.714,30.13
	c26.469,32.807,48.214,68.325,56.866,111.315C400.596,295.894,407.288,296.302,413.199,296.855"/>
<path fill="#FFFFFF" d="M346.306,162.617c-1.961,4.887-3.195,10.329-3.425,16.516c13.135,16.323,25.109,33.338,34.902,51.625
	c9.857,18.417,17.494,38.116,21.865,59.683c2.066,3.719,7.743,4.244,12.943,4.72c1.282,0.119,2.538,0.235,3.669,0.382
	c10.808-1.491,21.135-3.905,31.196-6.991c9.859-3.023,19.497-6.71,29.091-10.824c6.351-28.076,8.702-55.07,6.134-81.249
	c-2.555-26.116-10.019-51.465-23.283-76.321c-16.518-1.038-33.532,1.246-50.939,6.219c-17.699,5.06-35.797,12.894-54.192,22.856
	C351.042,153.276,348.296,157.672,346.306,162.617 M339.601,179.649c0.184-6.857,1.513-12.867,3.675-18.246
	c2.158-5.375,5.145-10.121,8.646-14.463l0.492-0.411c18.724-10.164,37.147-18.151,55.149-23.299
	c18.074-5.164,35.76-7.481,52.958-6.276l0.901,0.063l0.428,0.795c13.738,25.503,21.451,51.525,24.079,78.362
	c2.627,26.801,0.183,54.401-6.381,83.094l-0.185,0.809l-0.76,0.329c-9.91,4.272-19.896,8.113-30.187,11.268
	c-10.289,3.157-20.859,5.62-31.933,7.137h-0.435c-1.229-0.168-2.476-0.284-3.747-0.4c-6.146-0.566-12.853-1.185-15.652-6.665
	l-0.148-0.422c-4.292-21.323-11.839-40.807-21.593-59.031c-9.763-18.236-21.765-35.239-34.949-51.581L339.601,179.649z"/>
<path fill="#FFFFFF" d="M376.705,153.045c25.807-13.191,111.631-36.237,138.596-34.31c9.415,22.236,14.191,44.471,14.336,66.708
	c-15.78,13.338-94.729,34.49-115.144,37.361C411.163,197.224,398.566,173.969,376.705,153.045"/>
<path fill="#FFFFFF" d="M423.252,229.624c0.764-1.001,2.2-1.196,3.203-0.43c1.002,0.762,1.195,2.2,0.43,3.202
	c-1.891,2.467-3.631,5.027-4.523,7.718c8.628,5.524,17.341,9.433,26.19,10.434c9.216,1.04,18.682-1.075,28.506-7.825
	c1.038-0.708,2.457-0.445,3.168,0.593c0.712,1.038,0.448,2.457-0.59,3.168c-10.834,7.444-21.329,9.769-31.582,8.61
	c-8.974-1.013-17.696-4.698-26.268-9.947c0.152,1.449,0.582,2.975,1.375,4.601c0.546,1.137,0.07,2.505-1.067,3.052
	c-1.133,0.546-2.503,0.07-3.051-1.067c-1.899-3.905-2.239-7.447-1.62-10.727c0.011-0.239,0.06-0.482,0.15-0.715
	c0.074-0.322,0.158-0.64,0.25-0.955C418.87,235.745,420.971,232.599,423.252,229.624"/>
<path fill="#FFFFFF" d="M419.621,121.648l-10.079-19.992c-5.788-11.478,13.41-20.83,17.759-13.006l16.316,29.385L419.621,121.648z"
	/>
<path fill="#FFFFFF" d="M296.292,223.838v-52.826h46.387v52.826h54.232v42.218H86.927c-8.41,0-16.702-2.115-22.807-8.219
	c-6.105-6.105-8.221-14.413-8.221-22.825v-33.151c0-8.31,2.256-16.308,8.174-22.371c5.927-6.072,13.852-8.478,22.188-8.478h179.55
	v52.826L296.292,223.838L296.292,223.838z"/>
<path fill="#034EA1" d="M86.94,254.881c-6.649,0-11.628-1.655-14.922-4.946c-3.29-3.293-4.947-8.256-4.947-14.906v-33.185
	c0-6.291,1.672-11.143,4.996-14.548c3.324-3.405,8.06-5.109,14.208-5.109h46.873v19.657H89.941v33.185h43.109v19.851H86.94V254.881z
	"/>
<polygon fill="#034EA1" points="151.217,254.881 151.217,182.188 211.844,182.188 211.844,201.845 173.99,201.845 173.99,210.214 
	211.649,210.214 211.649,226.66 173.99,226.66 173.99,235.03 211.552,235.03 211.552,254.881 "/>
<polygon fill="#034EA1" points="230.611,254.881 230.611,182.188 254.648,182.188 254.648,235.03 289.583,235.03 289.583,254.881 
	"/>
<polygon fill="#034EA1" points="307.473,254.881 307.473,182.188 331.51,182.188 331.51,235.03 366.446,235.03 366.446,254.881 "/>
<path fill="#034EA1" d="M412.566,182.267v-30.708H434.8c2.206,0,3.81,0.5,4.803,1.493c0.992,1.001,1.493,2.591,1.493,4.782v8.476
	c0,2.007-0.501,3.508-1.5,4.493c-1.006,0.982-2.536,1.474-4.592,1.474h-12.861v9.989h-9.577V182.267z M422.023,165.206h9.413v-5.343
	h-9.413V165.206z"/>
<path fill="#034EA1" d="M448.21,157.898c0-1.968,0.609-3.515,1.829-4.646c1.212-1.131,2.898-1.692,5.035-1.692h15.883
	c2.137,0,3.809,0.561,5.03,1.692c1.211,1.131,1.822,2.678,1.822,4.646v24.37h-9.578v-12.373h-10.486v12.373h-9.535V157.898z
	 M457.745,163.685h10.483v-3.823h-10.483V163.685z"/>
<polygon fill="#034EA1" points="494.431,182.268 494.431,171.168 482.591,151.56 493.727,151.56 499.379,163.119 505.037,151.56 
	516.136,151.56 504.297,171.168 504.297,182.268 "/>
<g>
	<path fill="#FFFFFF" d="M253.558,293.034l-4.188,2.345l11.32,14.973h-2.978l-12.665-11.808l-3.226,3.637l12.285,8.171h-17.158
		v-0.001h-43.589v4.531h16.2v7.688v1.716c-0.046,0.733-0.205,1.329-0.48,1.785c-0.549,0.549-1.145,0.824-1.785,0.824
		c-1.51,0-2.586-0.594-3.226-1.785l-2.403-4.873l-4.667,2.949c0.229,0.093,0.967,1.259,2.213,3.499l2.421,3.91l2.56,3.842
		c5.166,7.867,8.694,12.279,10.585,13.24l4.736-4.308c-0.778,0-1.808-0.524-3.089-1.578c-1.464-1.189-3.157-3.089-5.08-5.698
		l-3.157-4.736l1.579-0.275c2.012-0.32,3.432-1.304,4.255-2.952c0.503-0.961,0.756-2.356,0.756-4.187v-0.961v-8.1h11.189v10.227
		h-10.229l3.776,4.531h6.452v17.847h5.354v-32.606h4.461v0.001h21.966v16.558l-10.774-7.775c0.824-0.546,1.784-0.82,2.882-0.82
		c1.099,0,2.254,0.275,3.466,0.824s2.299,1.304,3.26,2.265l-1.03-6.316l-2.128-0.343l-1.58-0.275h-1.167
		c-2.884,0-5.355,1.03-7.414,3.089c-2.059,2.06-3.089,4.53-3.089,7.414c0,3.157,1.168,5.765,3.501,7.825
		c2.151,1.877,4.691,2.814,7.62,2.814c2.38,0,4.531-0.709,6.453-2.127v9.472h5.354v-32.606h5.423v-4.529h-3.961L253.558,293.034z
		 M254.655,336.109c-0.823,0.309-1.808,0.464-2.951,0.464c-2.015,0-3.707-0.749-5.08-2.246c-1.372-1.497-2.059-3.284-2.059-5.359
		v-0.967l0.348-1.245l11.734,8.1C256.143,335.381,255.48,335.798,254.655,336.109z"/>
	<rect x="271.542" y="341.24" fill="#FFFFFF" width="6.521" height="6.246"/>
	<path fill="#FFFFFF" d="M344.509,293.034l-4.187,2.345l11.316,14.968h-2.982l-12.66-11.803l-3.226,3.637l12.277,8.166h-3.834v4.531
		h6.727v15.464c-1.557,1.551-2.746,2.578-3.57,3.08c-2.882,2.008-5.652,3.011-8.305,3.011c-1.236,0-2.358-0.365-3.364-1.094
		c-0.961-0.909-1.442-1.82-1.442-2.73c0-1.958,0.938-3.278,2.814-3.961c1.237-0.454,3.25-0.682,6.042-0.682l1.648,0.068h1.646
		l-2.391-4.301l-1.912-0.274h-1.299c-1.869,0-3.577,0.32-5.126,0.961c-1.321-0.691-2.335-1.59-3.041-2.696
		c-0.705-1.105-1.058-2.349-1.058-3.733c0-0.46,0.068-0.886,0.203-1.278c0.135-0.391,0.294-0.772,0.474-1.141
		c0.54-0.69,1.173-1.037,1.895-1.037c1.49,0,2.233,0.672,2.233,2.018v3.061h4.806v-3.043c0-1.889-0.721-3.399-2.163-4.529
		c-1.44-1.129-3.123-1.694-5.045-1.694c-2.426,0-4.324,0.746-5.697,2.236c-0.623,0.677-1.098,1.431-1.438,2.254v-4.487h-43.59v4.531
		h16.2v7.688v1.716c-0.046,0.733-0.206,1.329-0.481,1.785c-0.548,0.549-1.143,0.824-1.784,0.824c-1.511,0-2.586-0.594-3.226-1.785
		l-2.404-4.873l-4.667,2.949c0.23,0.093,0.968,1.259,2.214,3.499l2.421,3.91l2.56,3.842c5.165,7.867,8.693,12.279,10.584,13.24
		l4.736-4.308c-0.779,0-1.808-0.524-3.088-1.578c-1.466-1.189-3.158-3.089-5.081-5.698l-3.158-4.736l1.579-0.275
		c2.013-0.32,3.432-1.304,4.255-2.952c0.504-0.961,0.756-2.356,0.756-4.187v-0.961v-8.1h11.189v10.227h-10.228l3.775,4.531h6.453
		v17.847h5.354v-32.606h5.613c-0.398,0.979-0.604,2.057-0.604,3.242c0,0.596,0.046,1.089,0.137,1.48
		c0.092,0.39,0.251,0.871,0.48,1.445c0.229,0.573,0.447,1.031,0.652,1.375c0.207,0.344,0.492,0.745,0.859,1.205
		c0.916,1.192,2.036,2.269,3.364,3.233c-0.823,0.643-1.488,1.4-1.99,2.271c-0.642,1.1-0.961,2.316-0.961,3.646
		c0,2.431,0.982,4.404,2.951,5.918c1.968,1.513,4.21,2.269,6.727,2.269c0.825,0,1.534-0.046,2.129-0.137
		c0.593-0.091,1.279-0.251,2.059-0.48c0.778-0.228,1.441-0.457,1.99-0.686c0.551-0.229,1.144-0.504,1.785-0.824
		c1.83-1.053,3.339-2.172,4.53-3.363v12.009h5.354v-32.606h6.659v-4.531h-4.443L344.509,293.034z"/>
	<rect x="354.186" y="299.917" fill="#FFFFFF" width="5.767" height="5.491"/>
</g>
</svg>

