<svg width="200" height="64" viewBox="0 0 200 64" fill="none" xmlns="http://www.w3.org/2000/svg">
<g clip-path="url(#clip0)">
<path d="M164.266 15.5261L154.467 32.0318V40.9328H143.689V30.9372L137.522 21.8921V40.5007H112.652V33.0112L100.116 33.5585V40.9328H5.79311L1.41271 37.0728V21.921L6.13893 15.5261H55.7643V31.8014H65.5626V15.5261H75.7931V31.6861H89.9718V15.5261H110.346L113.315 18.1762L116.831 15.5261H146.139L148.848 21.1432L152.594 15.5261H164.266Z" fill="white"/>
<path d="M189.481 27.7687C188.991 28.0567 188.357 27.9127 188.069 27.423L186.167 24.312C184.957 25.493 184.15 26.8181 184.899 27.8551C186.686 30.39 193.746 26.0115 193.746 26.0115L193.314 25.4354L189.481 27.7687Z" fill="#BC8879"/>
<path d="M105.216 23.16H98.4147V27.02H105.216V23.16Z" fill="url(#paint0_linear)"/>
<path d="M128.703 23.16H121.123V25.9253H128.703V23.16Z" fill="url(#paint1_linear)"/>
<path d="M151.21 13.9999L149.078 18.3496L146.945 13.9999H131.325V14.0287C131.095 14.0287 130.893 13.9999 130.663 13.9999H119.164C116.801 13.9999 114.87 14.6912 113.4 16.0451C113.372 16.0163 113.372 16.0163 113.343 15.9875C112.017 14.6624 110.086 13.9711 107.637 13.9711H88.3859V42.4888H101.614V35.2586H107.781C108.991 35.2586 110.086 35.0857 111.037 34.7113V42.4888H124.236H125.533H138.789V26.3576L142.334 32.234V42.5464H155.763V32.234L166.772 14.0287H151.21V13.9999ZM112.248 27.8267C112.248 29.267 111.873 30.3616 111.152 31.0817C110.432 31.8019 109.308 32.1475 107.838 32.1475H98.53V39.3778H91.5848V17.1685H107.694C109.279 17.1685 110.461 17.543 111.181 18.2631C111.902 18.9833 112.276 20.1355 112.276 21.7198V27.8267H112.248ZM135.648 39.3778H128.703V30.4192H121.124V39.3778H114.207V21.7486C114.207 20.3372 114.64 19.2137 115.533 18.3784C116.426 17.5718 117.637 17.1397 119.193 17.1397H130.691C132.248 17.1397 133.458 17.543 134.351 18.3784C135.245 19.1849 135.677 20.3083 135.677 21.7486V39.3778H135.648ZM152.651 31.341V39.3778H145.504V31.341L136.945 17.1397H145.014L149.106 25.4934L153.199 17.1397H161.239L152.651 31.341Z" fill="url(#paint2_linear)"/>
<path d="M196.196 23.7071L189.482 27.7975C189.049 28.0568 188.502 27.9704 188.185 27.6247C187.695 27.7687 187.205 27.884 186.686 27.884C184.813 27.9416 183.372 24.1392 183.372 24.1392C181.24 22.5837 177.205 29.3819 177.205 29.3819L172.047 29.4971L172.767 36.0936C172.767 36.0936 173.113 36.2376 180.548 34.6533C182.306 33.9044 190.404 33.0978 192.018 31.3407C192.969 28.3449 197.781 25.8388 196.283 23.7647C196.254 23.7359 196.225 23.7071 196.196 23.7071Z" fill="#F9B5A4"/>
<path d="M116.829 54.3855H115.129V63.9202H113.659V59.5417H111.498V58.7927C111.008 59.9162 110.086 60.6651 108.76 60.982L112.219 63.9202H109.942L104.639 59.3689L105.619 58.303C106.282 58.8792 106.628 59.196 106.685 59.2248C107.118 59.5129 107.521 59.6569 107.953 59.6569C108.703 59.6569 109.279 59.4265 109.74 58.9368C110.172 58.4471 110.403 57.8422 110.403 57.0932C110.403 55.8546 109.913 54.9616 108.904 54.3855H103.948V53.3773H116.887V54.3855H116.829ZM113.659 54.3855H110.806C111.469 55.048 111.815 55.941 111.815 57.0932C111.815 57.4965 111.757 57.8998 111.671 58.2742H113.659V54.3855Z" fill="#034EA2"/>
<path d="M126.973 54.3567H125.273V63.9202H123.803V62.019C123.112 62.6239 122.276 62.912 121.354 62.912C120.345 62.912 119.452 62.5663 118.731 61.8462C117.982 61.126 117.607 60.2906 117.607 59.2536C117.607 58.2454 117.982 57.3525 118.703 56.5747C119.452 55.7969 120.316 55.4225 121.325 55.4225C122.017 55.4225 122.708 55.6529 123.371 56.085V58.159C122.939 57.3237 122.276 56.9204 121.383 56.9204C121.181 56.9204 121.008 56.9492 120.778 56.978L123.342 60.3195C123.631 59.8874 123.775 59.5705 123.775 59.4265V54.3567H116.801V53.3773H126.973V54.3567ZM122.334 61.27L119.567 57.7557C119.25 58.1878 119.077 58.6487 119.077 59.196C119.077 59.8298 119.308 60.3771 119.74 60.838C120.172 61.2989 120.691 61.5293 121.296 61.5293C121.642 61.5293 121.988 61.4429 122.334 61.27Z" fill="#034EA2"/>
<path d="M122.708 53.4926C122.132 53.1758 121.584 52.6861 121.094 52.0235C120.518 51.2458 120.114 50.7561 119.855 50.5544C119.25 50.0935 118.385 49.8055 117.29 49.6902L118.357 48.7397C119.423 48.8837 120.259 49.2582 120.893 49.8631C121.065 50.0359 121.671 50.6985 122.766 51.8795C122.564 50.9577 122.305 50.2376 121.959 49.7191C121.584 49.1429 121.008 48.6244 120.23 48.1635L121.584 47.7603C122.333 48.1923 122.881 48.7685 123.285 49.5462C123.486 49.9495 123.717 50.612 123.947 51.5338C124.149 52.3116 124.351 52.8301 124.581 53.0605C124.12 53.0893 123.515 53.2334 122.708 53.4926Z" fill="#034EA2"/>
<path d="M129.135 62.7971C129.135 63.4884 128.76 63.8629 128.011 63.8629C127.694 63.8629 127.406 63.7477 127.204 63.5461C126.973 63.3444 126.887 63.0852 126.887 62.7683C126.887 62.4514 127.002 62.1922 127.204 61.9905C127.406 61.7889 127.694 61.6737 128.011 61.6737C128.357 61.6737 128.616 61.7889 128.847 61.9905C129.048 62.1922 129.135 62.4514 129.135 62.7971Z" fill="#034EA2"/>
<path d="M144.956 54.3855H143.227V63.9202H141.757V59.5417H139.596V58.7927C139.106 59.9162 138.184 60.6651 136.858 60.982L140.316 63.9202H138.04L132.737 59.3689L133.717 58.303C134.38 58.8792 134.726 59.196 134.783 59.2248C135.216 59.5129 135.619 59.6569 136.051 59.6569C136.801 59.6569 137.377 59.4265 137.838 58.9368C138.27 58.4471 138.501 57.8422 138.501 57.0932C138.501 55.8546 138.011 54.9616 137.002 54.3855H131.988V53.3773H144.927V54.3855H144.956ZM141.757 54.3855H138.904C139.567 55.048 139.913 55.941 139.913 57.0932C139.913 57.4965 139.855 57.8998 139.769 58.2742H141.757V54.3855Z" fill="#034EA2"/>
<path d="M155.85 54.3859H154.12V63.9206H152.593V62.3939C151.815 63.0276 150.806 63.3445 149.51 63.3445C148.414 63.3445 147.521 63.0276 146.772 62.3651C145.994 61.7025 145.59 60.8096 145.59 59.7437C145.59 58.7643 145.965 57.929 146.685 57.2376C146.311 56.7767 146.138 56.2294 146.138 55.6533C146.138 55.1924 146.253 54.7603 146.484 54.3571H144.899V53.3489H146.685V54.069C147.204 53.4065 147.867 53.0896 148.674 53.0896C149.279 53.0896 149.798 53.2912 150.288 53.6657C150.749 54.0402 151.066 54.5299 151.181 55.1348H149.74C149.51 54.7027 149.164 54.4723 148.76 54.4723C148.443 54.4723 148.155 54.5875 147.896 54.8468C147.636 55.106 147.521 55.3941 147.521 55.7109C147.521 55.999 147.636 56.2582 147.838 56.4887C148.27 56.3159 148.731 56.2294 149.193 56.2294C149.625 56.2294 150.028 56.3158 150.432 56.4599V58.1018C150.028 57.8138 149.625 57.6697 149.193 57.6697C148.616 57.6697 148.126 57.9002 147.694 58.3323C147.262 58.7931 147.06 59.2828 147.06 59.859C147.06 60.5215 147.319 61.0688 147.809 61.4433C148.299 61.8178 148.904 62.0194 149.596 62.0194C151.123 62.0194 152.132 61.3857 152.68 60.1182V54.3859H151.584V53.3777H155.85V54.3859Z" fill="#034EA2"/>
<path d="M151.556 53.4926C150.98 53.1758 150.432 52.6861 149.942 52.0235C149.366 51.2458 148.962 50.7561 148.703 50.5544C148.098 50.0935 147.233 49.8055 146.138 49.6902L147.204 48.7397C148.271 48.8837 149.106 49.2582 149.74 49.8631C149.913 50.0359 150.519 50.6985 151.614 51.8795C151.412 50.9577 151.153 50.2376 150.807 49.7191C150.432 49.1429 149.856 48.6244 149.078 48.1635L150.432 47.7603C151.181 48.1923 151.729 48.7685 152.132 49.5462C152.334 49.9495 152.565 50.612 152.795 51.5338C152.997 52.3116 153.199 52.8301 153.429 53.0605C152.968 53.0893 152.363 53.2334 151.556 53.4926Z" fill="#034EA2"/>
<path d="M155.591 51.3324C155.591 51.6493 155.475 51.9085 155.274 52.1102C155.072 52.3118 154.813 52.427 154.496 52.427C153.746 52.427 153.343 52.0526 153.343 51.3036C153.343 50.9867 153.458 50.7275 153.66 50.497C153.862 50.2954 154.121 50.1802 154.438 50.1802C154.784 50.1802 155.043 50.2954 155.274 50.497C155.475 50.7275 155.591 50.9867 155.591 51.3324Z" fill="#034EA2"/>
<path d="M176.427 55.6528C174.986 56.4018 174.381 54.0109 174.381 54.0109L174.237 53.2908C174.237 53.1755 174.208 53.0891 174.208 52.9739C174.035 51.3608 173.891 49.7476 173.747 48.1345C173.603 46.723 173.459 45.3403 173.315 43.9289C173.17 42.5174 173.055 41.0771 172.911 39.6656C172.738 37.9661 172.594 36.2665 172.421 34.567C172.277 33.2419 172.133 31.9168 172.018 30.5918C171.874 29.1227 171.73 27.6824 171.585 26.2133C171.413 24.4273 171.211 22.6702 171.038 20.8842C170.865 19.2135 170.721 17.5427 170.548 15.9008C170.375 14.1148 170.173 12.3577 170 10.5717C169.828 8.9298 169.741 8.18085 169.568 6.53892C169.539 6.36608 169.539 6.33728 169.597 6.07803L169.683 5.84758C170.346 4.40729 171.643 4.4649 172.681 4.26326C174.15 4.00401 175.649 3.85998 177.147 3.68714C179.049 3.4855 180.951 3.31267 182.853 3.11103C184.15 2.93819 184.9 3.16864 185.188 3.42789C185.159 3.13983 185.101 2.50611 185.072 2.21805C184.928 0.950592 184.294 0 182.882 0C182.248 0 181.614 0.0576116 180.98 0.0864174C179.77 0.144029 178.56 0.230446 177.349 0.316864C176.052 0.403281 174.755 0.54731 173.459 0.662534C172.191 0.777757 170.923 0.950592 169.626 1.03701C168.07 1.15223 166.917 2.85178 166.974 4.23445C167.032 5.38669 167.176 6.53892 167.292 7.66235C167.493 9.39069 167.695 11.119 167.868 12.8762C168.07 14.8926 168.243 16.909 168.473 18.9254C168.675 20.913 168.934 22.8718 169.136 24.8594C169.338 26.9622 169.511 29.0939 169.683 31.1967C169.914 33.7892 170.202 36.3817 170.462 38.9455C170.75 41.8837 171.009 44.8218 171.268 47.7888C171.47 49.8917 171.643 51.9657 171.816 54.0685C171.989 56.0273 173.401 57.3236 175.13 57.41C175.418 57.41 175.764 57.4676 176.023 57.3524C176.917 57.0067 177.81 56.6322 178.646 56.1713C181.643 54.5006 184.64 52.8299 187.58 51.1303C187.781 51.0151 187.954 50.8999 188.098 50.7846C185.649 52.2249 176.427 55.6528 176.427 55.6528ZM180.98 1.41148C181.124 1.41148 181.24 1.55551 181.24 1.75715C181.24 1.9588 181.153 2.13163 181.009 2.13163C180.865 2.13163 180.75 1.9876 180.75 1.78596C180.721 1.58432 180.836 1.41148 180.98 1.41148ZM178.905 1.9876L178.934 2.13163L175.591 2.53491L175.562 2.39088L178.905 1.9876Z" fill="url(#paint3_linear)"/>
<path d="M182.219 18.4648C186.974 16.0451 190.231 12.2715 192.68 7.66258C192.709 7.60496 192.738 7.54735 192.767 7.48974C192.767 7.48974 192.795 7.46093 192.824 7.43213C192.997 7.48974 193.199 7.54735 193.372 7.63377C195.504 8.58436 197.464 9.82301 199.078 11.5226C200.317 12.8188 200.202 12.646 199.366 14.1151C198.415 15.757 197.061 17.0821 195.648 18.3495C193.66 20.1355 191.527 21.7774 189.107 22.9585C187.435 23.765 187.81 23.7938 186.311 22.728C184.784 21.6334 183.516 20.2795 182.421 18.7528C182.334 18.6952 182.277 18.5512 182.219 18.4648ZM183.66 18.8392C184.553 19.9627 185.533 20.9997 186.657 21.835C187.896 22.7568 187.493 22.728 188.847 22.0367C191.556 20.6252 193.891 18.724 196.052 16.5924C197.003 15.6418 197.896 14.6336 198.588 13.4814C198.934 12.8764 198.934 12.8764 198.473 12.3579C197.349 11.1769 196.023 10.2263 194.611 9.39092C194.179 9.13167 193.718 8.93003 193.285 8.67078C190.893 12.8476 187.896 16.3907 183.66 18.8392Z" fill="url(#paint4_linear)"/>
<path d="M191.441 8.3251V8.35391C191.095 9.10286 191.095 9.10286 190.317 8.84361C190 8.72838 189.683 8.64197 189.366 8.52674C189.136 8.44033 189.02 8.49794 188.934 8.75719C188.156 11.0328 187.032 13.1645 185.706 15.1521C185.303 15.757 184.669 16.1315 184.092 16.5348C183.746 16.794 183.372 16.9957 183.055 17.1685C183.919 15.9586 184.842 14.72 185.648 13.4237C186.801 11.609 187.695 9.70778 188.3 7.63376C188.357 7.43212 188.415 7.3169 188.646 7.37451C189.597 7.63376 190.519 7.92182 191.47 8.18107C191.441 8.23868 191.441 8.26749 191.441 8.3251Z" fill="url(#paint5_linear)"/>
<path d="M186.369 23.8224C186.109 24.1104 185.821 24.0816 185.533 23.9376C184.034 23.3327 182.709 22.4685 181.469 21.4603C180.864 20.9706 180.317 20.4233 179.711 19.9048C180.317 19.4727 180.835 19.0982 181.412 18.6661C181.585 18.8966 181.729 19.1558 181.931 19.4151C181.7 19.6167 181.498 19.7896 181.268 19.9912C182.766 21.6043 184.812 22.3821 186.369 23.8224Z" fill="url(#paint6_linear)"/>
<path d="M179.51 22.2098C179.741 22.0081 179.942 21.8065 180.144 21.6337C180.202 21.6049 180.317 21.6049 180.375 21.6337C181.355 22.3538 182.306 23.074 183.257 23.7941C182.911 23.9093 180.461 22.9011 179.51 22.2098Z" fill="url(#paint7_linear)"/>
<path d="M185.85 21.806L193.977 16.8514C194.467 16.5634 195.101 16.7074 195.389 17.1971L197.983 21.4315C198.271 21.9212 198.127 22.555 197.637 22.843L189.51 27.7976C189.02 28.0857 188.386 27.9417 188.098 27.452L185.504 23.2175C185.216 22.7278 185.36 22.0941 185.85 21.806Z" fill="url(#paint8_linear)"/>
<path d="M189.884 21.3166C189.856 21.3166 189.913 21.2878 189.884 21.2302C189.856 21.1726 189.856 21.1438 189.798 21.1726C189.74 21.2014 189.712 21.2302 189.74 21.259C189.769 21.2878 189.798 21.2302 189.798 21.3454C189.769 21.4318 189.798 21.4318 189.798 21.4894C189.827 21.5471 189.798 21.5759 189.827 21.6047C189.856 21.6335 189.913 21.7199 189.913 21.6623C189.913 21.5759 189.856 21.5471 189.913 21.5183C189.971 21.4894 190 21.4318 189.971 21.403C189.884 21.3166 189.913 21.3166 189.884 21.3166Z" fill="#FAB078"/>
<path d="M188.934 22.7857C188.963 22.7281 188.963 22.7569 188.848 22.7569C188.733 22.7569 188.79 22.7569 188.733 22.7281C188.675 22.6993 188.704 22.6993 188.646 22.6705C188.588 22.6417 188.56 22.6417 188.531 22.6417C188.502 22.6417 188.444 22.6417 188.473 22.6993C188.502 22.7569 188.531 22.7281 188.56 22.7569C188.588 22.7857 188.588 22.7569 188.646 22.7857C188.704 22.8145 188.675 22.8433 188.733 22.8145C188.79 22.8145 188.848 22.8145 188.848 22.8145C188.905 22.8145 188.934 22.7857 188.934 22.7857Z" fill="#FAB078"/>
<path d="M188.443 22.6415C188.443 22.6415 188.443 22.6703 188.415 22.6703C188.386 22.6703 188.415 22.6703 188.386 22.6703C188.357 22.6991 188.328 22.6991 188.328 22.6991C188.328 22.7279 188.357 22.6991 188.299 22.6991C188.242 22.6991 188.242 22.7279 188.242 22.7279C188.213 22.7279 188.155 22.6991 188.213 22.6991C188.271 22.6991 188.271 22.6991 188.299 22.6703C188.328 22.6415 188.328 22.6415 188.357 22.6415C188.415 22.6127 188.443 22.6127 188.443 22.6415C188.472 22.6127 188.443 22.6415 188.443 22.6415Z" fill="#FAB078"/>
<path d="M188.272 22.8722C188.243 22.8722 188.243 22.9011 188.272 22.9587C188.272 22.9875 188.3 22.9875 188.272 23.0163C188.243 23.0451 188.272 23.0163 188.3 23.0451C188.329 23.0739 188.358 23.0739 188.329 23.1027C188.3 23.1315 188.3 23.1315 188.329 23.1603C188.358 23.1603 188.387 23.2179 188.387 23.1603C188.387 23.1027 188.387 23.0739 188.387 23.0451C188.416 23.0163 188.416 23.0451 188.416 22.9875C188.416 22.9299 188.387 22.9299 188.416 22.9299C188.445 22.9011 188.531 22.9587 188.473 22.9011C188.387 22.8434 188.502 22.9011 188.473 22.8722C188.445 22.8434 188.445 22.8722 188.416 22.8434C188.387 22.8146 188.387 22.8146 188.358 22.8146C188.329 22.8434 188.329 22.8434 188.3 22.8434C188.272 22.8434 188.3 22.8722 188.272 22.8722Z" fill="#FAB078"/>
<path d="M187.896 23.189C187.954 23.2466 187.868 23.2178 187.81 23.189C187.752 23.1602 187.752 23.1314 187.752 23.1602C187.723 23.2178 187.752 23.2466 187.695 23.2466C187.637 23.2466 187.637 23.2466 187.608 23.2466C187.579 23.2466 187.579 23.2754 187.551 23.2754C187.522 23.2466 187.522 23.2754 187.493 23.2754C187.464 23.2754 187.464 23.2754 187.435 23.2466C187.406 23.2466 187.406 23.2178 187.378 23.2178C187.32 23.2178 187.291 23.2466 187.32 23.2178C187.32 23.189 187.32 23.189 187.378 23.189C187.435 23.189 187.493 23.2178 187.493 23.189C187.522 23.189 187.493 23.1602 187.522 23.1314C187.551 23.1026 187.579 23.0738 187.608 23.1026C187.637 23.1314 187.666 23.045 187.666 23.0738C187.666 23.1026 187.637 23.1314 187.695 23.1314C187.752 23.1314 187.752 23.1602 187.781 23.1314C187.81 23.1026 187.839 23.1026 187.868 23.1314C187.839 23.1602 187.868 23.189 187.896 23.189C187.896 23.1602 187.868 23.189 187.896 23.189Z" fill="#FAB078"/>
<path d="M188.502 23.5347C188.531 23.5347 188.531 23.477 188.502 23.4482C188.445 23.4194 188.502 23.3618 188.445 23.3618C188.358 23.3618 188.358 23.3906 188.387 23.4194C188.416 23.4482 188.445 23.3906 188.445 23.4482C188.445 23.5058 188.445 23.5058 188.473 23.5347C188.502 23.5635 188.531 23.5923 188.531 23.5635C188.502 23.5347 188.502 23.5347 188.502 23.5347Z" fill="#FAB078"/>
<path d="M188.185 22.9875C188.156 22.9875 188.213 22.9875 188.185 22.9299C188.156 22.9011 188.156 22.8723 188.127 22.8723C188.098 22.8723 188.098 22.9011 188.127 22.9011C188.156 22.9299 188.185 22.9587 188.156 22.9587C188.127 22.9587 188.156 22.9587 188.127 22.9299C188.098 22.9011 188.041 22.9011 188.069 22.9299C188.098 22.9587 188.098 22.9587 188.127 22.9875C188.156 23.0163 188.185 23.0451 188.156 23.0451C188.127 23.0451 188.156 23.074 188.156 23.074C188.185 23.074 188.156 23.0451 188.185 23.0451C188.213 23.0451 188.185 23.0163 188.213 23.0163C188.242 23.0163 188.3 23.0163 188.242 23.0451C188.185 23.074 188.127 23.1028 188.156 23.1028C188.185 23.1028 188.213 23.1316 188.213 23.1028C188.185 23.074 188.213 23.0451 188.213 23.0451C188.213 23.0451 188.271 23.0451 188.242 23.0163C188.213 22.9875 188.213 22.9875 188.185 22.9875Z" fill="#FAB078"/>
<path d="M188.271 23.3329C188.3 23.3329 188.329 23.2465 188.3 23.2465C188.242 23.2465 188.271 23.3041 188.242 23.2753C188.213 23.2753 188.3 23.2465 188.213 23.2465C188.156 23.2465 188.127 23.2465 188.156 23.2753C188.185 23.3041 188.185 23.3329 188.156 23.3329C188.127 23.3329 188.098 23.3329 188.127 23.3329C188.156 23.3617 188.156 23.3617 188.185 23.3617C188.213 23.3905 188.185 23.3905 188.213 23.3617C188.242 23.3329 188.242 23.3329 188.271 23.3329Z" fill="#FAB078"/>
<path d="M195.52 17.3254L185.606 23.3724L186.207 24.356L196.12 18.309L195.52 17.3254Z" fill="white"/>
<path d="M194.784 21.6046L196.052 20.8268C196.196 20.7404 196.397 20.798 196.513 20.9709L196.916 21.6334C197.031 21.8062 197.003 22.0367 196.83 22.1231L195.562 22.9009C195.418 22.9873 195.216 22.9297 195.101 22.7568L194.697 22.0943C194.611 21.9215 194.639 21.7198 194.784 21.6046Z" fill="white"/>
<path d="M195.042 22.6127L195.1 22.6703L195.561 22.3823C195.619 22.4687 195.734 22.4975 195.82 22.4687L195.964 22.6991L196.022 22.6415L195.878 22.4687L196.368 22.1806L196.483 22.3823L196.541 22.3246L196.397 22.0942C196.483 22.0078 196.483 21.9214 196.426 21.8061L196.829 21.5469V21.4893L196.426 21.7485L196.224 21.4317L196.627 21.1724L196.57 21.1148L196.166 21.3741C196.109 21.2876 195.993 21.2588 195.907 21.2876L195.763 21.0284L195.705 21.086L195.849 21.3164L195.359 21.6045L195.215 21.3741L195.158 21.4317L195.302 21.6621C195.215 21.7485 195.215 21.8637 195.273 21.9502L194.812 22.2382L194.869 22.2958L195.33 22.0078L195.532 22.3246L195.042 22.6127ZM195.33 21.8926C195.302 21.8349 195.302 21.7485 195.388 21.6909L195.936 21.3452C195.964 21.3164 196.051 21.3452 196.109 21.4029L196.397 21.8637C196.426 21.9214 196.426 22.0078 196.339 22.0654L195.792 22.4111C195.734 22.4399 195.647 22.4399 195.59 22.3534L195.33 21.8926Z" fill="url(#paint9_linear)"/>
<path d="M195.71 19.622L193.89 20.7323L194.055 21.0028L195.875 19.8924L195.71 19.622Z" fill="white"/>
<path d="M195.389 19.1392L192.806 20.7148L192.972 20.9852L195.555 19.4097L195.389 19.1392Z" fill="white"/>
<path d="M192.441 20.9453L188.702 23.2261L188.867 23.4965L192.606 21.2158L192.441 20.9453Z" fill="white"/>
<path d="M189.287 23.5434L187.466 24.6537L187.631 24.9242L189.452 23.8139L189.287 23.5434Z" fill="white"/>
<path d="M191.421 22.2465L189.601 23.3569L189.766 23.6274L191.586 22.517L191.421 22.2465Z" fill="white"/>
<path d="M190.554 25.4408L188.734 26.5511L188.899 26.8216L190.72 25.7113L190.554 25.4408Z" fill="white"/>
<path d="M192.689 24.1446L190.869 25.255L191.034 25.5255L192.854 24.4151L192.689 24.1446Z" fill="white"/>
<path d="M193.555 20.9484L191.734 22.0587L191.899 22.3292L193.72 21.2188L193.555 20.9484Z" fill="white"/>
<path d="M183.516 29.6128C185.303 28.3453 184.611 26.5306 186.513 25.1767C188.415 23.8228 189.943 23.1603 189.943 23.1603C190.779 22.5554 191.009 21.4608 190.462 20.683L190.433 20.6542C189.885 19.8764 188.761 19.7324 187.897 20.3373C187.897 20.3373 186.081 21.7776 184.727 22.7282C183.372 23.7076 181.701 24.2837 180.116 25.4072C178.617 26.5306 181.73 30.8803 183.516 29.6128Z" fill="#F9B5A4"/>
<path d="M187.349 21.259L188.646 20.3948C188.646 20.3948 189.626 20.1644 190.058 20.7981C190.491 21.4318 190.145 22.0079 190.145 22.0079L188.733 22.8721L187.349 21.259Z" fill="white"/>
<path d="M175.273 27.5097L176.599 36.9004L172.68 37.4477L171.729 28.0282L175.273 27.5097Z" fill="url(#paint10_linear)"/>
<path d="M77.7233 30.16V13.9999H64.0634V30.16H57.3487V13.9999H47.4063H43.6888H26.513H22.5937H9.02017C6.28242 13.9999 4.0634 14.8353 2.42075 16.506C0.806916 18.1768 0 20.3948 0 23.1602V33.2998C0 36.1804 0.806916 38.4848 2.42075 40.098C4.03458 41.7111 6.31124 42.5177 9.2219 42.5177H22.5937H26.4841H43.7176H47.3487H64.0922H68.0692H88.415V30.16H77.7233ZM23.3718 23.1602H10.1441V33.2998H23.3429V39.3778H9.2219C7.17579 39.3778 5.67723 38.8881 4.66859 37.8799C3.65994 36.8717 3.17003 35.345 3.17003 33.3286V23.1602C3.17003 21.2302 3.68876 19.7611 4.69741 18.6953C5.70605 17.6582 7.17579 17.1397 9.04899 17.1397H23.4006V23.1602H23.3718ZM44.2651 23.1602H32.6801V25.7239H44.2075V30.7361H32.6801V33.2998H44.1787V39.3778H25.7349V17.1685H44.2651V23.1602ZM64.8991 39.3778H46.8588V17.1685H54.2075V33.3286H64.8991V39.3778ZM85.245 39.3778H67.2046V17.1685H74.5533V33.3286H85.245V39.3778Z" fill="url(#paint11_linear)"/>
</g>
<defs>
<linearGradient id="paint0_linear" x1="101.825" y1="27.0341" x2="101.825" y2="23.1706" gradientUnits="userSpaceOnUse">
<stop stop-color="#0C83BD"/>
<stop offset="0.1981" stop-color="#1688C1"/>
<stop offset="0.4861" stop-color="#2994CB"/>
<stop offset="0.8274" stop-color="#3FAADC"/>
<stop offset="1" stop-color="#4BB8E9"/>
</linearGradient>
<linearGradient id="paint1_linear" x1="124.922" y1="25.9302" x2="124.922" y2="23.1706" gradientUnits="userSpaceOnUse">
<stop stop-color="#0C83BD"/>
<stop offset="0.1981" stop-color="#1688C1"/>
<stop offset="0.4861" stop-color="#2994CB"/>
<stop offset="0.8274" stop-color="#3FAADC"/>
<stop offset="1" stop-color="#4BB8E9"/>
</linearGradient>
<linearGradient id="paint2_linear" x1="127.607" y1="42.5274" x2="127.607" y2="14.0105" gradientUnits="userSpaceOnUse">
<stop stop-color="#0C83BD"/>
<stop offset="0.1981" stop-color="#1688C1"/>
<stop offset="0.4861" stop-color="#2994CB"/>
<stop offset="0.8274" stop-color="#3FAADC"/>
<stop offset="1" stop-color="#4BB8E9"/>
</linearGradient>
<linearGradient id="paint3_linear" x1="167.003" y1="28.6972" x2="188.143" y2="28.6972" gradientUnits="userSpaceOnUse">
<stop stop-color="#0C83BD"/>
<stop offset="0.1287" stop-color="#1180BB"/>
<stop offset="0.3159" stop-color="#1976B4"/>
<stop offset="0.5388" stop-color="#2166AA"/>
<stop offset="0.787" stop-color="#294F9C"/>
<stop offset="1" stop-color="#2E3690"/>
</linearGradient>
<linearGradient id="paint4_linear" x1="182.124" y1="15.7055" x2="200.005" y2="15.3709" gradientUnits="userSpaceOnUse">
<stop stop-color="#0C83BD"/>
<stop offset="0.1287" stop-color="#1180BB"/>
<stop offset="0.3159" stop-color="#1976B4"/>
<stop offset="0.5388" stop-color="#2166AA"/>
<stop offset="0.787" stop-color="#294F9C"/>
<stop offset="1" stop-color="#2E3690"/>
</linearGradient>
<linearGradient id="paint5_linear" x1="182.929" y1="12.3317" x2="191.495" y2="12.1714" gradientUnits="userSpaceOnUse">
<stop stop-color="#0C83BD"/>
<stop offset="0.1287" stop-color="#1180BB"/>
<stop offset="0.3159" stop-color="#1976B4"/>
<stop offset="0.5388" stop-color="#2166AA"/>
<stop offset="0.787" stop-color="#294F9C"/>
<stop offset="1" stop-color="#2E3690"/>
</linearGradient>
<linearGradient id="paint6_linear" x1="179.712" y1="21.4694" x2="186.299" y2="21.3461" gradientUnits="userSpaceOnUse">
<stop stop-color="#0C83BD"/>
<stop offset="0.1287" stop-color="#1180BB"/>
<stop offset="0.3159" stop-color="#1976B4"/>
<stop offset="0.5388" stop-color="#2166AA"/>
<stop offset="0.787" stop-color="#294F9C"/>
<stop offset="1" stop-color="#2E3690"/>
</linearGradient>
<linearGradient id="paint7_linear" x1="179.483" y1="22.7687" x2="183.199" y2="22.6991" gradientUnits="userSpaceOnUse">
<stop stop-color="#0C83BD"/>
<stop offset="0.1287" stop-color="#1180BB"/>
<stop offset="0.3159" stop-color="#1976B4"/>
<stop offset="0.5388" stop-color="#2166AA"/>
<stop offset="0.787" stop-color="#294F9C"/>
<stop offset="1" stop-color="#2E3690"/>
</linearGradient>
<linearGradient id="paint8_linear" x1="187.203" y1="26.4066" x2="196.383" y2="18.1551" gradientUnits="userSpaceOnUse">
<stop stop-color="#0C83BD"/>
<stop offset="0.1287" stop-color="#1180BB"/>
<stop offset="0.3159" stop-color="#1976B4"/>
<stop offset="0.5388" stop-color="#2166AA"/>
<stop offset="0.787" stop-color="#294F9C"/>
<stop offset="1" stop-color="#2E3690"/>
</linearGradient>
<linearGradient id="paint9_linear" x1="195.068" y1="22.5893" x2="196.695" y2="21.1274" gradientUnits="userSpaceOnUse">
<stop stop-color="#0C83BD"/>
<stop offset="0.1287" stop-color="#1180BB"/>
<stop offset="0.3159" stop-color="#1976B4"/>
<stop offset="0.5388" stop-color="#2166AA"/>
<stop offset="0.787" stop-color="#294F9C"/>
<stop offset="1" stop-color="#2E3690"/>
</linearGradient>
<linearGradient id="paint10_linear" x1="174.163" y1="37.4552" x2="174.163" y2="27.5209" gradientUnits="userSpaceOnUse">
<stop stop-color="#0C83BD"/>
<stop offset="0.1981" stop-color="#1688C1"/>
<stop offset="0.4861" stop-color="#2994CB"/>
<stop offset="0.8274" stop-color="#3FAADC"/>
<stop offset="1" stop-color="#4BB8E9"/>
</linearGradient>
<linearGradient id="paint11_linear" x1="44.1991" y1="14.0106" x2="44.1991" y2="42.5275" gradientUnits="userSpaceOnUse">
<stop stop-color="#0C83BD"/>
<stop offset="0.1287" stop-color="#1180BB"/>
<stop offset="0.3159" stop-color="#1976B4"/>
<stop offset="0.5388" stop-color="#2166AA"/>
<stop offset="0.787" stop-color="#294F9C"/>
<stop offset="1" stop-color="#2E3690"/>
</linearGradient>
<clipPath id="clip0">
<rect width="200" height="63.9201" fill="white"/>
</clipPath>
</defs>
</svg>
