<?xml version="1.0" encoding="UTF-8" standalone="no"?>
<svg
   xmlns:dc="http://purl.org/dc/elements/1.1/"
   xmlns:cc="http://creativecommons.org/ns#"
   xmlns:rdf="http://www.w3.org/1999/02/22-rdf-syntax-ns#"
   xmlns:svg="http://www.w3.org/2000/svg"
   xmlns="http://www.w3.org/2000/svg"
   xmlns:sodipodi="http://sodipodi.sourceforge.net/DTD/sodipodi-0.dtd"
   xmlns:inkscape="http://www.inkscape.org/namespaces/inkscape"
   inkscape:version="1.0 (6e3e5246a0, 2020-05-07)"
   inkscape:export-ydpi="96"
   inkscape:export-xdpi="96"
   inkscape:export-filename="/home/sujan/Development/CellPayWebApp-master/build/img/covid-19.png"
   sodipodi:docname="covid-19.svg"
   id="svg126"
   version="1.1"
   height="36pt"
   width="36pt"
   viewBox="0 0 36 36"
   style="isolation:isolate">
  <metadata
     id="metadata130">
    <rdf:RDF>
      <cc:Work
         rdf:about="">
        <dc:format>image/svg+xml</dc:format>
        <dc:type
           rdf:resource="http://purl.org/dc/dcmitype/StillImage" />
      </cc:Work>
    </rdf:RDF>
  </metadata>
  <sodipodi:namedview
     inkscape:current-layer="g124"
     inkscape:window-maximized="1"
     inkscape:window-y="0"
     inkscape:window-x="0"
     inkscape:cy="24"
     inkscape:cx="24"
     inkscape:zoom="10.604167"
     showgrid="false"
     id="namedview128"
     inkscape:window-height="740"
     inkscape:window-width="1360"
     inkscape:pageshadow="2"
     inkscape:pageopacity="0"
     guidetolerance="10"
     gridtolerance="10"
     objecttolerance="10"
     borderopacity="1"
     bordercolor="#666666"
     pagecolor="#ffffff" />
  <defs
     id="defs5">
    <clipPath
       id="_clipPath_UkUC656Kulm5PuWP5QaBOUw0QeS3niz3">
      <rect
         id="rect2"
         height="36"
         width="36" />
    </clipPath>
  </defs>
  <g
     id="g124"
     clip-path="url(#_clipPath_UkUC656Kulm5PuWP5QaBOUw0QeS3niz3)">
    <g
       id="g57">
      <path
         id="path7"
         fill="rgb(51,135,235)"
         d=" M 9.434 5.135 C 11.632 5.7 12.95 7.972 12.375 10.205 C 11.801 12.437 9.551 13.791 7.354 13.226 C 5.156 12.661 3.839 10.39 4.413 8.157 C 4.987 5.924 7.237 4.57 9.434 5.135 Z " />
      <g
         id="g13">
        <path
           id="path9"
           fill="rgb(51,135,235)"
           d=" M 14.611 6.586 C 15.4 6.789 15.874 7.604 15.668 8.404 C 15.462 9.205 14.655 9.69 13.866 9.487 C 13.077 9.284 12.603 8.47 12.809 7.669 C 13.015 6.869 13.823 6.384 14.611 6.586 Z " />
        <rect
           id="rect11"
           fill="rgb(51,135,235)"
           transform="matrix(0.153,0.988,-0.986,0.165,18.558,-4.736)"
           height="3.955"
           width="0.718"
           y="6.541"
           x="11.633" />
      </g>
      <g
         id="g19">
        <path
           id="path15"
           fill="rgb(51,135,235)"
           d=" M 13.947 13.653 C 14.126 14.458 13.626 15.264 12.832 15.452 C 12.038 15.639 11.247 15.137 11.069 14.332 C 10.89 13.527 11.389 12.721 12.184 12.533 C 12.978 12.346 13.768 12.848 13.947 13.653 Z " />
        <rect
           id="rect17"
           fill="rgb(51,135,235)"
           transform="matrix(-0.8,0.601,-0.588,-0.809,27.092,15.409)"
           height="3.97"
           width="0.715"
           y="10.208"
           x="10.713" />
      </g>
      <g
         id="g25">
        <path
           id="path21"
           fill="rgb(51,135,235)"
           d=" M 1.646 7.532 C 1.186 6.853 1.358 5.919 2.03 5.448 C 2.703 4.977 3.622 5.146 4.082 5.825 C 4.542 6.504 4.369 7.438 3.697 7.909 C 3.025 8.38 2.105 8.211 1.646 7.532 Z " />
        <rect
           id="rect23"
           fill="rgb(51,135,235)"
           transform="matrix(0.524,-0.852,0.847,0.532,-4.3,7.791)"
           height="3.951"
           width="0.719"
           y="5.832"
           x="4.5" />
      </g>
      <g
         id="g31">
        <path
           id="path27"
           fill="rgb(51,135,235)"
           d=" M 4.859 15.245 C 4.075 15.478 3.257 15.024 3.033 14.231 C 2.81 13.439 3.265 12.607 4.049 12.374 C 4.834 12.141 5.652 12.595 5.875 13.387 C 6.098 14.179 5.643 15.012 4.859 15.245 Z " />
        <rect
           id="rect29"
           fill="rgb(51,135,235)"
           transform="matrix(-0.633,-0.774,0.765,-0.645,0.695,24.894)"
           height="3.987"
           width="0.712"
           y="10.245"
           x="5.799" />
      </g>
      <g
         id="g37">
        <path
           id="path33"
           fill="rgb(51,135,235)"
           d=" M 9.547 15.856 C 9.118 16.563 8.207 16.788 7.515 16.359 C 6.822 15.93 6.609 15.008 7.038 14.302 C 7.467 13.595 8.377 13.37 9.07 13.799 C 9.762 14.228 9.976 15.15 9.547 15.856 Z " />
        <rect
           id="rect35"
           fill="rgb(51,135,235)"
           transform="matrix(-0.991,-0.137,0.14,-0.99,15.161,26.565)"
           height="4.008"
           width="0.708"
           y="10.76"
           x="8.161" />
      </g>
      <g
         id="g43">
        <path
           id="path39"
           fill="rgb(51,135,235)"
           d=" M 1.569 11.899 C 0.77 11.741 0.253 10.954 0.415 10.144 C 0.577 9.334 1.357 8.804 2.157 8.962 C 2.956 9.121 3.473 9.907 3.311 10.718 C 3.149 11.528 2.368 12.058 1.569 11.899 Z " />
        <rect
           id="rect41"
           fill="rgb(51,135,235)"
           transform="matrix(-0.207,-0.978,0.976,-0.22,-4.661,15.973)"
           height="3.958"
           width="0.717"
           y="7.845"
           x="3.722" />
      </g>
      <g
         id="g49">
        <path
           id="path45"
           fill="rgb(51,135,235)"
           d=" M 4.267 3.781 C 4.119 2.969 4.65 2.183 5.45 2.027 C 6.251 1.871 7.021 2.404 7.169 3.216 C 7.317 4.028 6.786 4.814 5.986 4.97 C 5.185 5.126 4.415 4.593 4.267 3.781 Z " />
        <rect
           id="rect47"
           fill="rgb(51,135,235)"
           transform="matrix(0.822,-0.569,0.556,0.831,-1.718,4.934)"
           height="3.973"
           width="0.715"
           y="3.368"
           x="6.727" />
      </g>
      <g
         id="g55">
        <path
           id="path51"
           fill="rgb(51,135,235)"
           d=" M 10.809 2.967 C 11.551 2.618 12.428 2.943 12.765 3.692 C 13.103 4.441 12.774 5.332 12.032 5.68 C 11.29 6.029 10.413 5.704 10.076 4.955 C 9.738 4.206 10.067 3.315 10.809 2.967 Z " />
        <rect
           id="rect53"
           fill="rgb(51,135,235)"
           transform="matrix(0.742,0.67,-0.661,0.751,6.625,-5.154)"
           height="3.995"
           width="0.711"
           y="4.135"
           x="9.611" />
      </g>
    </g>
    <g
       id="g109">
      <path
         id="path59"
         fill="rgb(51,135,235)"
         d=" M 3.121 22.027 C 3.855 20.569 5.597 19.963 7.009 20.673 C 8.421 21.384 8.971 23.145 8.237 24.603 C 7.502 26.061 5.76 26.668 4.349 25.957 C 2.937 25.246 2.387 23.485 3.121 22.027 Z " />
      <g
         id="g65">
        <path
           id="path61"
           fill="rgb(51,135,235)"
           d=" M 4.931 18.609 C 5.195 18.085 5.82 17.867 6.326 18.122 C 6.832 18.377 7.029 19.009 6.765 19.532 C 6.502 20.056 5.877 20.274 5.371 20.019 C 4.865 19.764 4.668 19.132 4.931 18.609 Z " />
        <rect
           id="rect63"
           fill="rgb(51,135,235)"
           transform="matrix(0.999,0.043,-0.067,0.998,1.389,-0.21)"
           height="2.824"
           width="0.496"
           y="19.296"
           x="5.564" />
      </g>
      <g
         id="g71">
        <path
           id="path67"
           fill="rgb(51,135,235)"
           d=" M 9.585 20.052 C 10.156 20.039 10.619 20.5 10.617 21.081 C 10.615 21.663 10.15 22.146 9.579 22.159 C 9.008 22.173 8.545 21.711 8.547 21.13 C 8.548 20.549 9.013 20.066 9.585 20.052 Z " />
        <rect
           id="rect69"
           fill="rgb(51,135,235)"
           transform="matrix(0.395,0.919,-0.906,0.424,24.74,5.12)"
           height="2.802"
           width="0.5"
           y="20.461"
           x="7.888" />
      </g>
      <g
         id="g77">
        <path
           id="path73"
           fill="rgb(51,135,235)"
           d=" M 3.482 27.805 C 2.951 28.032 2.349 27.782 2.14 27.247 C 1.931 26.712 2.193 26.092 2.725 25.865 C 3.256 25.638 3.857 25.888 4.066 26.423 C 4.276 26.958 4.014 27.578 3.482 27.805 Z " />
        <rect
           id="rect75"
           fill="rgb(51,135,235)"
           transform="matrix(-0.711,-0.704,0.69,-0.724,-10.516,47.062)"
           height="2.83"
           width="0.495"
           y="24.181"
           x="3.938" />
      </g>
      <g
         id="g83">
        <path
           id="path79"
           fill="rgb(51,135,235)"
           d=" M 9.195 26.627 C 9.226 27.208 8.788 27.717 8.218 27.763 C 7.649 27.809 7.161 27.376 7.131 26.795 C 7.1 26.215 7.537 25.706 8.107 25.659 C 8.677 25.613 9.164 26.047 9.195 26.627 Z " />
        <rect
           id="rect81"
           fill="rgb(51,135,235)"
           transform="matrix(-0.881,0.474,-0.447,-0.895,25.179,44.461)"
           height="2.778"
           width="0.504"
           y="23.915"
           x="7.126" />
      </g>
      <g
         id="g89">
        <path
           id="path85"
           fill="rgb(51,135,235)"
           d=" M 10.361 23.434 C 10.768 23.832 10.773 24.5 10.373 24.925 C 9.972 25.349 9.317 25.371 8.91 24.973 C 8.503 24.575 8.498 23.907 8.898 23.483 C 9.299 23.058 9.954 23.036 10.361 23.434 Z " />
        <rect
           id="rect87"
           fill="rgb(51,135,235)"
           transform="matrix(-0.35,0.937,-0.939,-0.343,33.237,24.264)"
           height="2.75"
           width="0.509"
           y="22.352"
           x="7.857" />
      </g>
      <g
         id="g95">
        <path
           id="path91"
           fill="rgb(51,135,235)"
           d=" M 6.412 28.463 C 6.177 29 5.564 29.253 5.044 29.027 C 4.524 28.802 4.293 28.183 4.528 27.646 C 4.763 27.109 5.376 26.857 5.896 27.082 C 6.416 27.308 6.647 27.927 6.412 28.463 Z " />
        <rect
           id="rect93"
           fill="rgb(51,135,235)"
           transform="matrix(-1,0.013,0.013,-1,10.498,52.776)"
           height="2.82"
           width="0.497"
           y="25.01"
           x="5.17" />
      </g>
      <g
         id="g101">
        <path
           id="path97"
           fill="rgb(51,135,235)"
           d=" M 1.377 25.452 C 0.806 25.443 0.362 24.963 0.386 24.382 C 0.41 23.801 0.893 23.336 1.464 23.345 C 2.034 23.354 2.479 23.834 2.455 24.416 C 2.431 24.997 1.948 25.462 1.377 25.452 Z " />
        <rect
           id="rect99"
           fill="rgb(51,135,235)"
           transform="matrix(-0.358,-0.934,0.922,-0.388,-17.928,35.6)"
           height="2.798"
           width="0.5"
           y="22.301"
           x="2.64" />
      </g>
      <g
         id="g107">
        <path
           id="path103"
           fill="rgb(51,135,235)"
           d=" M 1.881 20.766 C 1.766 20.198 2.126 19.631 2.684 19.499 C 3.243 19.366 3.79 19.72 3.906 20.287 C 4.021 20.854 3.661 21.422 3.103 21.554 C 2.544 21.686 1.997 21.333 1.881 20.766 Z " />
        <rect
           id="rect105"
           fill="rgb(51,135,235)"
           transform="matrix(0.802,-0.598,0.577,0.817,-11.799,6.298)"
           height="2.767"
           width="0.506"
           y="20.41"
           x="3.625" />
      </g>
    </g>
    <g
       style="fill:#193198;fill-opacity:1;stroke:#ffffff;stroke-opacity:1"
       id="g122">
      <mask
         height="400%"
         width="400%"
         y="-200%"
         x="-200%"
         id="_mask_5AcKqwsGaPnm0WbpC28Mt8RnbDciwW9d">
        <rect
           id="rect111"
           style="fill:white;"
           height="400%"
           width="400%"
           y="-200%"
           x="-200%" />
        <path
           id="path113"
           stroke="none"
           fill="black"
           fill-rule="evenodd"
           d=" M 5.03 8.045 L 17.893 4 L 30.986 8.045 C 32.294 22.088 27.569 30.398 17.893 34 C 7.66 29.717 3.766 20.776 5.03 8.045 Z " />
      </mask>
      <path
         style="fill:#193198;fill-opacity:1;stroke:#ffffff;stroke-opacity:1"
         id="path116"
         stroke-miterlimit="1.414"
         stroke-linecap="butt"
         stroke-linejoin="round"
         stroke="rgb(0,0,0)"
         stroke-width="2"
         vector-effect="non-scaling-stroke"
         mask="url(#_mask_5AcKqwsGaPnm0WbpC28Mt8RnbDciwW9d)"
         fill="rgb(255,255,255)"
         fill-rule="evenodd"
         d=" M 5.03 8.045 L 17.893 4 L 30.986 8.045 C 32.294 22.088 27.569 30.398 17.893 34 C 7.66 29.717 3.766 20.776 5.03 8.045 Z " />
      <path
         style="fill:#193198;fill-opacity:1;stroke:#ffffff;stroke-opacity:1"
         id="path118"
         fill="rgb(255,255,255)"
         fill-rule="evenodd"
         d=" M 5.03 8.045 L 17.893 4 L 30.986 8.045 C 32.294 22.088 27.569 30.398 17.893 34 C 7.66 29.717 3.766 20.776 5.03 8.045 Z " />
      <path
         style="fill:#193198;fill-opacity:1;stroke:#ffffff;stroke-opacity:1"
         id="path120"
         stroke-miterlimit="3"
         stroke-linecap="square"
         stroke-linejoin="miter"
         stroke="rgb(51,135,235)"
         stroke-width="1.5"
         vector-effect="non-scaling-stroke"
         fill="none"
         d=" M 13 19.6 L 15 22 L 23 16" />
    </g>
  </g>
</svg>
