<svg id="Layer_2" data-name="Layer 2" xmlns="http://www.w3.org/2000/svg" viewBox="0 0 41.27 40.39"><defs><style>.cls-1,.cls-2{fill:none;}.cls-1,.cls-4{stroke:#fff;}.cls-1,.cls-2,.cls-4{stroke-miterlimit:10;}.cls-2{stroke:#29abe2;}.cls-3{fill:#29abe2;}.cls-4,.cls-5{fill:#fff;}</style></defs><title>EMI-Rasujan</title><rect class="cls-1" x="0.5" y="15.63" width="24.26" height="24.26" rx="0.49"/><path class="cls-2" d="M20.23,11A13.61,13.61,0,0,1,32,4.31" transform="translate(-4.83 -3.81)"/><polygon class="cls-3" points="20.88 7.42 13.51 14.13 11.38 4.39 20.88 7.42"/><path class="cls-2" d="M32,4.31A13.62,13.62,0,0,1,45.6,17.94" transform="translate(-4.83 -3.81)"/><path class="cls-2" d="M45.6,17.94A13.62,13.62,0,0,1,32,31.56" transform="translate(-4.83 -3.81)"/><rect class="cls-3" x="2.69" y="23.68" width="3.79" height="3.79" rx="0.64"/><rect class="cls-3" x="8.03" y="23.68" width="3.79" height="3.79" rx="0.64"/><rect class="cls-3" x="13.37" y="23.68" width="3.79" height="3.79" rx="0.64"/><rect class="cls-3" x="18.7" y="23.68" width="3.79" height="3.79" rx="0.64"/><rect class="cls-3" x="2.69" y="28.37" width="3.79" height="3.79" rx="0.64"/><rect class="cls-3" x="8.03" y="28.37" width="3.79" height="3.79" rx="0.64"/><rect class="cls-3" x="13.37" y="28.37" width="3.79" height="3.79" rx="0.64"/><rect class="cls-3" x="18.7" y="28.37" width="3.79" height="3.79" rx="0.64"/><rect class="cls-3" x="2.69" y="33.05" width="3.79" height="3.79" rx="0.64"/><rect class="cls-3" x="8.03" y="33.05" width="3.79" height="3.79" rx="0.64"/><rect class="cls-3" x="13.37" y="33.05" width="3.79" height="3.79" rx="0.64"/><rect class="cls-3" x="18.7" y="33.05" width="3.79" height="3.79" rx="0.64"/><rect class="cls-3" x="4.25" y="12.32" width="2.37" height="3.58" rx="1.19"/><rect class="cls-3" x="18.63" y="12.32" width="2.37" height="3.58" rx="1.19"/><rect class="cls-4" x="0.9" y="16.51" width="23.56" height="1.21"/><path class="cls-5" d="M28.24,11.19c0-.39,0-.74,0-1.13,4.2.1,8.36.21,12.58.28,0,.32,0,.71,0,1.08-1.92-.06-3.85-.09-5.72-.14.17.8.31,1.56.47,2.34a3.33,3.33,0,0,1,3.67,2.22,3,3,0,0,1-1,3.13c-.5-.3-1-.63-1.49-1a2.79,2.79,0,0,0,1.39-1.69c.32-1.07-.53-1.83-1.77-1.6a8.06,8.06,0,0,0-1.56.38,4.78,4.78,0,0,0-1.08.73c-.46.32-.93.66-1.41,1a.32.32,0,0,0-.14.51,4.25,4.25,0,0,0,.73,1.19c1.11,1.14,2.24,2.21,3.41,3.37a3.82,3.82,0,0,0-.36.34c-.4-.37-.81-.75-1.22-1.09-1.34-1.29-2.75-2.58-4.09-3.9a7.79,7.79,0,0,1-1-1.34,1,1,0,0,1,.25-1.33,1.39,1.39,0,0,1,.5-.16c.5,0,1,0,1.56,0a1.5,1.5,0,0,0,1.69-1.11,1.56,1.56,0,0,0-.41-1.68,1.17,1.17,0,0,0-.72-.27c-1.33,0-2.63,0-4-.12Z" transform="translate(-4.83 -3.81)"/></svg>