<?xml version="1.0" encoding="UTF-8" standalone="no"?>
<svg
   xmlns:dc="http://purl.org/dc/elements/1.1/"
   xmlns:cc="http://creativecommons.org/ns#"
   xmlns:rdf="http://www.w3.org/1999/02/22-rdf-syntax-ns#"
   xmlns:svg="http://www.w3.org/2000/svg"
   xmlns="http://www.w3.org/2000/svg"
   xmlns:sodipodi="http://sodipodi.sourceforge.net/DTD/sodipodi-0.dtd"
   xmlns:inkscape="http://www.inkscape.org/namespaces/inkscape"
   width="24"
   height="24"
   viewBox="0 0 24 24"
   fill="none"
   version="1.1"
   id="svg6"
   sodipodi:docname="EMI.svg"
   inkscape:version="0.92.4 (fd57863, 2020-04-02)">
  <metadata
     id="metadata12">
    <rdf:RDF>
      <cc:Work
         rdf:about="">
        <dc:format>image/svg+xml</dc:format>
        <dc:type
           rdf:resource="http://purl.org/dc/dcmitype/StillImage" />
      </cc:Work>
    </rdf:RDF>
  </metadata>
  <defs
     id="defs10" />
  <sodipodi:namedview
     pagecolor="#ffffff"
     bordercolor="#666666"
     borderopacity="1"
     objecttolerance="10"
     gridtolerance="10"
     guidetolerance="10"
     inkscape:pageopacity="0"
     inkscape:pageshadow="2"
     inkscape:window-width="640"
     inkscape:window-height="480"
     id="namedview8"
     showgrid="false"
     inkscape:zoom="9.8333333"
     inkscape:cx="10.220339"
     inkscape:cy="12"
     inkscape:window-x="0"
     inkscape:window-y="0"
     inkscape:window-maximized="0"
     inkscape:current-layer="svg6" />
  <path
     d="M10.73 13.71L8.77 11.958L10.57 9.783C10.767 9.534 10.88 9.23 10.88 8.92C10.88 8.137 10.205 7.495 9.38 7.495C8.887 7.495 8.634 7.767 8.452 7.965C8.297 8.128 8.227 8.194 8.067 8.194C7.907 8.194 7.837 8.128 7.683 7.964C7.556 7.828 7.393 7.664 7.148 7.57L9.422 5.297C9.63219 5.085 9.75012 4.79854 9.75012 4.5C9.75012 4.20146 9.63219 3.915 9.422 3.703C9.21559 3.50477 8.94269 3.39062 8.65662 3.38285C8.37055 3.37508 8.09185 3.47426 7.875 3.661V2.625H10.125C10.744 2.625 11.25 2.119 11.25 1.5C11.25 0.881 10.744 0.375 10.125 0.375H7.5C6.464 0.375 5.625 1.215 5.625 2.25V3.66C5.198 3.277 4.491 3.295 4.078 3.703C3.86781 3.915 3.74987 4.20146 3.74987 4.5C3.74987 4.79854 3.86781 5.085 4.078 5.297L6.352 7.57C6.103 7.664 5.944 7.833 5.817 7.969C5.662 8.133 5.592 8.199 5.433 8.199C5.273 8.199 5.203 8.133 5.048 7.969C4.861 7.772 4.608 7.5 4.12 7.5C3.295 7.5 2.62 8.137 2.62 8.925C2.62 9.235 2.728 9.544 2.93 9.792L4.725 11.962L2.775 13.706C2.13937 14.2306 1.62771 14.8894 1.27674 15.635C0.925771 16.3807 0.74418 17.1948 0.744998 18.019C0.744998 21.113 3.277 23.629 6.389 23.629H7.106C10.219 23.625 12.75 21.108 12.75 18.014C12.75 16.345 12.01 14.775 10.73 13.711V13.71ZM4.5 4.5C4.49957 4.40028 4.53836 4.30438 4.608 4.233C4.64241 4.19724 4.68398 4.16914 4.72998 4.15053C4.77599 4.13192 4.8254 4.12322 4.875 4.125C4.97472 4.12457 5.07062 4.16336 5.142 4.233L6.375 5.466V2.25C6.375 1.631 6.881 1.125 7.5 1.125H10.125C10.331 1.125 10.5 1.294 10.5 1.5C10.4997 1.59938 10.4601 1.6946 10.3899 1.76487C10.3196 1.83514 10.2244 1.87474 10.125 1.875H7.125V5.47L8.358 4.238C8.42844 4.16802 8.5237 4.12874 8.623 4.12874C8.72229 4.12874 8.81756 4.16802 8.888 4.238C8.95702 4.30894 8.99565 4.40402 8.99565 4.503C8.99565 4.60198 8.95702 4.69706 8.888 4.768L6.75 6.904L4.608 4.762C4.57321 4.72791 4.5457 4.68711 4.52713 4.64207C4.50857 4.59704 4.49934 4.54871 4.5 4.5ZM3.375 8.925C3.375 8.555 3.712 8.25 4.125 8.25C4.285 8.25 4.355 8.316 4.509 8.48C4.697 8.677 4.95 8.948 5.437 8.948C5.93 8.948 6.183 8.677 6.366 8.48C6.52 8.316 6.586 8.25 6.746 8.25C6.905 8.25 6.975 8.316 7.13 8.48C7.317 8.677 7.57 8.948 8.058 8.948C8.545 8.948 8.803 8.677 8.986 8.48C9.141 8.316 9.211 8.25 9.37 8.25C9.783 8.25 10.12 8.55 10.12 8.925C10.12 9.065 10.073 9.202 9.98 9.315L8.072 11.625H5.423L3.516 9.319C3.42505 9.20781 3.37525 9.06865 3.375 8.925ZM7.106 22.875H6.39C3.695 22.875 1.501 20.695 1.501 18.015C1.501 16.57 2.143 15.206 3.273 14.273L5.396 12.375H8.11L10.243 14.283C10.7931 14.7367 11.2359 15.3065 11.5397 15.9516C11.8435 16.5966 12.0007 17.301 12 18.014C12 20.695 9.806 22.875 7.106 22.875ZM19.125 0.375C16.645 0.375 14.625 2.395 14.625 4.875C14.625 7.355 16.645 9.375 19.125 9.375C21.605 9.375 23.625 7.355 23.625 4.875C23.625 2.395 21.605 0.375 19.125 0.375ZM19.125 8.625C18.1308 8.62368 17.1778 8.22816 16.4748 7.52519C15.7718 6.82221 15.3763 5.86916 15.375 4.875C15.3763 3.88084 15.7718 2.92779 16.4748 2.22481C17.1778 1.52184 18.1308 1.12632 19.125 1.125C20.1192 1.12632 21.0722 1.52184 21.7752 2.22481C22.4782 2.92779 22.8737 3.88084 22.875 4.875C22.8737 5.86916 22.4782 6.82221 21.7752 7.52519C21.0722 8.22816 20.1192 8.62368 19.125 8.625Z"
     fill="black"
     id="path2"
     style="fill:#ffffff" />
  <path
     d="M16.983 6.487L20.733 2.737L21.263 3.267L17.513 7.017L16.983 6.487ZM20.625 5.25C20.006 5.25 19.5 5.756 19.5 6.375C19.5 6.994 20.006 7.5 20.625 7.5C21.244 7.5 21.75 6.994 21.75 6.375C21.75 5.756 21.244 5.25 20.625 5.25ZM20.625 6.75C20.5256 6.74974 20.4304 6.71014 20.3601 6.63987C20.2898 6.5696 20.2502 6.47438 20.25 6.375C20.25 6.169 20.419 6 20.625 6C20.831 6 21 6.169 21 6.375C20.9997 6.47438 20.9601 6.5696 20.8899 6.63987C20.8196 6.71014 20.7244 6.74974 20.625 6.75ZM18.75 3.375C18.75 2.756 18.244 2.25 17.625 2.25C17.006 2.25 16.5 2.756 16.5 3.375C16.5 3.994 17.006 4.5 17.625 4.5C18.244 4.5 18.75 3.994 18.75 3.375ZM17.25 3.375C17.25 3.169 17.419 3 17.625 3C17.831 3 18 3.169 18 3.375C17.9997 3.47438 17.9601 3.5696 17.8899 3.63987C17.8196 3.71014 17.7244 3.74974 17.625 3.75C17.5256 3.74974 17.4304 3.71014 17.3601 3.63987C17.2898 3.5696 17.2503 3.47438 17.25 3.375ZM18.75 11.91L16.078 14.583C15.868 14.7951 15.7503 15.0815 15.7503 15.38C15.7503 15.6785 15.868 15.9649 16.078 16.177C16.2845 16.375 16.5574 16.489 16.8434 16.4968C17.1294 16.5046 17.408 16.4055 17.625 16.219V17.25H15.375C14.756 17.25 14.25 17.756 14.25 18.375C14.25 18.994 14.756 19.5 15.375 19.5H18C19.036 19.5 19.875 18.66 19.875 17.625V16.215C20.302 16.598 21.009 16.58 21.422 16.172C21.6319 15.9599 21.7497 15.6735 21.7497 15.375C21.7497 15.0765 21.6319 14.7901 21.422 14.578L18.75 11.911V11.91ZM20.892 15.642C20.8215 15.712 20.7263 15.7513 20.627 15.7513C20.5277 15.7513 20.4324 15.712 20.362 15.642L19.125 14.405V17.625C19.125 18.244 18.619 18.75 18 18.75H15.375C15.2756 18.7497 15.1804 18.7101 15.1101 18.6399C15.0398 18.5696 15.0003 18.4744 15 18.375C15 18.169 15.169 18 15.375 18H18.375V14.405L17.142 15.637C17.0715 15.707 16.9763 15.7463 16.877 15.7463C16.7777 15.7463 16.6824 15.707 16.612 15.637C16.543 15.5661 16.5043 15.471 16.5043 15.372C16.5043 15.273 16.543 15.1779 16.612 15.107L18.755 12.966L20.897 15.108C20.967 15.178 21.005 15.272 21.005 15.375C21.0037 15.4753 20.9631 15.5712 20.892 15.642ZM3.84399 15.637V15.103H9.65199V15.637H6.34199C6.63199 16.027 6.77799 16.453 6.73599 16.936C6.84799 16.889 6.95599 16.842 7.06399 16.809C7.54199 16.659 8.01099 16.687 8.45199 16.931C8.88199 17.171 9.10799 17.55 9.14099 18.038C9.17799 18.553 9.01899 18.994 8.61099 19.331C8.36699 19.533 8.08599 19.641 7.77699 19.688C7.63599 19.711 7.49499 19.72 7.34999 19.734L7.30799 19.177C7.41999 19.157 7.53299 19.144 7.63599 19.116C7.75799 19.083 7.87499 19.041 7.98299 18.98C8.30599 18.797 8.47999 18.52 8.46599 18.145C8.46099 18.056 8.45599 17.962 8.43299 17.873C8.35299 17.545 8.07199 17.32 7.71599 17.293C7.25199 17.255 6.85799 17.414 6.50599 17.709C6.4652 17.7431 6.42771 17.7809 6.39399 17.822C6.28249 17.9525 6.14549 18.0589 5.99142 18.1345C5.83734 18.2102 5.66943 18.2536 5.49799 18.262C5.41399 18.272 5.32999 18.262 5.23099 18.262C5.71899 18.886 6.19699 19.495 6.67999 20.114L6.10799 20.494C6.09399 20.475 6.08399 20.461 6.06999 20.447C5.51711 19.6778 4.96577 18.9074 4.41599 18.136C4.34756 18.045 4.28764 17.9479 4.23699 17.846C4.19905 17.7699 4.17694 17.6869 4.17199 17.602C4.16199 17.484 4.21899 17.391 4.32199 17.33C4.35899 17.31 4.39699 17.292 4.43399 17.278C4.58899 17.227 4.60399 17.231 4.70199 17.358C4.73399 17.4 4.76699 17.438 4.79499 17.48C4.93099 17.677 5.12799 17.733 5.35799 17.71C5.70899 17.667 5.97699 17.41 6.04199 17.034C6.08483 16.7975 6.07826 16.5546 6.02267 16.3207C5.96708 16.0868 5.86368 15.867 5.71899 15.675C5.69499 15.642 5.67199 15.637 5.63899 15.637H3.84299H3.84399Z"
     fill="#3387EB"
     id="path4" />
</svg>
