<svg width="24" height="24" viewBox="0 0 24 24" fill="none" xmlns="http://www.w3.org/2000/svg">
<path d="M22.875 3H21.75V2.625C21.75 2.52554 21.7105 2.43016 21.6402 2.35984C21.5698 2.28951 21.4745 2.25 21.375 2.25H18.75V1.875C18.75 1.57663 18.6315 1.29048 18.4205 1.0795C18.2095 0.868526 17.9234 0.75 17.625 0.75C17.3266 0.75 17.0405 0.868526 16.8295 1.0795C16.6185 1.29048 16.5 1.57663 16.5 1.875V2.25H15.75V1.875C15.75 1.57663 15.6315 1.29048 15.4205 1.0795C15.2095 0.868526 14.9234 0.75 14.625 0.75C14.3266 0.75 14.0405 0.868526 13.8295 1.0795C13.6185 1.29048 13.5 1.57663 13.5 1.875V2.25H9V1.875C9 1.57663 8.88147 1.29048 8.6705 1.0795C8.45952 0.868526 8.17337 0.75 7.875 0.75C7.57663 0.75 7.29048 0.868526 7.0795 1.0795C6.86853 1.29048 6.75 1.57663 6.75 1.875V2.25H6V1.875C6 1.57663 5.88147 1.29048 5.6705 1.0795C5.45952 0.868526 5.17337 0.75 4.875 0.75C4.57663 0.75 4.29048 0.868526 4.0795 1.0795C3.86853 1.29048 3.75 1.57663 3.75 1.875V2.25H1.125C1.02554 2.25 0.930161 2.28951 0.859835 2.35984C0.789509 2.43016 0.75 2.52554 0.75 2.625V21.375C0.75 21.4745 0.789509 21.5698 0.859835 21.6402C0.930161 21.7105 1.02554 21.75 1.125 21.75H1.5V22.875C1.5 22.9745 1.53951 23.0698 1.60984 23.1402C1.68016 23.2105 1.77554 23.25 1.875 23.25H22.875C22.9745 23.25 23.0698 23.2105 23.1402 23.1402C23.2105 23.0698 23.25 22.9745 23.25 22.875V3.375C23.25 3.27554 23.2105 3.18016 23.1402 3.10984C23.0698 3.03951 22.9745 3 22.875 3ZM1.5 21V7.5H21V21H1.5ZM17.25 1.875C17.25 1.77554 17.2895 1.68016 17.3598 1.60984C17.4302 1.53951 17.5255 1.5 17.625 1.5C17.7245 1.5 17.8198 1.53951 17.8902 1.60984C17.9605 1.68016 18 1.77554 18 1.875V2.25H17.25V1.875ZM14.25 1.875C14.25 1.77554 14.2895 1.68016 14.3598 1.60984C14.4302 1.53951 14.5255 1.5 14.625 1.5C14.7245 1.5 14.8198 1.53951 14.8902 1.60984C14.9605 1.68016 15 1.77554 15 1.875V2.25H14.25V1.875ZM7.5 1.875C7.5 1.77554 7.53951 1.68016 7.60983 1.60984C7.68016 1.53951 7.77554 1.5 7.875 1.5C7.97446 1.5 8.06984 1.53951 8.14017 1.60984C8.21049 1.68016 8.25 1.77554 8.25 1.875V2.25H7.5V1.875ZM4.5 1.875C4.5 1.77554 4.53951 1.68016 4.60984 1.60984C4.68016 1.53951 4.77554 1.5 4.875 1.5C4.97446 1.5 5.06984 1.53951 5.14016 1.60984C5.21049 1.68016 5.25 1.77554 5.25 1.875V2.25H4.5V1.875ZM3.75 3V3.375C3.75035 3.67326 3.86899 3.95921 4.07989 4.17011C4.29079 4.38101 4.57674 4.49965 4.875 4.5C4.97446 4.5 5.06984 4.46049 5.14016 4.39016C5.21049 4.31984 5.25 4.22446 5.25 4.125C5.25 4.02554 5.21049 3.93016 5.14016 3.85984C5.06984 3.78951 4.97446 3.75 4.875 3.75C4.77558 3.74989 4.68026 3.71034 4.60996 3.64004C4.53966 3.56974 4.50011 3.47442 4.5 3.375V3H6.75V3.375C6.75035 3.67326 6.86899 3.95921 7.07989 4.17011C7.29079 4.38101 7.57674 4.49965 7.875 4.5C7.97446 4.5 8.06984 4.46049 8.14017 4.39016C8.21049 4.31984 8.25 4.22446 8.25 4.125C8.25 4.02554 8.21049 3.93016 8.14017 3.85984C8.06984 3.78951 7.97446 3.75 7.875 3.75C7.77558 3.74989 7.68026 3.71034 7.60996 3.64004C7.53966 3.56974 7.50011 3.47442 7.5 3.375V3H13.5V3.375C13.5003 3.67326 13.619 3.95921 13.8299 4.17011C14.0408 4.38101 14.3267 4.49965 14.625 4.5C14.7245 4.5 14.8198 4.46049 14.8902 4.39016C14.9605 4.31984 15 4.22446 15 4.125C15 4.02554 14.9605 3.93016 14.8902 3.85984C14.8198 3.78951 14.7245 3.75 14.625 3.75C14.5256 3.74989 14.4303 3.71034 14.36 3.64004C14.2897 3.56974 14.2501 3.47442 14.25 3.375V3H16.5V3.375C16.5003 3.67326 16.619 3.95921 16.8299 4.17011C17.0408 4.38101 17.3267 4.49965 17.625 4.5C17.7245 4.5 17.8198 4.46049 17.8902 4.39016C17.9605 4.31984 18 4.22446 18 4.125C18 4.02554 17.9605 3.93016 17.8902 3.85984C17.8198 3.78951 17.7245 3.75 17.625 3.75C17.5256 3.74989 17.4303 3.71034 17.36 3.64004C17.2897 3.56974 17.2501 3.47442 17.25 3.375V3H21V6.75H1.5V3H3.75ZM22.5 22.5H2.25V21.75H21.375C21.4745 21.75 21.5698 21.7105 21.6402 21.6402C21.7105 21.5698 21.75 21.4745 21.75 21.375V3.75H22.5V22.5Z" fill="black"/>
<path d="M11.25 19.5C10.2116 19.5 9.19661 19.1921 8.33326 18.6152C7.4699 18.0383 6.79699 17.2184 6.39963 16.2591C6.00227 15.2998 5.89831 14.2442 6.10088 13.2258C6.30345 12.2074 6.80347 11.2719 7.53769 10.5377C8.27192 9.80348 9.20738 9.30347 10.2258 9.10089C11.2442 8.89832 12.2998 9.00229 13.2591 9.39965C14.2184 9.79701 15.0383 10.4699 15.6152 11.3333C16.1921 12.1966 16.5 13.2117 16.5 14.25C16.4984 15.6419 15.9448 16.9764 14.9606 17.9606C13.9763 18.9448 12.6419 19.4984 11.25 19.5ZM11.25 9.75002C10.2049 9.75001 9.19238 10.1138 8.38623 10.7789C7.58007 11.444 7.03054 12.3689 6.83196 13.395C6.63338 14.421 6.79813 15.4842 7.29793 16.4021C7.79774 17.3199 8.60142 18.0352 9.57106 18.4251C10.5407 18.815 11.6158 18.8553 12.6119 18.539C13.608 18.2227 14.4629 17.5695 15.03 16.6916C15.597 15.8138 15.8409 14.7659 15.7196 13.7278C15.5983 12.6898 15.1195 11.7263 14.3654 11.0028C13.5271 10.1993 12.4111 9.75055 11.25 9.75002Z" fill="#3387EB"/>
<path d="M13.708 12.063C13.6253 12.0078 13.524 11.9878 13.4265 12.0073C13.329 12.0268 13.2432 12.0842 13.188 12.167L10.4417 16.2864L9.26518 15.1098C9.23036 15.075 9.18902 15.0474 9.14352 15.0285C9.09802 15.0097 9.04926 15 9.00001 15C8.95076 15 8.902 15.0097 8.8565 15.0285C8.811 15.0474 8.76966 15.075 8.73484 15.1098C8.70002 15.1447 8.67239 15.186 8.65355 15.2315C8.6347 15.277 8.625 15.3258 8.625 15.375C8.625 15.4243 8.6347 15.473 8.65355 15.5185C8.67239 15.564 8.70002 15.6054 8.73484 15.6402L10.2348 17.1402C10.2697 17.175 10.311 17.2026 10.3565 17.2215C10.402 17.2403 10.4508 17.25 10.5 17.25C10.5122 17.25 10.5246 17.2494 10.5369 17.2482C10.5922 17.2427 10.6455 17.2251 10.693 17.1965C10.7406 17.168 10.7812 17.1292 10.812 17.083L13.812 12.583C13.8672 12.5003 13.8872 12.399 13.8677 12.3015C13.8482 12.204 13.7908 12.1182 13.708 12.063Z" fill="#3387EB"/>
</svg>
