<svg width="24" height="24" viewBox="0 0 24 24" fill="none" xmlns="http://www.w3.org/2000/svg">
<g clip-path="url(#clip0)">
<path d="M13.5675 1.0846C13.358 0.592546 12.9455 0.218807 12.4171 0.0545089C11.644 -0.147337 10.8294 0.225183 10.4753 0.938674C9.89689 2.10067 9.59473 3.40175 9.6019 4.69804V17.2052C9.6019 17.2304 9.60429 17.2556 9.60912 17.2808L10.6851 22.8561C10.7759 23.5088 11.3411 24 11.999 24C11.9994 24 12.0002 24 12.001 24C12.6598 24 13.2246 23.5084 13.3117 22.8769L14.3909 17.2808C14.3961 17.256 14.3985 17.2305 14.3985 17.2053V4.69724C14.3957 3.44656 14.1055 2.19105 13.5675 1.0846ZM13.5991 17.1664L12.5238 22.7457C12.4879 23.0051 12.2628 23.2006 11.9998 23.2006C11.7372 23.2006 11.5125 23.0051 11.4738 22.7253L10.4017 17.1668V4.69607C10.3954 3.52212 10.6684 2.34574 11.1916 1.29446C11.3787 0.917908 11.8103 0.721641 12.1972 0.822798C12.483 0.911955 12.7149 1.12139 12.84 1.41516C13.3341 2.43246 13.5962 3.56764 13.5991 4.69804V17.1664Z" fill="black"/>
<path d="M10.2063 8.86711C10.0852 8.79478 9.93447 8.79197 9.81137 8.8591L0.218168 14.0555C0.0890726 14.1254 0.00872803 14.2601 0.00872803 14.4068V16.8051C0.00872803 16.9362 0.0726661 17.0585 0.18062 17.1336C0.24859 17.1804 0.328137 17.2048 0.408482 17.2048C0.455639 17.2048 0.503217 17.1968 0.54878 17.1796L10.142 13.5822C10.2979 13.5234 10.4014 13.3743 10.4014 13.2076V9.21048C10.4013 9.0698 10.3274 8.93949 10.2063 8.86711ZM9.60193 12.9307L0.808142 16.2283V14.6451L9.60193 9.88206V12.9307Z" fill="black"/>
<path d="M23.7823 14.0555L14.1891 8.85915C14.0652 8.7924 13.9153 8.79479 13.7941 8.86717C13.6734 8.93912 13.5991 9.06943 13.5991 9.21053V13.2077C13.5991 13.3744 13.7022 13.5239 13.8581 13.5822L23.4513 17.1797C23.4973 17.1965 23.5448 17.2049 23.592 17.2049C23.6724 17.2049 23.7519 17.1809 23.8191 17.1337C23.927 17.0589 23.9913 16.9363 23.9913 16.8052V14.4069C23.9913 14.2601 23.911 14.1254 23.7823 14.0555ZM23.1923 16.2283L14.3985 12.9307V9.8816L23.1923 14.645V16.2283Z" fill="black"/>
<path d="M6.40415 9.21088C5.74302 9.21088 5.20499 9.74891 5.20499 10.41V11.6092H6.0044V10.41C6.0044 10.1898 6.18389 10.0103 6.40411 10.0103C6.62433 10.0103 6.80381 10.1898 6.80381 10.41V10.8098H7.60323V10.41C7.60332 9.74887 7.06529 9.21088 6.40415 9.21088Z" fill="black"/>
<path d="M2.80671 11.209C2.14558 11.209 1.60754 11.7471 1.60754 12.4082V13.6074H2.40696V12.4082C2.40696 12.188 2.58644 12.0089 2.80666 12.0089C3.02689 12.0089 3.20637 12.1879 3.20637 12.4082H4.00579C4.00588 11.7471 3.46784 11.209 2.80671 11.209Z" fill="black"/>
<path d="M17.5963 9.21088C16.9351 9.21088 16.3971 9.74891 16.3971 10.41V10.8098H17.1965V10.41C17.1965 10.1898 17.3756 10.0103 17.5962 10.0103C17.8169 10.0103 17.9959 10.1898 17.9959 10.41V11.6092H18.7953V10.41C18.7954 9.74887 18.2574 9.21088 17.5963 9.21088Z" fill="black"/>
<path d="M21.1937 11.209C20.5326 11.209 19.9945 11.7471 19.9945 12.4082H20.794C20.794 12.188 20.973 12.0089 21.1937 12.0089C21.4143 12.0089 21.5934 12.1879 21.5934 12.4082V13.6074H22.3928V12.4082C22.3929 11.7471 21.8548 11.209 21.1937 11.209Z" fill="black"/>
<path d="M11.1344 22.4067L6.80349 23.1286V22.2281L10.6068 19.9461L10.1955 19.2606L6.19833 21.6588C6.078 21.7308 6.00446 21.8607 6.00446 22.0014V23.6003C6.00446 23.7178 6.05644 23.8297 6.14597 23.9053C6.21872 23.9668 6.31027 24 6.40421 24C6.42577 24 6.44776 23.998 6.46937 23.9948L11.266 23.1954L11.1344 22.4067Z" fill="black"/>
<path d="M17.8017 21.6588L13.8045 19.2606L13.3932 19.9461L17.1966 22.2281V23.1282L12.8652 22.4063L12.7341 23.195L17.5308 23.9944C17.5527 23.998 17.5743 23.9999 17.5963 23.9999C17.6902 23.9999 17.7818 23.9668 17.8541 23.9052C17.9441 23.8293 17.9956 23.7178 17.9956 23.6002V22.0014C17.9956 21.8611 17.922 21.7312 17.8017 21.6588Z" fill="black"/>
<path d="M12.9064 3.06799C12.7757 2.67668 12.4027 2.42524 11.9958 2.41525C11.5717 2.41924 11.2072 2.69547 11.0936 3.08599L10.8218 3.88541L11.5789 4.14285L11.8559 3.32661C11.8755 3.26028 11.9346 3.21509 12.0006 3.21467C12.0678 3.21467 12.1269 3.25742 12.1481 3.32018L12.4199 4.13961L13.1786 3.88817L12.9064 3.06799Z" fill="#3387EB"/>
</g>
<defs>
<clipPath id="clip0">
<rect width="24" height="24" fill="white"/>
</clipPath>
</defs>
</svg>
