<?xml version="1.0" encoding="utf-8"?>
<!-- Generator: Adobe Illustrator 19.0.0, SVG Export Plug-In . SVG Version: 6.00 Build 0)  -->
<svg version="1.1" id="Layer_1" xmlns="http://www.w3.org/2000/svg" xmlns:xlink="http://www.w3.org/1999/xlink" x="0px" y="0px"
	 viewBox="0 0 50 50" style="enable-background:new 0 0 50 50;" xml:space="preserve">
<style type="text/css">
	.st0{fill:#010101;}
</style>
<g>
	<path id="XMLID_2_" class="st0" d="M48.8,19.8L25,1.3L1.2,19.8c-0.5,0.4-0.6,1.2-0.2,1.7c0.4,0.5,1.2,0.6,1.7,0.2L25,4.5l22.3,17.3
		c0.2,0.2,0.5,0.3,0.8,0.3c0.4,0,0.7-0.2,1-0.5C49.5,21,49.4,20.2,48.8,19.8z"/>
	<path id="XMLID_1_" class="st0" d="M39.4,20.8c-0.7,0-1.2,0.6-1.2,1.2v23H11.8V22c0-0.7-0.6-1.2-1.2-1.2c-0.7,0-1.2,0.6-1.2,1.2
		v25.5h31.3V22C40.6,21.3,40.1,20.8,39.4,20.8z"/>
</g>
</svg>
