<?xml version="1.0" encoding="UTF-8" standalone="no"?>
<svg
   xmlns:dc="http://purl.org/dc/elements/1.1/"
   xmlns:cc="http://creativecommons.org/ns#"
   xmlns:rdf="http://www.w3.org/1999/02/22-rdf-syntax-ns#"
   xmlns:svg="http://www.w3.org/2000/svg"
   xmlns="http://www.w3.org/2000/svg"
   xmlns:sodipodi="http://sodipodi.sourceforge.net/DTD/sodipodi-0.dtd"
   xmlns:inkscape="http://www.inkscape.org/namespaces/inkscape"
   width="24"
   height="24"
   viewBox="0 0 24 24"
   fill="none"
   version="1.1"
   id="svg13"
   sodipodi:docname="Insurance.svg"
   inkscape:version="0.92.4 (fd57863, 2020-04-02)">
  <metadata
     id="metadata17">
    <rdf:RDF>
      <cc:Work
         rdf:about="">
        <dc:format>image/svg+xml</dc:format>
        <dc:type
           rdf:resource="http://purl.org/dc/dcmitype/StillImage" />
      </cc:Work>
    </rdf:RDF>
  </metadata>
  <sodipodi:namedview
     pagecolor="#ffffff"
     bordercolor="#666666"
     borderopacity="1"
     objecttolerance="10"
     gridtolerance="10"
     guidetolerance="10"
     inkscape:pageopacity="0"
     inkscape:pageshadow="2"
     inkscape:window-width="1360"
     inkscape:window-height="740"
     id="namedview15"
     showgrid="false"
     inkscape:zoom="9.8333333"
     inkscape:cx="10.220339"
     inkscape:cy="12"
     inkscape:window-x="0"
     inkscape:window-y="0"
     inkscape:window-maximized="1"
     inkscape:current-layer="g6" />
  <g
     clip-path="url(#clip0)"
     id="g6">
    <path
       d="M18.353 8.14703C18.158 7.95203 17.841 7.95203 17.646 8.14703L11 14.793L7.35299 11.147C7.15799 10.952 6.84098 10.952 6.64598 11.147C6.45098 11.342 6.45098 11.659 6.64598 11.854L10.646 15.854C10.744 15.951 10.8719 16.0001 11 16.0001C11.128 16.0001 11.2559 15.9511 11.353 15.854L18.353 8.85405C18.548 8.659 18.548 8.34203 18.353 8.14703Z"
       fill="#3387EB"
       id="path2" />
    <path
       d="M22.143 3.021L12.143 0.0210035C12.049 -0.00698084 11.95 -0.00698084 11.856 0.0210035L1.85602 3.021C1.64498 3.084 1.5 3.279 1.5 3.50002V14.5C1.5 18.922 8.24198 22.855 11.852 23.978C11.9 23.993 11.95 24 12 24C12.05 24 12.1 23.993 12.148 23.978C15.758 22.854 22.5 18.922 22.5 14.5V3.50002C22.5 3.279 22.355 3.08499 22.143 3.021ZM21.5 14.5C21.5 18.011 15.937 21.703 12 22.976C8.06302 21.703 2.49998 18.011 2.49998 14.5V3.87202L12 1.02202L21.5 3.87202V14.5Z"
       fill="black"
       id="path4"
       style="fill:#ffffff" />
  </g>
  <defs
     id="defs11">
    <clipPath
       id="clip0">
      <rect
         width="24"
         height="24"
         fill="white"
         id="rect8" />
    </clipPath>
  </defs>
</svg>
