<?xml version="1.0" encoding="utf-8"?>
<!-- Generator: Adobe Illustrator 19.0.0, SVG Export Plug-In . SVG Version: 6.00 Build 0)  -->
<svg version="1.1" id="Layer_1" xmlns="http://www.w3.org/2000/svg" xmlns:xlink="http://www.w3.org/1999/xlink" x="0px" y="0px"
	 viewBox="0 0 100 100" style="enable-background:new 0 0 100 100;" xml:space="preserve">
<style type="text/css">
	.st0{fill:#58CEF2;}
	.st1{fill:#193983;}
</style>
<g id="XMLID_65_">
	<g id="XMLID_66_">
		<path id="XMLID_67_" class="st0" d="M78,67.6H63.5c-3.4,0-6.1,2.8-6.1,6.1c0,3.4,2.8,6.1,6.1,6.1H78c3.4,0,6.1-2.8,6.1-6.1
			C84.1,70.3,81.3,67.6,78,67.6z M78,76.2H63.5c-1.4,0-2.5-1.1-2.5-2.5s1.1-2.5,2.5-2.5H78c1.4,0,2.5,1.1,2.5,2.5S79.4,76.2,78,76.2
			z"/>
	</g>
</g>
<g id="XMLID_59_">
	<g id="XMLID_60_">
		<path id="XMLID_61_" class="st1" d="M84.8,56.1H72.6V40.7c0-1-0.8-1.8-1.8-1.8c-1,0-1.8,0.8-1.8,1.8v15.4H32.5
			c-1,0-1.8,0.8-1.8,1.8s0.8,1.8,1.8,1.8h52.3c3,0,5.4,2.4,5.4,5.4v17.3c0,3-2.4,5.4-5.4,5.4H10.5c-3,0-5.4-2.4-5.4-5.4V65.1
			c0-3,2.4-5.4,5.4-5.4h6.9c1,0,1.8-0.8,1.8-1.8s-0.8-1.8-1.8-1.8h-6.9c-5,0-9,4-9,9v17.3c0,5,4,9,9,9h0.7v4c0,1,0.8,1.8,1.8,1.8
			h14.4c1,0,1.8-0.8,1.8-1.8v-4h36.8v4c0,1,0.8,1.8,1.8,1.8h14.4c1,0,1.8-0.8,1.8-1.8v-4h0.7c5,0,9-4,9-9V65.1
			C93.8,60.1,89.8,56.1,84.8,56.1z M25.7,93.6H14.8v-2.2h10.8V93.6z M80.5,93.6H69.7v-2.2h10.8V93.6z"/>
	</g>
</g>
<g id="XMLID_56_">
	<g id="XMLID_57_">
		<path id="XMLID_14_" class="st0" d="M26.4,56.6c-0.3-0.3-0.8-0.5-1.3-0.5c-0.5,0-0.9,0.2-1.3,0.5c-0.3,0.3-0.5,0.8-0.5,1.3
			s0.2,0.9,0.5,1.3c0.3,0.3,0.8,0.5,1.3,0.5c0.5,0,0.9-0.2,1.3-0.5s0.5-0.8,0.5-1.3S26.8,56.9,26.4,56.6z"/>
	</g>
</g>
<g id="XMLID_51_">
	<g id="XMLID_52_">
		<path id="XMLID_53_" class="st0" d="M32.5,67.6c-3.4,0-6.1,2.8-6.1,6.1c0,3.4,2.8,6.1,6.1,6.1s6.1-2.8,6.1-6.1
			C38.7,70.3,35.9,67.6,32.5,67.6z M32.5,76.2c-1.4,0-2.5-1.1-2.5-2.5s1.1-2.5,2.5-2.5c1.4,0,2.5,1.1,2.5,2.5S33.9,76.2,32.5,76.2z"
			/>
	</g>
</g>
<g id="XMLID_46_">
	<g id="XMLID_47_">
		<path id="XMLID_48_" class="st0" d="M17.4,67.6c-3.4,0-6.1,2.8-6.1,6.1c0,3.4,2.8,6.1,6.1,6.1s6.1-2.8,6.1-6.1
			C23.5,70.3,20.8,67.6,17.4,67.6z M17.4,76.2c-1.4,0-2.5-1.1-2.5-2.5s1.1-2.5,2.5-2.5s2.5,1.1,2.5,2.5S18.8,76.2,17.4,76.2z"/>
	</g>
</g>
<g id="XMLID_41_">
	<g id="XMLID_42_">
		<path id="XMLID_43_" class="st0" d="M47.7,67.6c-3.4,0-6.1,2.8-6.1,6.1c0,3.4,2.8,6.1,6.1,6.1c3.4,0,6.1-2.8,6.1-6.1
			C53.8,70.3,51,67.6,47.7,67.6z M47.7,76.2c-1.4,0-2.5-1.1-2.5-2.5s1.1-2.5,2.5-2.5c1.4,0,2.5,1.1,2.5,2.5S49.1,76.2,47.7,76.2z"/>
	</g>
</g>
<g id="XMLID_36_">
	<g id="XMLID_37_">
		<path id="XMLID_38_" class="st0" d="M76.1,16.3c-1.4-1.4-3.3-2.2-5.4-2.2s-3.9,0.8-5.4,2.2c-3,3-3,7.8,0,10.7
			c1.4,1.4,3.3,2.2,5.4,2.2s3.9-0.8,5.4-2.2C79.1,24.1,79.1,19.3,76.1,16.3z M73.6,24.5c-0.7,0.7-1.7,1.2-2.8,1.2s-2.1-0.4-2.8-1.2
			c-1.5-1.5-1.5-4.1,0-5.6c0.7-0.7,1.7-1.2,2.8-1.2s2.1,0.4,2.8,1.2C75.1,20.4,75.1,22.9,73.6,24.5z"/>
	</g>
</g>
<g id="XMLID_33_">
	<g id="XMLID_34_">
		<path id="XMLID_5_" class="st1" d="M81.2,11.2c-0.7-0.7-1.8-0.7-2.6,0s-0.7,1.8,0,2.6c4.4,4.4,4.4,11.5,0,15.8
			c-0.7,0.7-0.7,1.8,0,2.6c0.4,0.4,0.8,0.5,1.3,0.5s0.9-0.2,1.3-0.5C87,26.4,87,17,81.2,11.2z"/>
	</g>
</g>
<g id="XMLID_30_">
	<g id="XMLID_31_">
		<path id="XMLID_4_" class="st1" d="M62.8,13.8c0.7-0.7,0.7-1.8,0-2.6c-0.7-0.7-1.8-0.7-2.6,0c-5.8,5.8-5.8,15.1,0,20.9
			c0.4,0.4,0.8,0.5,1.3,0.5c0.5,0,0.9-0.2,1.3-0.5c0.7-0.7,0.7-1.8,0-2.6C58.5,25.2,58.5,18.1,62.8,13.8z"/>
	</g>
</g>
<g id="XMLID_27_">
	<g id="XMLID_28_">
		<path id="XMLID_3_" class="st1" d="M87.1,5.4c-0.7-0.7-1.8-0.7-2.6,0c-0.7,0.7-0.7,1.8,0,2.6c7.6,7.6,7.6,20,0,27.6
			c-0.7,0.7-0.7,1.8,0,2.6c0.4,0.4,0.8,0.5,1.3,0.5c0.5,0,0.9-0.2,1.3-0.5C96.1,29,96.1,14.4,87.1,5.4z"/>
	</g>
</g>
<g id="XMLID_24_">
	<g id="XMLID_25_">
		<path id="XMLID_2_" class="st1" d="M57,35.5c-7.6-7.6-7.6-20,0-27.6c0.7-0.7,0.7-1.8,0-2.6c-0.7-0.7-1.8-0.7-2.6,0
			c-9,9-9,23.7,0,32.7c0.4,0.4,0.8,0.5,1.3,0.5c0.5,0,0.9-0.2,1.3-0.5C57.7,37.3,57.7,36.2,57,35.5z"/>
	</g>
</g>
<g id="XMLID_21_">
	<g id="XMLID_22_">
		<path id="XMLID_1_" class="st0" d="M72,33.1c-0.3-0.3-0.8-0.5-1.3-0.5s-0.9,0.2-1.3,0.5c-0.3,0.3-0.5,0.8-0.5,1.3s0.2,0.9,0.5,1.3
			s0.8,0.5,1.3,0.5s0.9-0.2,1.3-0.5c0.3-0.3,0.5-0.8,0.5-1.3S72.4,33.4,72,33.1z"/>
	</g>
</g>
</svg>
