<svg width="24" height="24" viewBox="0 0 24 24" fill="none" xmlns="http://www.w3.org/2000/svg">
<path d="M21.1875 11.25H20.8125V6.375C20.8125 6.16875 20.6437 6 20.4375 6H15.9375V2.625C15.9375 1.58906 15.0984 0.75 14.0625 0.75H4.3125C3.27656 0.75 2.4375 1.58906 2.4375 2.625V21.375C2.4375 22.4109 3.27656 23.25 4.3125 23.25H14.0625C15.0984 23.25 15.9375 22.4109 15.9375 21.375V18H20.4375C20.6437 18 20.8125 17.8312 20.8125 17.625V15H21.1875C21.3937 15 21.5625 14.8313 21.5625 14.625V11.625C21.5625 11.4187 21.3937 11.25 21.1875 11.25ZM20.0625 6.75V8.25H8.8125C8.4 8.25 8.0625 7.9125 8.0625 7.5C8.0625 7.0875 8.4 6.75 8.8125 6.75H20.0625ZM11.4375 1.5V1.875C11.4375 2.08125 11.2688 2.25 11.0625 2.25H7.3125C7.10625 2.25 6.9375 2.08125 6.9375 1.875V1.5H11.4375ZM15.1875 21.375C15.1875 21.9984 14.6859 22.5 14.0625 22.5H4.3125C3.68906 22.5 3.1875 21.9984 3.1875 21.375V2.625C3.1875 2.00156 3.68906 1.5 4.3125 1.5H6.1875V1.875C6.1875 2.49844 6.68906 3 7.3125 3H11.0625C11.6859 3 12.1875 2.49844 12.1875 1.875V1.5H14.0625C14.6859 1.5 15.1875 2.00156 15.1875 2.625V6H8.8125C7.98281 6 7.3125 6.67031 7.3125 7.5V16.125C7.3125 17.1609 8.15156 18 9.1875 18H15.1875V21.375ZM20.0625 17.25H9.1875C8.56406 17.25 8.0625 16.7484 8.0625 16.125V8.79375C8.2875 8.92969 8.55 9 8.8125 9H20.0625V11.25H18.1875C17.5641 11.25 17.0625 11.7516 17.0625 12.375V13.875C17.0625 14.4984 17.5641 15 18.1875 15H20.0625V17.25ZM20.8125 14.25H18.1875C17.9812 14.25 17.8125 14.0813 17.8125 13.875V12.375C17.8125 12.1687 17.9812 12 18.1875 12H20.8125V14.25Z" fill="black"/>
<path d="M18.5625 12.75H19.3125V13.5H18.5625V12.75Z" fill="#3387EB"/>
<path d="M12.1875 1.5V1.875C12.1875 2.49844 11.6859 3 11.0625 3H7.3125C6.68906 3 6.1875 2.49844 6.1875 1.875V1.5H6.9375V1.875C6.9375 2.08125 7.10625 2.25 7.3125 2.25H11.0625C11.2688 2.25 11.4375 2.08125 11.4375 1.875V1.5H12.1875Z" fill="#3387EB"/>
</svg>
