<?xml version="1.0" encoding="utf-8"?>
<!-- Generator: Adobe Illustrator 19.0.0, SVG Export Plug-In . SVG Version: 6.00 Build 0)  -->
<svg version="1.1" id="Layer_1" xmlns="http://www.w3.org/2000/svg" xmlns:xlink="http://www.w3.org/1999/xlink" x="0px" y="0px"
	 viewBox="-12 144.4 473 212.6" style="enable-background:new -12 144.4 473 212.6;" xml:space="preserve">
<style type="text/css">
	.st0{fill:#FDFDFD;}
	.st1{fill:#193983;}
	.st2{fill:#273C6B;}
</style>
<path class="st0" d="M346.8,357c-1.6-0.2-3.2-0.5-4.8-0.7c-3-0.2-6-0.9-8.8-2c-2.8-1.2-4.8-3.6-5.4-6.5c-1.9-7.6-4.1-15.1-6.1-22.6
	c-0.2-0.7-0.5-1-1.3-0.9c-0.4,0-0.7,0-1.1,0H20.4c-4.2,0.1-8.3-0.4-12.3-1.5c-10.8-3.3-16.9-10.7-18.9-21.7
	c-0.5-2.8-0.7-5.7-0.7-8.6c-0.1-10.4,0-20.7,0-31.1c0-5.4,0.7-10.8,3-15.8c4.1-8.5,10.9-13.5,20.1-15.3c2.7-0.5,5.5-0.7,8.2-0.7
	c58.9,0,117.8,0,176.6,0h1.3v52.6h30.4v-52.6H272c1.2-3.7,2.3-7.2,3.6-10.6c1.9-4.7,4.6-9.1,7.8-13c0.3-0.4,0.8-0.8,1.3-1.1
	c12.6-6.9,25.7-12.9,39.2-18c8.3-3.1,16.8-5.6,25.4-7.6l1.2-0.3c-0.2-0.5-0.3-0.9-0.5-1.3c-2.7-5.4-5.3-10.9-8.2-16.1
	c-3.6-6.5-0.7-11.4,3.9-14.6c2.4-1.8,5.4-2.7,8.5-2.4c2.2,0.2,4.1,1.5,5,3.5c4.4,8.1,9,16.1,13.4,24.2c1.3,2.4,2.6,3.5,5.5,3.3
	c4.6-0.3,9.3,0.1,13.9,0.1c0.6,0,1.2,0.3,1.4,0.9c1.1,2.2,2.3,4.3,3.3,6.5c0.4,0.9,0.8,1,1.7,0.8c6.3-1.3,12.5-2.6,18.8-3.7
	c9.3-1.7,18.7-3,28.2-2.8c0.7-0.1,1.5,0.4,1.7,1.1c5.9,13.9,9.9,28.5,12.2,43.5c1,6.9,1.6,13.8,1.7,20.8c0.1,0.7-0.3,1.4-0.9,1.8
	c-4.4,3.1-9.3,5.7-14.4,7.6c-8.8,3.4-17.6,6.6-26.5,9.8c-0.8,0.3-1.3,0.5-1.2,1.5c0.1,6.6,0.4,13.2,0.3,19.8
	c-0.3,12.4-1.6,24.7-3.8,36.9c-1,5.7-2.2,11.4-3.4,17c-0.2,0.6-0.5,1.1-1.1,1.4c-14.9,6.4-30.1,12-46,15.5
	c-4.8,1.1-9.7,1.8-14.6,2.7c-0.2,0.1-0.5,0.2-0.7,0.3L346.8,357z M143.5,285c0.1-0.3,0.1-0.7,0.2-1c0-4.8,0-9.7,0-14.5
	c0-0.3-0.1-0.6-0.1-0.9h-37.4v-8.4h37.6v-19.5H83.4V313h60v-19.7H110c-1.1,0-2.3,0-3.5-0.1c-0.1-2-0.1-4-0.2-6c0-0.5-0.1-1-0.2-1.5
	v-0.5h36.3C142.8,285.2,143.2,285.1,143.5,285z M284.7,209.1c0.5,0.6,0.8,0.9,1,1.2c8.5,9,16.4,18.6,23.7,28.7
	c12,16.5,21.2,34.9,27.3,54.4c3.4,11.2,5.8,22.6,7,34.2c0.9,8.2,1.3,16.5,1.2,24.8c0,0.4,0,0.7,0.1,1.3c1.2,0.1,2.5,0.1,3.7,0
	c4.6-0.8,9.1-1.5,13.7-2.5c15.5-3.3,30.3-8.6,44.8-14.8c0.5-0.3,0.9-0.7,1-1.3c2.2-9.6,3.9-19.3,5.1-29.1c1.6-12.9,2.2-26,1.7-39
	c0-1.1-0.1-2.1-0.2-3.3c-22.6,6.9-45.3,13.4-68.6,17.7c-3.8-28-17.8-50.4-37.9-69.8c27.6-12.1,56.5-19.7,85.7-26.8
	c-0.8-1.6-1.6-3-2.3-4.5c-0.3-0.9-1.3-1.5-2.3-1.5c-9.1-0.4-18.2,0.1-27.3,1.5c-11.8,1.9-23.5,4.9-34.7,8.9c-13.7,5-27.1,11-39.9,18
	C286.4,207.8,285.5,208.5,284.7,209.1L284.7,209.1z M65.2,293.3H22.3v-33.1h43v-19.6h-18c-10,0-20.1,0-30.1,0.1
	c-4.3-0.1-8.4,1.4-11.7,4.1c-4.3,3.6-5.9,8.5-5.9,13.9c-0.1,11.7-0.1,23.4,0,35c0,1.9,0.2,3.7,0.5,5.6c1,5.3,3.6,9.5,8.7,11.9
	c3.5,1.5,7.3,2.1,11.1,2h45.3V293.3z M186.4,293.3v-52.6h-23.8V313h58.6v-19.7L186.4,293.3z M298,293.3h-34.8v-52.6h-23.9V313H298
	V293.3z M409.1,240.6v-1.1c0-7.5,0-15.1,0-22.7c0-0.4,0-0.9-0.1-1.3c-0.4-3.2-2.4-5.3-5.7-5.4c-5.7-0.1-11.4-0.3-17.1-0.1
	c-4.8,0.1-6.6,2.3-6.6,7.1c0,7.4,0,14.9,0,22.3c0,0.4,0,0.8,0.1,1.1h9.4v-12.2h10.5v12.2H409.1z M353.6,240.6v-9.9h1.4
	c4.1,0,8.3,0,12.5-0.1c2.9-0.1,4.7-1.5,4.8-4.3c0.2-4,0.2-8.1-0.1-12.1c-0.2-2.5-1.8-3.7-4.2-4c-0.9-0.1-1.8-0.2-2.6-0.2h-20
	c-0.4,0-0.8,0-1.2,0.1v30.5L353.6,240.6z M302,282.3c-8.1-13.8-17.3-27-27.5-39.4c-0.1,0.2-0.2,0.5-0.2,0.8c0,12.5,0,25,0,37.5
	c0,0.9,0.3,1.1,1.2,1.1c8.4,0,16.8,0,25.2,0L302,282.3z M447.2,210c-3.7,0-7.1,0-10.5,0c-0.3,0-0.8,0.4-1,0.8
	c-1.3,2.6-2.6,5.2-3.9,7.8c-0.4,0.9-0.9,1.8-1.4,2.8c-0.3-0.5-0.5-0.8-0.6-1.2c-1.5-3.1-3.1-6.2-4.5-9.4c-0.2-0.6-0.8-1-1.4-0.9
	c-3,0-6.1,0-9.1,0c-0.3,0-0.6,0.1-0.8,0.1l0.6,1.1c3.1,5.2,6.1,10.4,9.3,15.5c1.2,1.8,1.8,3.9,1.7,6c-0.2,2.6,0,5.2,0,7.8h9.8
	c0-3.4,0-6.6,0-9.9c0-0.7,0.2-1.3,0.5-1.9c2.5-4.3,5.1-8.5,7.7-12.7L447.2,210z"/>
<path class="st1" d="M284.7,209.1c0.9-0.7,1.8-1.4,2.7-2c12.8-7,26.2-13,39.9-18c11.3-4.1,22.9-7.1,34.7-8.9
	c9-1.4,18.1-1.9,27.3-1.5c1-0.1,1.9,0.5,2.3,1.5c0.7,1.5,1.5,3,2.3,4.5c-29.1,7.1-58,14.6-85.7,26.8c20.1,19.4,34.1,41.7,37.9,69.8
	c23.3-4.3,46-10.8,68.6-17.7c0.1,1.2,0.2,2.2,0.2,3.3c0.5,13-0.1,26.1-1.7,39c-1.2,9.8-2.9,19.5-5.1,29.1c-0.1,0.5-0.5,1-1,1.3
	c-14.5,6.2-29.3,11.5-44.8,14.8c-4.5,1-9.1,1.7-13.7,2.5c-1.2,0.1-2.5,0.1-3.7,0c0-0.6-0.1-1-0.1-1.3c0.1-8.3-0.3-16.6-1.2-24.8
	c-1.2-11.6-3.6-23.1-7-34.2c-6.1-19.4-15.3-37.8-27.3-54.3c-7.2-10.1-15.2-19.6-23.7-28.6C285.4,210,285.2,209.7,284.7,209.1z
	 M353.2,303.8c0.4,0,0.5-0.1,0.5,0c1.3,0.7,2.5,1.4,3.8,2.1c6.6,3.8,13.8,6.3,21.2,7.4c11.8,1.6,22.5-1.7,32.2-8.4
	c1.1-0.7,1.4-2.1,0.7-3.1c-0.7-1.1-2.1-1.4-3.1-0.7c-1,0.6-1.9,1.2-2.8,1.8c-8.1,4.9-16.8,7.1-26.3,5.9c-6.9-1-13.6-3.4-19.6-6.9
	c-2-1.1-3.9-2.2-5.8-3.4c0-0.2,0.1-0.4,0.2-0.6c1.4-2.3,2.7-4.6,4.1-6.9c0.9-1.4,0.8-2.7-0.3-3.5c-1-0.7-2.5-0.5-3.2,0.6
	c0,0.1-0.1,0.1-0.1,0.2c-1,1.4-2.1,2.9-3,4.4c-3.2,5.4-4,11-1.3,16.8c0.1,0.3,0.3,0.6,0.4,0.9c0.7,1,2.1,1.3,3.1,0.6
	c0.8-0.6,1.2-1.6,0.9-2.5C354.3,306.9,353.8,305.4,353.2,303.8L353.2,303.8z"/>
<path class="st1" d="M106.1,285.3v0.5c0,2.3,0,4.5,0,6.8c0,0.2,0.3,0.5,0.4,0.7c1.2,0,2.3,0.1,3.5,0.1h33.4V313h-60v-72.3h60.3v19.5
	h-37.6v8.3h37.4c0.1,0.3,0.1,0.6,0.1,0.9c0,4.8,0,9.7,0,14.5c0,0.3-0.1,0.7-0.2,1c-12.2,0-24.5,0-36.7,0
	C106.5,285,106.3,285.1,106.1,285.3z"/>
<path class="st1" d="M65.2,293.3v19.8H19.8c-3.8,0.1-7.6-0.5-11.1-2c-5.1-2.3-7.7-6.5-8.7-11.9c-0.3-1.8-0.5-3.7-0.5-5.6
	c0-11.7-0.1-23.4,0-35c0.1-5.4,1.7-10.2,5.9-13.9c3.3-2.7,7.5-4.2,11.8-4.1c10-0.1,20.1-0.1,30.1-0.1h17.9v19.6h-43v33.1L65.2,293.3
	z"/>
<path class="st1" d="M186.4,293.3h34.8V313h-58.6v-72.3h23.8V293.3z"/>
<path class="st1" d="M298,293.3V313h-58.7v-72.3h23.9v52.6L298,293.3z"/>
<path class="st1" d="M409.1,240.6h-9.5v-12.2h-10.5v12.2h-9.4c0-0.4-0.1-0.8-0.1-1.1c0-7.4,0-14.9,0-22.3c0-4.8,1.9-6.9,6.6-7.1
	c5.7-0.2,11.4-0.1,17.1,0.1c3.3,0.1,5.3,2.2,5.7,5.4c0.1,0.4,0.1,0.9,0.1,1.3c0,7.6,0,15.1,0,22.7L409.1,240.6z M399.5,218.4h-10.4
	v3.6h10.4V218.4z"/>
<path class="st1" d="M353.6,240.5h-9.5V210c0.5,0,0.9-0.1,1.2-0.1h20c0.9,0,1.8,0.1,2.6,0.2c2.5,0.3,4,1.5,4.2,4
	c0.3,4,0.3,8,0.1,12.1c-0.2,2.8-2,4.2-4.8,4.3c-4.1,0.1-8.3,0.1-12.5,0.1h-1.4L353.6,240.5z M362.8,218.4h-9.2v5.1h9.2V218.4z"/>
<path class="st1" d="M447.2,210l-3.6,6c-2.5,4.2-5.1,8.5-7.6,12.7c-0.3,0.6-0.5,1.2-0.5,1.9c0,3.3,0,6.5,0,9.9h-9.8
	c0-2.6-0.1-5.2,0-7.8c0.1-2.1-0.5-4.3-1.7-6c-3.2-5.1-6.2-10.3-9.3-15.5l-0.6-1.1c0.3-0.1,0.6-0.1,0.8-0.1c3,0,6.1,0,9.1,0
	c0.6-0.1,1.2,0.3,1.4,0.9c1.5,3.1,3,6.2,4.5,9.4c0.2,0.3,0.4,0.7,0.6,1.2c0.5-1,1-1.9,1.4-2.8c1.3-2.6,2.5-5.2,3.9-7.8
	c0.2-0.4,0.6-0.8,1-0.8C440.2,210,443.6,210,447.2,210z"/>
<path class="st2" d="M106.1,285.3c0.2-0.1,0.4-0.2,0.7-0.3c12.2,0,24.5,0,36.7,0c-0.3,0.1-0.7,0.2-1.1,0.2L106.1,285.3z"/>
<path class="st2" d="M106.5,293.2c-0.1-0.2-0.4-0.5-0.4-0.7c0-2.3,0-4.5,0-6.8c0.1,0.5,0.2,1,0.2,1.5
	C106.4,289.2,106.4,291.2,106.5,293.2z"/>
<path class="st0" d="M353.2,303.8c0.5,1.6,1.1,3.1,1.6,4.6c0.4,1.2-0.3,2.4-1.5,2.8c-0.9,0.3-2-0.1-2.5-0.9
	c-0.2-0.3-0.3-0.6-0.4-0.9c-2.7-5.8-2-11.4,1.3-16.8c0.9-1.5,1.9-2.9,3-4.4c0.6-1.1,2-1.5,3.2-0.9c0.1,0,0.1,0.1,0.2,0.1
	c1.1,0.8,1.1,2.2,0.3,3.5c-1.4,2.3-2.8,4.6-4.1,6.9c-0.1,0.2-0.1,0.4-0.2,0.6c1.9,1.1,3.8,2.3,5.8,3.4c6.1,3.5,12.7,5.9,19.6,6.9
	c9.5,1.2,18.2-1,26.3-5.9c1-0.6,1.9-1.2,2.8-1.8c1.1-0.7,2.5-0.4,3.1,0.7c0.7,1.1,0.4,2.5-0.7,3.1l0,0c-9.7,6.7-20.3,9.9-32.2,8.4
	c-7.5-1.1-14.7-3.6-21.2-7.4c-1.3-0.7-2.5-1.4-3.8-2.1C353.7,303.7,353.6,303.7,353.2,303.8z"/>
<path class="st0" d="M399.5,218.4v3.6h-10.4v-3.6H399.5z"/>
<path class="st0" d="M362.8,218.4v5.1h-9.2v-5.1H362.8z"/>
</svg>
