<svg id="Layer_1" data-name="Layer 1" xmlns="http://www.w3.org/2000/svg" viewBox="0 0 40.78 23.76"><defs><style>.cls-1{fill:#fff;}.cls-2{fill:#29abe2;}</style></defs><title>mask</title><path class="cls-1" d="M8.57,30.94l-.72-.86-.23-.27L7,29l-.16-.23-.76-1.08L6,27.53l-.64-1.05-.17-.32-.47-.93-.19-.42-.4-1.16L4,23.24c-.07-.88.32-1.33,1.22-1.28l.23.07.6.91.12.41.44,1.15.18.32.56,1,.28.43.55.82.24.34.75,1,.23.27.84,1.05V21.16l-.07-1.76-.09-.14-.78-.92L8.87,18l-1.14-.37-.33-.15L7,16.56a1.16,1.16,0,0,1,.94-.93l1.25.23.24.1,1,.62.36.31.64.71.25.33a7.33,7.33,0,0,0,2.48-.6l.71-.21,2.2-.67.73-.21,2.32-.7.71-.21,2.2-.66.73-.21,1.46,0,.53.16,1.15.33.41.13,1,.3.56.18,1.24.37.31.09,1.27.38.17,0,1.39.41.53.17,1.15.33.41.13,1,.3c1.36.5,1.37-1.15,2.25-1.42a4.25,4.25,0,0,1,2.28-.78l.39.15.48.67,0,.62-.51.52c-1.55.27-2.65,1-2.68,2.73v9.45a22.42,22.42,0,0,0,3.31-4.64l1-2.49.57-.65a1.29,1.29,0,0,1,1.12.23l.21.3a3.26,3.26,0,0,1-.25,1.69l-.35.92L41.74,29a26.31,26.31,0,0,1-5.56,5.59l-3.59,2L31.54,37l-2.08.65-.72.15L27,38.12l-.63.07-1.57,0h-.52l-1.47-.1-.5-.06L21,37.85l-.52-.11-1.26-.31-.32-.09-1.26-.4-.31-.12-1-.41L16,36.28l-1.3-.6-.31-.18-1-.55-.32-.2-.93-.59-.3-.2L11,33.38l-.28-.23-.89-.85-.17-.18-.77-.83Z" transform="translate(-3.97 -14.46)"/><path class="cls-2" d="M34.74,20.2l.11.53a1.19,1.19,0,0,1-1,.95H15.08l-.51-.06a1,1,0,0,1,.19-2H33.58l.53,0Z" transform="translate(-3.97 -14.46)"/><path class="cls-2" d="M15.06,33.11l-.44-.27-.73-.66-.09-.31a1,1,0,0,1,1.12-1.1l1.68.87.92.45.44.2,1.14.45.43.16,1.25.34.42.1,1.25.23.53.07,1.46.1H25l1.67-.12.72-.12,2.1-.58.84-.32,3.35-1.81.62,0,.58.56.07.5c-.16.83-1,1-1.49,1.45L32.29,34,29.67,35l-.73.2-1.88.37-.72.08-1.58.08h-.52l-1.47-.11-.52-.08L21,35.34l-.53-.11-1.15-.31-.42-.12-1.15-.41-.31-.13-1.15-.5-.42-.21Z" transform="translate(-3.97 -14.46)"/><path class="cls-2" d="M34.57,24.84l.18.2c.58,1.6-.87,1.57-1.67,2.05a5.77,5.77,0,0,1-.81.34l-.84.25-2,.5-.63.1-1.77.21-.6,0L25,28.57l-.64,0-1.45-.07-.53-.07L21,28.26l-.43-.08L19.21,28l-.42-.1-1.26-.3L15.45,27l-1-.43-.32-.21-.25-1,.66-.68,1.24.22.43.13,1.15.34.42.11,1.35.33.43.09,1.24.23.54.08,1.35.18.53,0,1.46.09h.53l1.56,0,.63-.06,1.78-.24.73-.17,2.31-.71.91-.37A1.31,1.31,0,0,1,34.57,24.84Z" transform="translate(-3.97 -14.46)"/></svg>