<?xml version="1.0" encoding="utf-8"?>
<!-- Generator: Adobe Illustrator 23.0.1, SVG Export Plug-In . SVG Version: 6.00 Build 0)  -->
<svg version="1.1" id="Layer_1" xmlns="http://www.w3.org/2000/svg" xmlns:xlink="http://www.w3.org/1999/xlink" x="0px" y="0px"
	 viewBox="0 0 48 48" style="enable-background:new 0 0 48 48;" xml:space="preserve">
<style type="text/css">
	.st0{fill:none;stroke:#000000;stroke-miterlimit:10;}
	.st1{fill:#193983;}
</style>
<g>
	<path class="st0" d="M8.6,30.9c-0.2-0.3-0.5-0.6-0.7-0.9c-0.1-0.1-0.2-0.2-0.2-0.3C7.4,29.5,7.2,29.3,7,29
		c-0.1-0.1-0.1-0.1-0.2-0.2c-0.3-0.4-0.5-0.7-0.8-1.1C6,27.6,6,27.6,6,27.5c-0.2-0.3-0.4-0.7-0.6-1c-0.1-0.1-0.1-0.2-0.2-0.3
		c-0.2-0.3-0.3-0.6-0.5-0.9c-0.1-0.1-0.1-0.3-0.2-0.4c-0.1-0.4-0.3-0.8-0.4-1.2c0-0.1-0.1-0.3-0.1-0.4c-0.1-0.9,0.3-1.3,1.2-1.3
		C5.3,22,5.4,22,5.4,22c0.2,0.3,0.4,0.6,0.6,0.9c0,0.1,0.1,0.3,0.1,0.4c0.1,0.4,0.3,0.8,0.4,1.1c0.1,0.1,0.1,0.2,0.2,0.3
		c0.2,0.3,0.4,0.7,0.6,1c0.1,0.1,0.2,0.3,0.3,0.4c0.2,0.3,0.4,0.6,0.5,0.8c0.1,0.1,0.2,0.2,0.2,0.3c0.3,0.3,0.5,0.7,0.8,1
		c0.1,0.1,0.2,0.2,0.2,0.3c0.3,0.3,0.5,0.6,0.8,1c0-0.7,0-1.3,0-1.8c0-0.2,0-0.3,0-0.5c0-0.5,0-1,0-1.6c0-0.2,0-0.3,0-0.5
		c0-0.5,0-1,0-1.6c0-0.2,0-0.3,0-0.5c0-0.5,0-1,0-1.6c0-0.2,0-0.3,0-0.5c0-0.6,0-1.2-0.1-1.8c0,0-0.1-0.1-0.1-0.1
		c-0.3-0.3-0.5-0.6-0.8-0.9C9.1,18.2,9,18.1,8.9,18c-0.4-0.1-0.8-0.3-1.1-0.4c-0.1,0-0.2-0.1-0.3-0.1c-0.1-0.3-0.3-0.6-0.4-0.9
		c0.1-0.5,0.5-0.8,0.9-0.9c0.4,0.1,0.8,0.2,1.2,0.2c0.1,0,0.2,0.1,0.2,0.1c0.3,0.2,0.6,0.4,1,0.6c0.1,0.1,0.2,0.2,0.4,0.3
		c0.2,0.2,0.4,0.5,0.6,0.7c0.1,0.1,0.2,0.2,0.2,0.3c0.9,0.1,1.7-0.4,2.5-0.6c0.2-0.1,0.5-0.1,0.7-0.2c0.7-0.2,1.5-0.4,2.2-0.7
		c0.2-0.1,0.5-0.1,0.7-0.2c0.8-0.2,1.5-0.5,2.3-0.7c0.2-0.1,0.5-0.1,0.7-0.2c0.7-0.2,1.5-0.4,2.2-0.7c0.2-0.1,0.5-0.1,0.7-0.2
		c0.5,0,1,0,1.5,0c0.2,0.1,0.4,0.1,0.5,0.2c0.4,0.1,0.8,0.2,1.1,0.3c0.1,0,0.3,0.1,0.4,0.1c0.3,0.1,0.7,0.2,1,0.3
		c0.2,0.1,0.4,0.1,0.6,0.2c0.4,0.1,0.8,0.2,1.2,0.4c0.1,0,0.2,0.1,0.3,0.1c0.4,0.1,0.8,0.3,1.3,0.4c0.1,0,0.1,0,0.2,0.1
		c0.5,0.1,0.9,0.3,1.4,0.4c0.2,0.1,0.4,0.1,0.5,0.2c0.4,0.1,0.8,0.2,1.1,0.3c0.1,0,0.3,0.1,0.4,0.1c0.3,0.1,0.7,0.2,1,0.3
		c1.4,0.5,1.4-1.2,2.2-1.4c0.7-0.5,1.4-0.7,2.3-0.8c0.1,0.1,0.3,0.1,0.4,0.2c0.2,0.2,0.3,0.4,0.5,0.7c0,0.2,0,0.4,0,0.6
		c-0.2,0.2-0.3,0.3-0.5,0.5c-1.6,0.3-2.7,1-2.7,2.7c0,0.5,0,1,0,1.6c0,0.2,0,0.4,0,0.5c0,0.5,0,1,0,1.6c0,0.2,0,0.4,0,0.5
		c0,0.5,0,1,0,1.6c0,0.2,0,0.4,0,0.5c0,0.5,0,1,0,1.6c0,0.5,0,1,0,1.6c1.3-1.5,2.5-2.9,3.3-4.6c0.3-0.8,0.7-1.7,1-2.5
		c0.2-0.2,0.4-0.4,0.6-0.6c0.4-0.1,0.8,0,1.1,0.2c0.1,0.1,0.1,0.2,0.2,0.3c0.2,0.6-0.1,1.1-0.3,1.7c-0.1,0.3-0.2,0.6-0.3,0.9
		c-0.8,1.3-1.6,2.6-2.4,3.9c-1.6,2.1-3.3,4.1-5.6,5.6c-1.2,0.7-2.4,1.4-3.6,2c-0.4,0.1-0.7,0.3-1.1,0.4c-0.7,0.2-1.4,0.4-2.1,0.6
		c-0.2,0.1-0.5,0.1-0.7,0.2c-0.6,0.1-1.2,0.2-1.8,0.3c-0.2,0-0.4,0-0.6,0.1c-0.5,0-1,0-1.6,0c-0.2,0-0.3,0-0.5,0
		c-0.5,0-1-0.1-1.5-0.1c-0.2,0-0.3,0-0.5-0.1c-0.4-0.1-0.8-0.1-1.3-0.2c-0.2,0-0.3-0.1-0.5-0.1c-0.4-0.1-0.8-0.2-1.3-0.3
		c-0.1,0-0.2-0.1-0.3-0.1c-0.4-0.1-0.8-0.3-1.3-0.4c-0.1,0-0.2-0.1-0.3-0.1c-0.3-0.1-0.7-0.3-1-0.4c-0.1,0-0.2-0.1-0.3-0.1
		c-0.4-0.2-0.9-0.4-1.3-0.6c-0.1-0.1-0.2-0.1-0.3-0.2c-0.3-0.2-0.7-0.4-1-0.6c-0.1-0.1-0.2-0.1-0.3-0.2c-0.3-0.2-0.6-0.4-0.9-0.6
		C12,34.1,11.9,34,11.8,34c-0.3-0.2-0.6-0.4-0.8-0.6c-0.1-0.1-0.2-0.1-0.3-0.2c-0.3-0.3-0.6-0.6-0.9-0.9c-0.1-0.1-0.1-0.1-0.2-0.2
		c-0.3-0.3-0.5-0.6-0.8-0.8C8.8,31.2,8.7,31.1,8.6,30.9z"/>
	<g>
		<path class="st1" d="M34.7,20.2c0,0.2,0.1,0.3,0.1,0.5c-0.1,0.5-0.4,0.8-0.9,1c-0.2,0-0.3,0-0.5,0c-0.5,0-1,0-1.6,0
			c-0.2,0-0.3,0-0.5,0c-0.5,0-1,0-1.6,0c-0.2,0-0.3,0-0.5,0c-0.5,0-1,0-1.6,0c-0.2,0-0.3,0-0.5,0c-0.5,0-1,0-1.6,0
			c-0.2,0-0.3,0-0.5,0c-0.5,0-1,0-1.6,0c-0.2,0-0.3,0-0.5,0c-0.5,0-1,0-1.6,0c-0.2,0-0.3,0-0.5,0c-0.5,0-1,0-1.6,0
			c-0.2,0-0.3,0-0.5,0c-0.5,0-1,0-1.6,0c-0.2,0-0.3,0-0.5,0c-0.5,0-1,0-1.6,0c-0.2,0-0.3,0-0.5-0.1c-0.5-0.2-0.8-0.6-0.7-1.1
			c0.1-0.5,0.4-0.8,0.9-0.9c0.2,0,0.4,0,0.6,0c0.5,0,1,0,1.5,0c0.2,0,0.4,0,0.6,0c0.5,0,1,0,1.5,0c0.2,0,0.4,0,0.6,0
			c0.5,0,1,0,1.5,0c0.2,0,0.4,0,0.6,0c0.5,0,1,0,1.5,0c0.2,0,0.4,0,0.6,0c0.5,0,1,0,1.5,0c0.2,0,0.4,0,0.6,0c0.5,0,1,0,1.5,0
			c0.2,0,0.4,0,0.6,0c0.5,0,1,0,1.5,0c0.2,0,0.4,0,0.6,0c1.2,0,2.4,0,3.6,0c0.2,0,0.3,0,0.5,0C34.3,19.8,34.5,20,34.7,20.2z"/>
		<path class="st1" d="M15.1,33.1c-0.1-0.1-0.3-0.2-0.4-0.3c-0.2-0.2-0.5-0.4-0.7-0.7c0-0.1-0.1-0.2-0.1-0.3c0-0.7,0.4-1.1,1.1-1.1
			c0.6,0.3,1.1,0.6,1.7,0.9c0.3,0.1,0.6,0.3,0.9,0.4c0.1,0.1,0.3,0.1,0.4,0.2c0.4,0.1,0.8,0.3,1.1,0.4c0.1,0.1,0.3,0.1,0.4,0.2
			c0.4,0.1,0.8,0.2,1.3,0.3c0.1,0,0.3,0.1,0.4,0.1c0.4,0.1,0.8,0.2,1.2,0.2c0.2,0,0.4,0,0.5,0.1c0.5,0,1,0.1,1.5,0.1
			c0.2,0,0.3,0,0.5,0c0.6,0,1.1-0.1,1.7-0.1c0.2,0,0.5-0.1,0.7-0.1c0.7-0.2,1.4-0.4,2.1-0.6c0.3-0.1,0.6-0.2,0.8-0.3
			c1.1-0.6,2.2-1.2,3.3-1.8c0.2,0,0.4,0,0.6,0c0.2,0.2,0.4,0.4,0.6,0.6c0,0.2,0.1,0.3,0.1,0.5c-0.2,0.8-1,1-1.5,1.4
			c-0.4,0.2-0.8,0.4-1.1,0.6c-0.9,0.4-1.7,0.7-2.6,1.1c-0.2,0.1-0.5,0.1-0.7,0.2c-0.6,0.1-1.3,0.2-1.9,0.4c-0.2,0-0.5,0.1-0.7,0.1
			c-0.5,0-1.1,0.1-1.6,0.1c-0.2,0-0.3,0-0.5,0c-0.5,0-1-0.1-1.5-0.1c-0.2,0-0.3-0.1-0.5-0.1c-0.4-0.1-0.8-0.1-1.3-0.2
			c-0.2,0-0.3-0.1-0.5-0.1c-0.4-0.1-0.8-0.2-1.1-0.3c-0.1,0-0.3-0.1-0.4-0.1c-0.4-0.1-0.8-0.3-1.2-0.4c-0.1,0-0.2-0.1-0.3-0.1
			c-0.4-0.2-0.8-0.3-1.2-0.5c-0.1-0.1-0.3-0.1-0.4-0.2C15.6,33.4,15.3,33.3,15.1,33.1z"/>
		<path class="st1" d="M34.6,24.8c0.1,0.1,0.1,0.1,0.2,0.2c0.6,1.6-0.9,1.6-1.7,2.1c-0.2,0.1-0.5,0.2-0.8,0.3
			c-0.3,0.1-0.6,0.2-0.8,0.2c-0.7,0.2-1.3,0.3-2,0.5c-0.2,0-0.4,0.1-0.6,0.1c-0.6,0.1-1.2,0.1-1.8,0.2c-0.2,0-0.4,0-0.6,0
			c-0.5,0-1,0-1.5,0.1c-0.2,0-0.4,0-0.6,0c-0.5,0-1,0-1.5-0.1c-0.2,0-0.4,0-0.5-0.1c-0.5,0-0.9-0.1-1.4-0.1c-0.1,0-0.3-0.1-0.4-0.1
			c-0.5-0.1-0.9-0.2-1.4-0.2c-0.1,0-0.3-0.1-0.4-0.1c-0.4-0.1-0.8-0.2-1.3-0.3c-0.7-0.2-1.4-0.4-2.1-0.5c-0.3-0.1-0.7-0.3-1-0.4
			c-0.1-0.1-0.2-0.1-0.3-0.2c-0.1-0.3-0.2-0.7-0.3-1c0.2-0.2,0.4-0.5,0.7-0.7c0.4,0.1,0.8,0.1,1.2,0.2c0.1,0,0.3,0.1,0.4,0.1
			c0.4,0.1,0.8,0.2,1.1,0.3c0.1,0,0.3,0.1,0.4,0.1c0.5,0.1,0.9,0.2,1.4,0.3c0.1,0,0.3,0.1,0.4,0.1c0.4,0.1,0.8,0.2,1.2,0.2
			c0.2,0,0.4,0.1,0.5,0.1c0.5,0.1,0.9,0.1,1.4,0.2c0.2,0,0.3,0,0.5,0c0.5,0,1,0.1,1.5,0.1c0.2,0,0.3,0,0.5,0c0.5,0,1,0,1.6,0
			c0.2,0,0.4,0,0.6-0.1c0.6-0.1,1.2-0.2,1.8-0.2c0.2-0.1,0.5-0.1,0.7-0.2c0.8-0.2,1.5-0.5,2.3-0.7c0.3-0.1,0.6-0.2,0.9-0.4
			C33.6,24.6,34.1,24.5,34.6,24.8z"/>
	</g>
</g>
</svg>
