<svg width="24" height="24" viewBox="0 0 24 24" fill="none" xmlns="http://www.w3.org/2000/svg">
<path d="M15.9881 7.39369L12.587 5.69316C12.4046 5.60247 12.2037 5.55527 12 5.55527C11.7963 5.55527 11.5954 5.60247 11.4131 5.69316L8.01198 7.39369C7.76506 7.5184 7.5776 7.73587 7.49065 7.99849C7.40371 8.2611 7.42435 8.54747 7.54806 8.7949C7.67177 9.04233 7.88848 9.23067 8.15074 9.31868C8.413 9.4067 8.69944 9.38722 8.94737 9.26452L11.9578 7.75917C11.9709 7.7527 11.9852 7.74933 11.9998 7.74933C12.0144 7.74933 12.0287 7.7527 12.0418 7.75917L15.0525 9.26456C15.3004 9.38727 15.5869 9.40674 15.8491 9.31873C16.1114 9.23071 16.3281 9.04238 16.4518 8.79495C16.5755 8.54752 16.5961 8.26115 16.5092 7.99853C16.4222 7.73592 16.2348 7.51845 15.9879 7.39373L15.9881 7.39369ZM15.7665 8.49319C15.7264 8.55309 15.6659 8.59634 15.5963 8.61484C15.5266 8.63334 15.4526 8.62582 15.3881 8.59369L12.3773 7.0883C12.2601 7.03004 12.1309 6.99972 12 6.99972C11.869 6.99972 11.7399 7.03004 11.6226 7.0883L8.61194 8.59364C8.54742 8.62576 8.47341 8.63328 8.40375 8.61478C8.33409 8.59628 8.27355 8.55304 8.23347 8.49314C8.2102 8.45824 8.19463 8.41879 8.18777 8.37741C8.18092 8.33603 8.18294 8.29366 8.19371 8.25312C8.20448 8.21258 8.22374 8.1748 8.25023 8.14227C8.27671 8.10975 8.30981 8.08323 8.34733 8.06447L11.7484 6.36394C11.8266 6.32509 11.9127 6.30487 11.9999 6.30487C12.0872 6.30487 12.1733 6.32509 12.2515 6.36394L15.6526 8.06447C15.6901 8.08323 15.7232 8.10975 15.7497 8.14227C15.7762 8.1748 15.7954 8.21258 15.8062 8.25312C15.817 8.29366 15.819 8.33603 15.8121 8.37741C15.8053 8.41879 15.7897 8.45824 15.7664 8.49314L15.7665 8.49319Z" fill="#3387EB"/>
<path d="M9.54625 10.8336C10.3058 10.4448 11.1468 10.2421 12 10.2421C12.8532 10.2421 13.6943 10.4448 14.4538 10.8336C14.5422 10.8781 14.6445 10.8859 14.7386 10.8552C14.8327 10.8245 14.9108 10.7579 14.956 10.6699C15.0012 10.5819 15.0098 10.4795 14.9798 10.3852C14.9499 10.2909 14.8839 10.2123 14.7962 10.1664C13.9307 9.72334 12.9723 9.4923 12 9.4923C11.0277 9.4923 10.0693 9.72334 9.20378 10.1664C9.15957 10.1886 9.12021 10.2194 9.08796 10.257C9.05571 10.2945 9.0312 10.3381 9.01587 10.3851C9.00053 10.4322 8.99466 10.4818 8.99859 10.5311C9.00253 10.5805 9.01619 10.6285 9.03879 10.6726C9.06139 10.7166 9.09248 10.7557 9.13027 10.7877C9.16806 10.8196 9.21181 10.8438 9.25898 10.8588C9.30615 10.8737 9.35582 10.8792 9.40513 10.8749C9.45443 10.8706 9.50239 10.8566 9.54625 10.8336Z" fill="#3387EB"/>
<path d="M14.4538 16.5414C13.6943 16.9302 12.8532 17.1329 12 17.1329C11.1468 17.1329 10.3058 16.9302 9.54625 16.5414C9.50239 16.5184 9.45443 16.5044 9.40513 16.5001C9.35582 16.4958 9.30615 16.5013 9.25898 16.5162C9.21181 16.5312 9.16806 16.5554 9.13027 16.5873C9.09248 16.6193 9.06139 16.6584 9.03879 16.7024C9.01619 16.7465 9.00253 16.7945 8.99859 16.8439C8.99466 16.8932 9.00053 16.9428 9.01587 16.9899C9.0312 17.0369 9.05571 17.0805 9.08796 17.118C9.12021 17.1556 9.15957 17.1864 9.20378 17.2086C10.0693 17.6517 11.0277 17.8827 12 17.8827C12.9723 17.8827 13.9307 17.6517 14.7962 17.2086C14.8839 17.1627 14.9499 17.0841 14.9798 16.9898C15.0098 16.8954 15.0012 16.7931 14.956 16.7051C14.9108 16.6171 14.8327 16.5505 14.7386 16.5198C14.6445 16.4891 14.5422 16.4969 14.4538 16.5414Z" fill="#3387EB"/>
<path d="M14.5219 13.1394C13.2071 13.5135 11.8256 13.5906 10.4774 13.3653C10.3574 12.1098 9.76247 11.2121 8.99991 11.2121H7.5C6.64486 11.2121 6 12.3406 6 13.8371C6 15.3335 6.64486 16.4621 7.5 16.4621H9C9.79898 16.4621 10.4142 15.4768 10.4916 14.1269C11.9065 14.3433 13.3514 14.2525 14.728 13.8606C14.8237 13.8332 14.9045 13.769 14.9528 13.682C15.0011 13.5951 15.0128 13.4925 14.9855 13.3969C14.9581 13.3012 14.8939 13.2204 14.8069 13.1721C14.72 13.1238 14.6174 13.1121 14.5218 13.1394H14.5219ZM8.98594 13.4621H9.73341C9.74409 13.5815 9.75014 13.7064 9.75014 13.8371C9.75014 13.9677 9.74409 14.0927 9.73341 14.2121H8.98594C8.99508 14.0902 9 13.965 9 13.8371C9 13.7092 8.99494 13.5844 8.98594 13.4621ZM9.58387 12.7121H8.865C8.80029 12.4501 8.70098 12.1979 8.56969 11.9621H9C9.1875 11.9621 9.42656 12.2366 9.58373 12.7121H9.58387ZM7.50014 11.9621C7.80595 11.9621 8.25014 12.6925 8.25014 13.8371C8.25014 14.9817 7.80595 15.7121 7.50014 15.7121C7.19433 15.7121 6.75014 14.9817 6.75014 13.8371C6.75014 12.6925 7.19419 11.9621 7.5 11.9621H7.50014ZM9.00014 15.7121H8.57002C8.70131 15.4763 8.80062 15.2241 8.86533 14.9621H9.58406C9.42656 15.4376 9.1875 15.7121 9 15.7121H9.00014Z" fill="#3387EB"/>
<path d="M20.9903 9.06094C20.9836 9.05784 20.9768 9.05503 20.9699 9.05236L19.343 8.4262C19.1944 8.27976 19.038 8.14139 18.8746 8.01169L17.9203 7.25564C17.3919 6.26704 16.5617 5.47289 15.5506 4.98877L14.1653 4.32853C13.4895 4.00442 12.7495 3.83616 12 3.83616C11.2505 3.83616 10.5106 4.00442 9.8348 4.32853L8.44927 4.98877C7.43822 5.47289 6.60805 6.26704 6.0796 7.25564L5.12541 8.01169C4.96199 8.14139 4.80564 8.27976 4.65704 8.4262L3.03015 9.05236C3.02325 9.05503 3.01641 9.05784 3.00966 9.06094C2.33361 9.36824 1.76072 9.86429 1.35986 10.4894C0.959006 11.1146 0.747251 11.8422 0.750058 12.5848C0.752865 13.3274 0.970115 14.0534 1.37569 14.6755C1.78126 15.2976 2.35789 15.7893 3.03624 16.0914L4.58804 16.7827C4.81204 17.0322 5.05483 17.2641 5.31427 17.4765L6.71644 18.6237C8.20715 19.8433 10.0739 20.5097 12 20.5097C13.9261 20.5097 15.7929 19.8433 17.2836 18.6237L18.6857 17.4765C18.9547 17.2564 19.2058 17.0153 19.4366 16.7554L20.9638 16.0914C21.6421 15.7893 22.2187 15.2976 22.6243 14.6755C23.0299 14.0534 23.2471 13.3274 23.25 12.5848C23.2528 11.8422 23.041 11.1146 22.6401 10.4894C22.2393 9.86429 21.6664 9.36824 20.9903 9.06094ZM3.34144 15.4064C2.7959 15.1634 2.33201 14.7682 2.00541 14.2682C1.6788 13.7682 1.50333 13.1846 1.50003 12.5874C1.49674 11.9902 1.66576 11.4047 1.98683 10.9011C2.3079 10.3975 2.76739 9.99723 3.31022 9.74822L3.74649 9.58027C3.06449 10.706 2.79211 12.0326 2.9754 13.3359C2.98218 13.3833 2.98951 13.4305 2.99738 13.4777C3.12028 14.2152 3.36837 14.9262 3.73093 15.58L3.34144 15.4064ZM18.2109 16.896L16.8087 18.0432C15.452 19.1532 13.753 19.7597 12.0001 19.7597C10.2472 19.7597 8.54818 19.1532 7.19147 18.0432L5.78907 16.896C4.69796 16.0035 3.96865 14.7447 3.73711 13.3542C3.73011 13.3124 3.72361 13.2705 3.71761 13.2286C3.46641 11.488 4.1843 9.71423 5.59107 8.59955L6.60779 7.79395C6.64983 7.76062 6.68425 7.71866 6.70871 7.67091C7.15909 6.79524 7.88367 6.09103 8.77182 5.66578L10.1573 5.00555C10.7324 4.72948 11.3621 4.58616 11.9999 4.58616C12.6378 4.58616 13.2675 4.72948 13.8425 5.00555L15.228 5.66578C16.1162 6.09103 16.8407 6.79524 17.2911 7.67091C17.3156 7.71866 17.35 7.76062 17.392 7.79395L18.4088 8.59955C19.8155 9.71423 20.5334 11.488 20.2822 13.2286C20.2762 13.2705 20.2697 13.3123 20.2627 13.3542C20.0919 14.3794 19.6491 15.3401 18.9804 16.1359L18.9754 16.1381L18.9765 16.1407C18.7452 16.4155 18.4889 16.6684 18.2109 16.896ZM20.6618 15.405L20.2723 15.5743C20.6332 14.9219 20.8802 14.2129 21.0027 13.4775C21.0106 13.4303 21.0179 13.3831 21.0247 13.3358C21.2079 12.0325 20.9355 10.7059 20.2536 9.58027L20.6899 9.74817C21.2325 9.99707 21.6918 10.3971 22.0128 10.9003C22.3339 11.4036 22.5031 11.9887 22.5001 12.5857C22.4971 13.1826 22.3221 13.766 21.9961 14.266C21.67 14.7661 21.2068 15.1615 20.6618 15.405Z" fill="black"/>
</svg>
