<svg width="24" height="24" viewBox="0 0 24 24" fill="none" xmlns="http://www.w3.org/2000/svg">
<g clip-path="url(#clip0)">
<path d="M23.0106 9.68619C23.0106 9.49084 22.8522 9.33247 22.6569 9.33247H4.52291V9.30889C4.52291 9.26121 4.52041 9.21409 4.51603 9.16754L5.7904 8.74209C5.9757 8.68021 6.07578 8.47987 6.0139 8.29461C5.95203 8.10931 5.75182 8.00918 5.56638 8.07111L5.40216 8.12591L6.86245 5.20213L8.77658 4.56317L7.31629 7.48696L7.07586 7.56723C6.89056 7.6291 6.79048 7.82945 6.85236 8.01475C6.91423 8.20005 7.11448 8.30022 7.29988 8.23825L21.6367 3.45231C21.7257 3.4226 21.7993 3.35879 21.8411 3.27484C21.8831 3.19093 21.8899 3.09378 21.8602 3.00478L21.024 0.499565C20.8963 0.117267 20.4815 -0.0900122 20.0991 0.0376564L1.48905 6.25008C1.10675 6.3777 0.899519 6.79258 1.02714 7.17493L1.60644 8.91027C1.57102 9.03723 1.55168 9.1708 1.55168 9.30889V10.4408C1.55168 10.8198 1.69454 11.1659 1.92898 11.4286V23.269C1.92898 23.6721 2.2569 24 2.66 24H22.2796C22.6826 24 23.0106 23.6721 23.0106 23.269V9.68619ZM22.3031 12.3509H20.8697L22.3031 10.9174V12.3509ZM14.8329 12.3509L17.1439 10.0399H19.1618L16.8508 12.3509H14.8329ZM11.8145 12.3509L14.1255 10.0399H16.1434L13.8324 12.3509H11.8145ZM8.79611 12.3509L11.1071 10.0399H13.125L10.814 12.3509H8.79611ZM5.77771 12.3509L8.08867 10.0399H10.1066L7.79565 12.3509H5.77771ZM7.08822 10.0399L4.77726 12.3509H2.63642V11.871C2.76404 11.9068 2.8984 11.9264 3.0373 11.9264C3.85646 11.9264 4.52291 11.2599 4.52291 10.4408V10.0399H7.08822ZM2.25912 10.4408V9.30889C2.25912 8.8798 2.60821 8.53071 3.0373 8.53071C3.46638 8.53071 3.81548 8.8798 3.81548 9.30889V10.4408C3.81548 10.8699 3.46638 11.219 3.0373 11.219C2.60821 11.219 2.25912 10.8699 2.25912 10.4408ZM4.45316 8.4427L4.28224 8.49977C4.03879 8.12648 3.63239 7.86902 3.16463 7.82912L3.99931 6.15787L5.9134 5.51892L4.45316 8.4427ZM9.72549 4.24638L11.6396 3.60742L10.1793 6.53121L8.2652 7.17017L9.72549 4.24638ZM14.5027 2.65168L13.0424 5.57546L11.1283 6.21442L12.5886 3.29064L14.5027 2.65168ZM17.3658 1.69589L15.9055 4.61967L13.9914 5.25863L15.4517 2.33484L17.3658 1.69589ZM21.0772 2.89329L19.7175 3.34718L20.6233 1.5336L21.0772 2.89329ZM20.2289 0.74014L18.7686 3.66397L16.8544 4.30293L18.3147 1.37914L20.2289 0.74014ZM1.71307 6.92105L3.05036 6.47466L2.26992 8.03725C2.21063 8.07314 2.15418 8.11318 2.1007 8.15676L1.69817 6.95091C1.69406 6.9386 1.70071 6.92521 1.71307 6.92105ZM22.2796 23.2925H2.66C2.64698 23.2925 2.63642 23.2819 2.63642 23.269V13.0583H18.1293C18.3246 13.0583 18.483 12.8999 18.483 12.7046C18.483 12.5092 18.3246 12.3509 18.1293 12.3509H17.8513L20.1622 10.0399H22.1802L19.8692 12.3509H19.6386C19.4432 12.3509 19.2848 12.5092 19.2848 12.7046C19.2848 12.8999 19.4432 13.0583 19.6386 13.0583H22.3031V23.269C22.3031 23.282 22.2925 23.2925 22.2796 23.2925Z" fill="black"/>
<path d="M19.6385 16.1239H5.30111C5.10576 16.1239 4.94739 16.2822 4.94739 16.4776C4.94739 16.6729 5.10576 16.8313 5.30111 16.8313H19.6385C19.8338 16.8313 19.9922 16.6729 19.9922 16.4776C19.9922 16.2822 19.8338 16.1239 19.6385 16.1239Z" fill="#3387EB"/>
<path d="M19.6385 19.5196H5.30111C5.10576 19.5196 4.94739 19.6779 4.94739 19.8733C4.94739 20.0686 5.10576 20.227 5.30111 20.227H19.6385C19.8338 20.227 19.9922 20.0686 19.9922 19.8733C19.9922 19.6779 19.8338 19.5196 19.6385 19.5196Z" fill="#3387EB"/>
</g>
<defs>
<clipPath id="clip0">
<rect width="24" height="24" fill="white"/>
</clipPath>
</defs>
</svg>
