<?xml version="1.0" encoding="utf-8"?>
<!-- Generator: Adobe Illustrator 19.0.0, SVG Export Plug-In . SVG Version: 6.00 Build 0)  -->
<svg version="1.1" id="Layer_1" xmlns="http://www.w3.org/2000/svg" xmlns:xlink="http://www.w3.org/1999/xlink" x="0px" y="0px"
	 viewBox="0 0 100 100" style="enable-background:new 0 0 100 100;" xml:space="preserve">
<style type="text/css">
	.st0{fill:#58CEF2;stroke-width:0.9}
	.st1{fill:#ffffff;stroke-width:0.9}
	.st2{fill:#ffffff;stroke-width:0.9}
</style>
<g id="XMLID_13_">
	<path id="XMLID_52_" class="st0" d="M94.8,42.3c-0.3,0.3-0.5,0.7-0.8,0.9c-6.3,6.3-12.6,12.6-18.9,18.9c-0.3,0.3-0.6,0.6-1,0.7
		c-0.9,0.3-1.7-0.5-1.7-1.6c0-2.7,0-5.5,0-8.2c0-0.4,0-0.8,0-1.3c-0.4,0-0.7,0-1,0c-14.9,0-29.8,0-44.7,0c-1.5,0-1.9-0.4-1.9-1.9
		c0-2.4,0-4.7,0-6.9c-5.3,5.3-10.7,10.7-15.9,15.9c5.2,5.2,10.6,10.6,15.9,15.9c0-2.4,0-4.9,0-7.5c0.9,0,1.8,0,2.7,0
		c0,0.2,0.1,0.4,0.1,0.6c0,3.4,0,6.7,0,10.1c0,0.8-0.2,1.4-0.9,1.7c-0.7,0.3-1.2-0.1-1.7-0.6c-6.3-6.3-12.7-12.7-19-19
		c-0.3-0.3-0.5-0.6-0.8-0.9c0-0.2,0-0.5,0-0.7c0.3-0.4,0.6-0.8,0.9-1.1c6.2-6.2,12.5-12.5,18.7-18.7c0.5-0.5,1.1-1,1.9-0.7
		c0.8,0.4,0.9,1.1,0.9,1.8c0,3,0,6.1,0,9.2c0.4,0,0.7,0,1.1,0c14.9,0,29.8,0,44.6,0c1.5,0,1.9,0.4,1.9,1.9c0,2.3,0,4.6,0,6.9
		c0,0,0,0.1,0,0c5.3-5.3,10.7-10.7,15.9-15.9C85.9,36.7,80.6,31.3,75.2,26c0,2.4,0,4.9,0,7.5c-0.9,0-1.8,0-2.7,0
		c0-0.2-0.1-0.5-0.1-0.7c0-3.3,0-6.7,0-10c0-0.7,0.1-1.3,0.9-1.7c0.7-0.3,1.3,0,1.8,0.5c6.3,6.3,12.5,12.6,18.8,18.8
		c0.3,0.3,0.6,0.8,1,1.1C94.8,41.8,94.8,42.1,94.8,42.3z"/>
</g>
<g id="XMLID_12_">
	<path id="XMLID_48_" class="st1" d="M5.2,48.1c0.2-1.4,0.3-2.7,0.5-4.1c2-12.7,8.3-22.8,18.7-30.3c6.7-4.8,14.2-7.5,22.5-8
		c0.3,0,0.6-0.1,0.8-0.2c1.5,0,3,0,4.6,0C53.7,5.7,55,5.8,56.4,6c6,0.8,11.5,2.8,16.7,5.9c2.2,1.3,2.1,0.7,2.1,3.7
		c0,0.3,0,0.6,0,0.9c-0.9,0-1.8,0-2.6,0c0,0-0.1-0.1-0.1-0.1c0.3-1.5-0.6-2.2-1.8-2.8c-7.5-4.2-15.5-5.9-24.1-5.2
		C29.4,9.8,15.2,21.1,9.9,37.5C8.7,41.3,8.1,45.3,8,49.3c0,0.3,0,0.6,0,1.1c-0.9,0-1.8,0-2.7,0C5.2,49.6,5.2,48.8,5.2,48.1z"/>
	<path id="XMLID_49_" class="st1" d="M8.1,50.5H5L5,48c0.1-0.4,0.1-0.9,0.2-1.3c0.1-0.9,0.2-1.9,0.4-2.8c2-12.6,8.3-22.9,18.8-30.4
		c6.7-4.8,14.3-7.5,22.6-8.1c0.2,0,0.4-0.1,0.6-0.1c0.1,0,0.2,0,0.3-0.1l0,0l4.6,0c0.4,0.1,0.9,0.1,1.3,0.2c0.9,0.1,1.9,0.2,2.8,0.4
		c5.9,0.8,11.5,2.8,16.7,5.9c0.4,0.2,0.7,0.4,0.9,0.5c1.3,0.7,1.3,0.8,1.3,2.9l0,1.6h-2.9l-0.1-0.1c0,0,0,0,0,0c0,0-0.1-0.1-0.1-0.2
		c0.3-1.4-0.6-2-1.7-2.6c-7.5-4.1-15.5-5.9-24-5.2C29.4,10,15.4,21.1,10.1,37.6c-1.2,3.7-1.8,7.6-1.9,11.7c0,0.2,0,0.4,0,0.7
		c0,0.1,0,0.3,0,0.4L8.1,50.5z M5.4,50.2h2.4c0-0.1,0-0.2,0-0.2c0-0.2,0-0.4,0-0.7c0.1-4.1,0.8-8.1,1.9-11.8
		c2.6-8.1,7.4-15.1,13.9-20.3C30.2,12,38.1,9,46.6,8.3c8.5-0.7,16.6,1.1,24.2,5.3c1.2,0.7,2.2,1.4,1.9,2.9H75l0-1.3c0-2,0-2-1.1-2.6
		c-0.2-0.1-0.5-0.3-0.9-0.5C67.8,9,62.2,7,56.4,6.2c-0.9-0.1-1.9-0.2-2.8-0.4c-0.4-0.1-0.9-0.1-1.3-0.2h-4.5c-0.1,0-0.2,0-0.2,0.1
		c-0.2,0-0.4,0.1-0.6,0.1c-8.3,0.6-15.8,3.3-22.4,8C14.1,21.4,7.8,31.5,5.9,44c-0.1,0.9-0.3,1.9-0.4,2.8c0,0.4-0.1,0.9-0.2,1.3V50.2
		z"/>
</g>
<g id="XMLID_11_">
	<path id="XMLID_44_" class="st2" d="M94.8,52.6c-0.2,1.4-0.3,2.7-0.5,4.1C92.2,70.1,85.3,80.5,74,88c-6.3,4.2-13.3,6.5-20.9,7
		c-0.3,0-0.6,0.1-0.8,0.2c-1.5,0-3,0-4.6,0c-1.4-0.2-2.8-0.3-4.1-0.5c-6.1-0.8-11.7-2.9-16.9-6.1c-0.3-0.2-0.7-0.3-1-0.6
		c-0.4-0.4-0.8-0.8-0.8-1.3c-0.1-0.9,0-1.7,0-2.7c0.9,0,1.8,0,2.7,0c0,0.1,0.1,0.2,0.1,0.3c-0.3,1.3,0.4,1.9,1.5,2.5
		c7.2,4.1,15,5.9,23.2,5.5C70.7,91.4,86,78.9,90.7,61c0.8-3.1,1.2-6.2,1.3-9.4c0-0.4,0-0.7,0-1.2c1,0,1.9,0,2.8,0
		C94.8,51.1,94.8,51.9,94.8,52.6z"/>
	<path id="XMLID_45_" class="st1" d="M52.3,95.3l-4.6,0c-0.4-0.1-0.9-0.1-1.3-0.2c-0.9-0.1-1.9-0.2-2.8-0.4c-6-0.8-11.7-2.9-17-6.1
		c-0.1-0.1-0.2-0.1-0.4-0.2c-0.2-0.1-0.5-0.2-0.7-0.4c-0.4-0.4-0.8-0.9-0.9-1.4c-0.1-0.6-0.1-1.2-0.1-1.9c0-0.3,0-0.5,0-0.8v-0.2h3
		l0,0.1c0,0,0,0,0,0.1c0,0.1,0.1,0.2,0,0.3c-0.2,1.1,0.3,1.7,1.4,2.3c7.1,4.1,14.9,5.9,23.1,5.5c18.2-0.9,33.6-13.5,38.3-31.2
		c0.8-3,1.2-6.1,1.3-9.4c0-0.2,0-0.5,0-0.8c0-0.1,0-0.3,0-0.5v-0.2H95l0,2.5c-0.1,0.4-0.1,0.9-0.2,1.3c-0.1,0.9-0.2,1.9-0.4,2.8
		c-2.1,13.4-9,23.9-20.4,31.5c-6.2,4.1-13.3,6.5-21,7c-0.2,0-0.4,0.1-0.6,0.1C52.5,95.3,52.4,95.3,52.3,95.3L52.3,95.3z M47.7,95
		h4.5c0.1,0,0.2,0,0.2-0.1c0.2,0,0.4-0.1,0.6-0.1c7.6-0.5,14.6-2.9,20.8-6.9c11.3-7.5,18.1-18,20.2-31.2c0.1-0.9,0.3-1.9,0.4-2.8
		c0-0.4,0.1-0.9,0.2-1.3v-2.1h-2.4c0,0.1,0,0.2,0,0.3c0,0.3,0,0.5,0,0.8c-0.1,3.3-0.5,6.4-1.3,9.5c-2.3,8.8-7.2,16.5-14.1,22.1
		c-6.9,5.7-15.4,8.9-24.5,9.4C44,92.9,36.1,91.1,28.9,87c-1-0.5-1.9-1.2-1.6-2.7c0,0,0-0.1,0-0.1H25c0,0.2,0,0.4,0,0.7
		c0,0.6,0,1.2,0.1,1.8c0.1,0.4,0.4,0.8,0.8,1.2c0.1,0.1,0.3,0.2,0.5,0.3c0.1,0.1,0.3,0.1,0.4,0.2c5.3,3.2,10.9,5.2,16.8,6
		c0.9,0.1,1.9,0.2,2.8,0.4C46.9,94.9,47.3,94.9,47.7,95z"/>
</g>
<g id="XMLID_10_">
	<path id="XMLID_40_" class="st0" d="M75.1,37.8c0,0.9,0,1.8,0,2.7c-6.5,0-13,0-19.5,0c0-0.9,0-1.8,0-2.7
		C62.2,37.8,68.6,37.8,75.1,37.8z"/>
	<path id="XMLID_41_" class="st1" d="M75.3,40.6H55.5v-3h19.8V40.6z M55.9,40.3H75V38H55.9V40.3z"/>
</g>
<g id="XMLID_9_">
	<path id="XMLID_36_" class="st0" d="M41.5,37.8c0,0.9,0,1.8,0,2.6c-0.9,0-1.7,0-2.7,0c0-0.9,0-1.7,0-2.6
		C39.7,37.8,40.6,37.8,41.5,37.8z"/>
	<path id="XMLID_37_" class="st1" d="M41.7,40.6h-3v-3h3V40.6z M39,40.3h2.3V38H39V40.3z"/>
</g>
<g id="XMLID_8_">
	<path id="XMLID_32_" class="st0" d="M44.5,37.8c0.9,0,1.8,0,2.6,0c0,0.9,0,1.7,0,2.7c-0.9,0-1.7,0-2.6,0
		C44.5,39.6,44.5,38.7,44.5,37.8z"/>
	<path id="XMLID_33_" class="st1" d="M47.3,40.6h-3v-3h3V40.6z M44.7,40.3h2.3V38h-2.3V40.3z"/>
</g>
<g id="XMLID_7_">
	<path id="XMLID_28_" class="st0" d="M50.1,40.4c0-0.9,0-1.7,0-2.6c0.9,0,1.7,0,2.7,0c0,0.8,0,1.7,0,2.6
		C51.9,40.4,51,40.4,50.1,40.4z"/>
	<path id="XMLID_29_" class="st0" d="M52.9,40.6h-3v-3h3V40.6z M50.2,40.3h2.3V38h-2.3V40.3z"/>
</g>
<g id="XMLID_6_">
	<path id="XMLID_24_" class="st0" d="M24.9,62.9c0-0.9,0-1.8,0-2.7c6.5,0,13,0,19.5,0c0,0.9,0,1.8,0,2.7
		C37.8,62.9,31.4,62.9,24.9,62.9z"/>
	<path id="XMLID_25_" class="st0" d="M44.5,63H24.7v-3h19.8V63z M25,62.7h19.1v-2.3H25V62.7z"/>
</g>
<g id="XMLID_5_">
	<path id="XMLID_20_" class="st0" d="M49.9,60.2c0,0.9,0,1.7,0,2.6c-0.9,0-1.7,0-2.6,0c0-0.8,0-1.7,0-2.6
		C48.1,60.2,49,60.2,49.9,60.2z"/>
	<path id="XMLID_21_" class="st1" d="M50.1,63h-3v-3h3V63z M47.5,62.7h2.3v-2.3h-2.3V62.7z"/>
</g>
<g id="XMLID_4_">
	<path id="XMLID_16_" class="st0" d="M55.5,60.2c0,0.9,0,1.8,0,2.6c-0.9,0-1.8,0-2.7,0c0-0.9,0-1.7,0-2.6
		C53.8,60.2,54.6,60.2,55.5,60.2z"/>
	<path id="XMLID_17_" class="st0" d="M55.7,63h-3v-3h3V63z M53.1,62.7h2.3v-2.3h-2.3V62.7z"/>
</g>
<g id="XMLID_3_">
	<path id="XMLID_1_" class="st0" d="M58.5,62.9c0-0.9,0-1.7,0-2.6c0.9,0,1.7,0,2.7,0c0,0.8,0,1.7,0,2.6
		C60.3,62.9,59.4,62.9,58.5,62.9z"/>
	<path id="XMLID_2_" class="st1" d="M61.3,63h-3v-3h3V63z M58.6,62.7h2.3v-2.3h-2.3V62.7z"/>
</g>
</svg>
