<?xml version="1.0" encoding="UTF-8" standalone="no"?>
<svg
   xmlns:dc="http://purl.org/dc/elements/1.1/"
   xmlns:cc="http://creativecommons.org/ns#"
   xmlns:rdf="http://www.w3.org/1999/02/22-rdf-syntax-ns#"
   xmlns:svg="http://www.w3.org/2000/svg"
   xmlns="http://www.w3.org/2000/svg"
   xmlns:sodipodi="http://sodipodi.sourceforge.net/DTD/sodipodi-0.dtd"
   xmlns:inkscape="http://www.inkscape.org/namespaces/inkscape"
   width="24"
   height="32"
   viewBox="0 0 24 32"
   fill="none"
   version="1.1"
   id="svg44"
   sodipodi:docname="transfer.svg"
   inkscape:version="0.92.4 (fd57863, 2020-04-02)">
  <metadata
     id="metadata48">
    <rdf:RDF>
      <cc:Work
         rdf:about="">
        <dc:format>image/svg+xml</dc:format>
        <dc:type
           rdf:resource="http://purl.org/dc/dcmitype/StillImage" />
      </cc:Work>
    </rdf:RDF>
  </metadata>
  <sodipodi:namedview
     pagecolor="#ffffff"
     bordercolor="#666666"
     borderopacity="1"
     objecttolerance="10"
     gridtolerance="10"
     guidetolerance="10"
     inkscape:pageopacity="0"
     inkscape:pageshadow="2"
     inkscape:window-width="1360"
     inkscape:window-height="740"
     id="namedview46"
     showgrid="false"
     inkscape:zoom="7.375"
     inkscape:cx="9.6271186"
     inkscape:cy="16"
     inkscape:window-x="0"
     inkscape:window-y="0"
     inkscape:window-maximized="1"
     inkscape:current-layer="g20" />
  <g
     filter="url(#filter0_d)"
     id="g22">
    <g
       clip-path="url(#clip0)"
       id="g20">
      <path
         d="M11.9779 9.30533C10.3754 9.30533 9.07605 10.6046 9.07605 12.2072C9.07605 13.8099 10.3754 15.1091 11.9779 15.1091C13.5806 15.1091 14.8797 13.8099 14.8797 12.2072C14.8779 10.6055 13.5798 9.30715 11.9779 9.30533ZM11.9779 14.2799C10.8332 14.2799 9.90515 13.3521 9.90515 12.2072C9.90515 11.0625 10.8332 10.1344 11.9779 10.1344C13.1228 10.1344 14.0506 11.0625 14.0506 12.2072C14.0494 13.3515 13.1222 14.2787 11.9779 14.2799Z"
         fill="black"
         id="path2"
         style="fill:#ffffff" />
      <path
         d="M3.27234 8.06168H4.10144V7.23257H2.85779C2.62885 7.23257 2.44324 7.41819 2.44324 7.64713V8.89079H3.27234V8.06168Z"
         fill="black"
         id="path4"
         style="fill:#ffffff" />
      <path
         d="M3.27234 15.5236H2.44324V16.7672C2.44324 16.9964 2.62885 17.1818 2.85779 17.1818H4.10144V16.3527H3.27234V15.5236Z"
         fill="black"
         id="path6"
         style="fill:#ffffff" />
      <path
         d="M0.785065 5.98893V18.4255C0.785065 18.6546 0.970681 18.84 1.19962 18.84H22.7563C22.9854 18.84 23.1708 18.6546 23.1708 18.4255V5.98893C23.1708 5.76 22.9854 5.57438 22.7563 5.57438H1.19962C0.970681 5.57438 0.785065 5.76 0.785065 5.98893ZM1.61417 6.40348H22.3417V18.0109H1.61417V6.40348Z"
         fill="black"
         id="path8"
         style="fill:#ffffff" />
      <path
         d="M21.098 10.1344C19.725 10.1332 18.6121 9.02032 18.6107 7.64713C18.6107 7.41819 18.4253 7.23257 18.1962 7.23257H5.75964C5.53071 7.23257 5.34509 7.41819 5.34509 7.64713C5.34388 9.02032 4.23099 10.1332 2.85779 10.1344C2.62885 10.1344 2.44324 10.32 2.44324 10.549V13.8654C2.44324 14.0945 2.62885 14.2799 2.85779 14.2799C4.23099 14.2814 5.34388 15.3942 5.34509 16.7672C5.34509 16.9964 5.53071 17.1818 5.75964 17.1818H18.1962C18.4253 17.1818 18.6107 16.9964 18.6107 16.7672C18.6121 15.3942 19.725 14.2814 21.098 14.2799C21.3272 14.2799 21.5126 14.0945 21.5126 13.8654V10.549C21.5126 10.32 21.3272 10.1344 21.098 10.1344ZM20.6835 13.4765C19.1817 13.6684 17.9992 14.851 17.8073 16.3527H6.14849C5.9566 14.851 4.77428 13.6684 3.27234 13.4765V10.9378C4.77428 10.7459 5.9566 9.56361 6.14849 8.06168H17.8073C17.9992 9.56361 19.1817 10.7459 20.6835 10.9378V13.4765Z"
         fill="black"
         id="path10"
         style="fill:#ffffff" />
      <path
         d="M21.0981 7.23257H19.8544V8.06168H20.6835V8.89079H21.5126V7.64713C21.5126 7.41819 21.3272 7.23257 21.0981 7.23257Z"
         fill="black"
         id="path12"
         style="fill:#ffffff" />
      <path
         d="M20.6835 16.3527H19.8544V17.1818H21.0981C21.3272 17.1818 21.5126 16.9964 21.5126 16.7672V15.5236H20.6835V16.3527Z"
         fill="black"
         id="path14"
         style="fill:#ffffff" />
      <path
         d="M6.3815 2.5122L6.79605 3.22937C9.61553 1.60355 13.035 1.39668 16.0299 2.67049L14.28 3.54514L14.6507 4.2872L17.138 3.04355C17.2368 2.99497 17.3121 2.90874 17.3473 2.80449C17.3825 2.70004 17.3748 2.58588 17.3258 2.4873L16.0822 0L15.3401 0.370626L16.0447 1.78006C12.8797 0.544098 9.32445 0.813313 6.3815 2.5122Z"
         fill="#3387EB"
         id="path16" />
      <path
         d="M17.1598 21.4878L16.7453 20.7707C13.926 22.3963 10.5068 22.6033 7.51202 21.3295L9.26192 20.4547L8.89129 19.7126L6.40399 20.9563C6.19894 21.0587 6.11574 21.3079 6.21837 21.5127L7.46202 24L8.20388 23.6294L7.49927 22.22C10.6637 23.4551 14.2179 23.1859 17.1598 21.4878Z"
         fill="#3387EB"
         id="path18" />
    </g>
  </g>
  <defs
     id="defs42">
    <filter
       id="filter0_d"
       x="-4"
       y="0"
       width="32"
       height="32"
       filterUnits="userSpaceOnUse"
       color-interpolation-filters="sRGB">
      <feFlood
         flood-opacity="0"
         result="BackgroundImageFix"
         id="feFlood24" />
      <feColorMatrix
         in="SourceAlpha"
         type="matrix"
         values="0 0 0 0 0 0 0 0 0 0 0 0 0 0 0 0 0 0 127 0"
         id="feColorMatrix26" />
      <feOffset
         dy="4"
         id="feOffset28" />
      <feGaussianBlur
         stdDeviation="2"
         id="feGaussianBlur30" />
      <feColorMatrix
         type="matrix"
         values="0 0 0 0 0 0 0 0 0 0 0 0 0 0 0 0 0 0 0.25 0"
         id="feColorMatrix32" />
      <feBlend
         mode="normal"
         in2="BackgroundImageFix"
         result="effect1_dropShadow"
         id="feBlend34" />
      <feBlend
         mode="normal"
         in="SourceGraphic"
         in2="effect1_dropShadow"
         result="shape"
         id="feBlend36" />
    </filter>
    <clipPath
       id="clip0">
      <rect
         width="24"
         height="24"
         fill="white"
         id="rect39" />
    </clipPath>
  </defs>
</svg>
