<svg width="24" height="24" viewBox="0 0 24 24" fill="none" xmlns="http://www.w3.org/2000/svg">
<g clip-path="url(#clip0)">
<path d="M5.89499 7.21399C4.33467 7.21584 2.83883 7.83663 1.73571 8.94013C0.63259 10.0436 0.0123095 11.5397 0.0109863 13.1C0.0109863 15.114 0.968986 17.28 2.85899 19.538C3.13999 19.873 3.41999 20.184 3.68899 20.468C2.46899 20.8 1.73499 21.398 1.73499 22.098C1.73499 23.332 3.87999 24 5.89499 24C7.91199 24 10.055 23.333 10.055 22.096C10.055 21.398 9.32299 20.8 8.10299 20.466C8.64213 19.8993 9.14607 19.3002 9.61199 18.672C9.63943 18.6348 9.65928 18.5925 9.67039 18.5476C9.6815 18.5027 9.68365 18.456 9.67674 18.4103C9.66982 18.3646 9.65396 18.3207 9.63007 18.281C9.60618 18.2414 9.57472 18.2069 9.53749 18.1795C9.50026 18.152 9.45799 18.1322 9.41309 18.1211C9.36819 18.11 9.32154 18.1078 9.27581 18.1147C9.23007 18.1217 9.18615 18.1375 9.14655 18.1614C9.10694 18.1853 9.07243 18.2168 9.04499 18.254C8.44499 19.07 7.79499 19.786 7.22699 20.354C7.16115 20.3876 7.1076 20.4411 7.07399 20.507C6.56599 21.007 6.13799 21.377 5.89599 21.579C5.65599 21.379 5.23499 21.013 4.73299 20.52C4.69751 20.4422 4.63495 20.38 4.55699 20.345C2.96199 18.742 0.714986 15.972 0.714986 13.1C0.716838 11.7267 1.26318 10.4103 2.23422 9.43922C3.20526 8.46818 4.52173 7.92184 5.89499 7.91999C7.26841 7.92158 8.58515 8.4678 9.5564 9.43887C10.5277 10.4099 11.0741 11.7266 11.076 13.1C11.076 14.347 10.651 15.694 9.81299 17.104C9.76525 17.1842 9.75133 17.2801 9.77431 17.3706C9.79728 17.4611 9.85526 17.5387 9.93549 17.5865C10.0157 17.6342 10.1116 17.6481 10.2021 17.6252C10.2926 17.6022 10.3702 17.5442 10.418 17.464C11.322 15.944 11.78 14.476 11.78 13.1C11.7784 11.5397 11.1579 10.0437 10.0546 8.94042C8.95125 7.83711 7.4553 7.21658 5.89499 7.21499V7.21399ZM5.67999 22.311C5.74151 22.3587 5.81715 22.3845 5.89499 22.3845C5.97283 22.3845 6.04846 22.3587 6.10999 22.311C6.15399 22.278 6.74199 21.819 7.52599 21.053C8.71299 21.295 9.35099 21.761 9.35099 22.096C9.35099 22.346 9.00799 22.642 8.45499 22.868C7.77699 23.144 6.86799 23.296 5.89499 23.296C3.78499 23.296 2.43899 22.586 2.43899 22.096C2.43899 21.76 3.07799 21.294 4.26499 21.052C5.05399 21.823 5.64299 22.282 5.67999 22.312V22.311Z" fill="black"/>
<path d="M5.89498 10.54C5.33898 10.54 4.80898 10.716 4.36498 11.048C4.29266 11.1047 4.24538 11.1875 4.23325 11.2786C4.22113 11.3697 4.24512 11.4619 4.3001 11.5356C4.35508 11.6092 4.43668 11.6584 4.52748 11.6727C4.61827 11.687 4.71105 11.6652 4.78598 11.612C5.06199 11.4071 5.38947 11.2828 5.73194 11.253C6.07441 11.2232 6.41844 11.289 6.7257 11.4431C7.03297 11.5973 7.29142 11.8337 7.47226 12.1261C7.65311 12.4184 7.74925 12.7552 7.74998 13.099C7.74919 13.5906 7.55347 14.0619 7.20573 14.4095C6.85799 14.757 6.38663 14.9525 5.89498 14.953C5.60779 14.9526 5.3246 14.8856 5.06768 14.7572C4.81076 14.6289 4.58711 14.4427 4.41431 14.2133C4.24152 13.9839 4.12428 13.7176 4.07182 13.4352C4.01936 13.1528 4.03311 12.8622 4.11198 12.586C4.13303 12.4979 4.11929 12.405 4.0736 12.3268C4.02791 12.2485 3.95381 12.1909 3.86671 12.1659C3.77961 12.1409 3.68623 12.1504 3.606 12.1926C3.52577 12.2347 3.46487 12.3061 3.43598 12.392C3.32728 12.773 3.3084 13.1739 3.38083 13.5634C3.45327 13.9529 3.61504 14.3203 3.85344 14.6367C4.09183 14.9531 4.40036 15.2099 4.75477 15.387C5.10918 15.564 5.49982 15.6564 5.89598 15.657C6.57374 15.6557 7.22335 15.3859 7.7026 14.9066C8.18184 14.4274 8.45166 13.7778 8.45298 13.1C8.45219 12.4216 8.18233 11.7711 7.70259 11.2914C7.22286 10.8117 6.57243 10.5418 5.89398 10.541L5.89498 10.54ZM21.232 10.224C21.412 10.032 21.596 9.825 21.781 9.604C23.246 7.854 23.989 6.172 23.989 4.604C23.9874 3.38343 23.5018 2.21331 22.6388 1.35024C21.7757 0.487164 20.6056 0.0015911 19.385 3.54143e-06C18.4796 -0.00112007 17.594 0.265149 16.8393 0.765408C16.0847 1.26567 15.4946 1.97764 15.143 2.812C15.123 2.85487 15.1119 2.90132 15.1103 2.94858C15.1087 2.99584 15.1166 3.04294 15.1336 3.08707C15.1506 3.1312 15.1763 3.17145 15.2091 3.20543C15.242 3.23941 15.2814 3.26641 15.325 3.28483C15.3685 3.30324 15.4154 3.31269 15.4626 3.31262C15.5099 3.31254 15.5567 3.30294 15.6002 3.28438C15.6437 3.26582 15.683 3.23869 15.7158 3.20461C15.7486 3.17053 15.7741 3.13019 15.791 3.086C16.0889 2.37919 16.589 1.77609 17.2283 1.35234C17.8677 0.928586 18.6179 0.703045 19.385 0.704004C21.535 0.704004 23.285 2.454 23.285 4.604C23.285 7.512 20.232 10.299 19.385 11.015C19.1009 10.7741 18.8257 10.5229 18.56 10.262C18.5258 10.1945 18.4707 10.1398 18.403 10.106C17.188 8.883 15.485 6.78 15.485 4.604C15.485 4.51065 15.4479 4.42111 15.3819 4.3551C15.3159 4.28909 15.2263 4.252 15.133 4.252C15.0396 4.252 14.9501 4.28909 14.8841 4.3551C14.8181 4.42111 14.781 4.51065 14.781 4.604C14.781 6.172 15.524 7.854 16.989 9.604C17.174 9.825 17.359 10.032 17.537 10.224C16.63 10.497 16.107 10.961 16.107 11.52C16.107 11.99 16.489 12.406 17.183 12.689C17.777 12.931 18.559 13.064 19.385 13.064C20.211 13.064 20.993 12.931 21.587 12.689C22.281 12.406 22.663 11.991 22.663 11.519C22.663 10.962 22.138 10.497 21.232 10.224ZM19.385 12.36C17.719 12.36 16.81 11.805 16.81 11.52C16.81 11.334 17.224 10.993 18.106 10.806C18.4442 11.1384 18.7993 11.4532 19.17 11.749C19.2316 11.7965 19.3072 11.8223 19.385 11.8223C19.4628 11.8223 19.5384 11.7965 19.6 11.749C19.629 11.727 20.07 11.383 20.664 10.806C21.057 10.89 21.398 11.012 21.636 11.158C21.839 11.281 21.96 11.416 21.96 11.519C21.96 11.805 21.05 12.36 19.385 12.36Z" fill="black"/>
<path d="M19.385 2.556C18.842 2.55653 18.3214 2.77247 17.9374 3.15643C17.5535 3.54039 17.3375 4.061 17.337 4.604C17.3375 5.147 17.5535 5.66761 17.9374 6.05157C18.3214 6.43553 18.842 6.65147 19.385 6.652C19.928 6.65147 20.4486 6.43553 20.8326 6.05157C21.2165 5.66761 21.4325 5.147 21.433 4.604C21.4325 4.061 21.2165 3.54039 20.8326 3.15643C20.4486 2.77247 19.928 2.55653 19.385 2.556ZM19.385 5.948C19.0286 5.94773 18.6869 5.80605 18.4349 5.55406C18.1829 5.30207 18.0413 4.96037 18.041 4.604C18.041 3.863 18.644 3.26 19.385 3.26C20.126 3.26 20.729 3.863 20.729 4.604C20.729 5.345 20.126 5.948 19.385 5.948ZM14.82 11.167H14.66C14.5429 11.1673 14.426 11.1753 14.31 11.191C14.2213 11.2074 14.1423 11.2573 14.0893 11.3303C14.0363 11.4032 14.0134 11.4938 14.0252 11.5832C14.037 11.6726 14.0827 11.754 14.1528 11.8108C14.2229 11.8675 14.3121 11.8951 14.402 11.888C14.487 11.878 14.573 11.871 14.659 11.871H14.819C14.8652 11.871 14.911 11.8619 14.9537 11.8442C14.9964 11.8265 15.0352 11.8006 15.0679 11.7679C15.1006 11.7352 15.1265 11.6964 15.1442 11.6537C15.1619 11.611 15.171 11.5652 15.171 11.519C15.171 11.4728 15.1619 11.427 15.1442 11.3843C15.1265 11.3416 15.1006 11.3028 15.0679 11.2701C15.0352 11.2374 14.9964 11.2115 14.9537 11.1938C14.911 11.1761 14.8662 11.167 14.82 11.167ZM13.656 21.726H13.655L13.19 21.729C13.1 21.7341 13.0154 21.7734 12.9536 21.839C12.8918 21.9046 12.8575 21.9913 12.8577 22.0814C12.858 22.1716 12.8928 22.2581 12.955 22.3234C13.0172 22.3886 13.102 22.4275 13.192 22.432L13.658 22.43C13.7513 22.4297 13.8408 22.3924 13.9066 22.3262C13.9724 22.26 14.0093 22.1704 14.009 22.077C14.0087 21.9836 13.9714 21.8942 13.9052 21.8284C13.839 21.7626 13.7493 21.7257 13.656 21.726ZM15.238 15.726H14.773C14.7268 15.726 14.681 15.7351 14.6383 15.7528C14.5956 15.7705 14.5568 15.7964 14.5241 15.8291C14.4914 15.8618 14.4655 15.9006 14.4478 15.9433C14.4301 15.986 14.421 16.0318 14.421 16.078C14.421 16.1242 14.4301 16.17 14.4478 16.2127C14.4655 16.2554 14.4914 16.2942 14.5241 16.3269C14.5568 16.3596 14.5956 16.3855 14.6383 16.4032C14.681 16.4209 14.7268 16.43 14.773 16.43H15.238C15.3313 16.43 15.4209 16.3929 15.4869 16.3269C15.5529 16.2609 15.59 16.1714 15.59 16.078C15.59 15.9846 15.5529 15.8951 15.4869 15.8291C15.4209 15.7631 15.3313 15.726 15.238 15.726ZM13.373 11.884C13.3416 11.8499 13.3039 11.8224 13.2619 11.803C13.2198 11.7835 13.1744 11.7725 13.1281 11.7707C13.0819 11.7688 13.0357 11.7761 12.9923 11.7921C12.9488 11.8081 12.909 11.8326 12.875 11.864C12.745 11.985 12.625 12.12 12.521 12.265C12.4705 12.3409 12.4513 12.4334 12.4676 12.523C12.4839 12.6127 12.5344 12.6926 12.6083 12.7458C12.6823 12.7991 12.774 12.8215 12.8642 12.8085C12.9545 12.7955 13.0361 12.748 13.092 12.676C13.169 12.57 13.256 12.471 13.352 12.382C13.3861 12.3506 13.4136 12.3129 13.433 12.2709C13.4525 12.2288 13.4634 12.1834 13.4653 12.1371C13.4672 12.0909 13.4599 12.0447 13.4439 12.0013C13.4279 11.9578 13.4034 11.918 13.372 11.884H13.373ZM15.516 21.718H15.514L15.049 21.72C14.9556 21.7203 14.8662 21.7576 14.8004 21.8238C14.7346 21.89 14.6977 21.9796 14.698 22.073C14.6983 22.1664 14.7356 22.2558 14.8018 22.3216C14.868 22.3874 14.9576 22.4243 15.051 22.424H15.053L15.517 22.422C15.5632 22.4219 15.609 22.4128 15.6517 22.395C15.6943 22.3773 15.7331 22.3513 15.7657 22.3185C15.7984 22.2858 15.8243 22.247 15.8419 22.2042C15.8595 22.1615 15.8686 22.1157 15.8685 22.0695C15.8684 22.0233 15.8593 21.9775 15.8415 21.9348C15.8238 21.8922 15.7978 21.8534 15.765 21.8207C15.7323 21.7881 15.6935 21.7622 15.6507 21.7446C15.608 21.727 15.5622 21.7179 15.516 21.718ZM11.797 21.735H11.795L11.331 21.737C11.2376 21.7371 11.1482 21.7743 11.0822 21.8405C11.0163 21.9066 10.9794 21.9961 10.9795 22.0895C10.9796 22.1829 11.0168 22.2723 11.0829 22.3383C11.1491 22.4042 11.2386 22.4411 11.332 22.441H11.334L11.799 22.439C11.8923 22.4387 11.9818 22.4014 12.0476 22.3352C12.1134 22.269 12.1503 22.1794 12.15 22.086C12.1497 21.9926 12.1124 21.9032 12.0462 21.8374C11.98 21.7716 11.8903 21.7347 11.797 21.735ZM13.633 15.43C13.5217 15.36 13.4179 15.279 13.323 15.188C13.2548 15.1291 13.1666 15.0986 13.0765 15.1028C12.9865 15.107 12.9015 15.1456 12.8391 15.2106C12.7767 15.2756 12.7416 15.3621 12.741 15.4522C12.7404 15.5423 12.7744 15.6292 12.836 15.695C12.964 15.819 13.106 15.93 13.257 16.025C13.296 16.05 13.3397 16.067 13.3853 16.075C13.431 16.083 13.4778 16.0818 13.523 16.0716C13.5682 16.0614 13.6109 16.0423 13.6487 16.0154C13.6865 15.9885 13.7185 15.9544 13.743 15.915C13.7926 15.8361 13.8089 15.7407 13.7883 15.6497C13.7677 15.5588 13.7118 15.4798 13.633 15.43ZM12.768 14.17C12.7442 14.0478 12.7321 13.9235 12.732 13.799V13.779C12.7325 13.7328 12.7239 13.6869 12.7067 13.644C12.6895 13.6011 12.664 13.562 12.6317 13.5289C12.5994 13.4959 12.5609 13.4695 12.5184 13.4513C12.4759 13.4331 12.4302 13.4235 12.384 13.423H12.38C12.2873 13.423 12.1984 13.4595 12.1325 13.5247C12.0666 13.5898 12.029 13.6783 12.028 13.771V13.799C12.028 13.969 12.044 14.139 12.077 14.304C12.0991 14.3912 12.1537 14.4666 12.2296 14.5148C12.3055 14.563 12.397 14.5803 12.4853 14.5632C12.5736 14.546 12.652 14.4957 12.7044 14.4226C12.7568 14.3495 12.7802 14.2591 12.768 14.17ZM17.097 15.726H16.632C16.5858 15.726 16.54 15.7351 16.4973 15.7528C16.4546 15.7705 16.4158 15.7964 16.3831 15.8291C16.3504 15.8618 16.3245 15.9006 16.3068 15.9433C16.2891 15.986 16.28 16.0318 16.28 16.078C16.28 16.1242 16.2891 16.17 16.3068 16.2127C16.3245 16.2554 16.3504 16.2942 16.3831 16.3269C16.4158 16.3596 16.4546 16.3855 16.4973 16.4032C16.54 16.4209 16.5858 16.43 16.632 16.43H17.097C17.1903 16.43 17.2799 16.3929 17.3459 16.3269C17.4119 16.2609 17.449 16.1714 17.449 16.078C17.449 15.9846 17.4119 15.8951 17.3459 15.8291C17.2799 15.7631 17.1903 15.726 17.097 15.726ZM22.747 16.443C22.6114 16.3354 22.4676 16.2384 22.317 16.153C22.2356 16.1071 22.1393 16.0955 22.0492 16.1206C21.9592 16.1457 21.8829 16.2056 21.837 16.287C21.7911 16.3684 21.7795 16.4647 21.8046 16.5548C21.8297 16.6448 21.8896 16.7211 21.971 16.767C22.09 16.834 22.204 16.91 22.311 16.995C22.3471 17.0238 22.3887 17.0452 22.4331 17.0579C22.4776 17.0706 22.5242 17.0744 22.5701 17.069C22.616 17.0636 22.6604 17.0492 22.7008 17.0265C22.7411 17.0039 22.7765 16.9734 22.805 16.937C22.8627 16.8638 22.8891 16.7706 22.8782 16.678C22.8673 16.5854 22.8201 16.5009 22.747 16.443ZM21.44 21.97C21.4271 21.8778 21.3782 21.7944 21.3039 21.7382C21.2297 21.682 21.1363 21.6575 21.044 21.67C20.928 21.6857 20.8111 21.6937 20.694 21.694H20.627C20.5335 21.6943 20.4439 21.7317 20.378 21.798C20.3121 21.8642 20.2752 21.954 20.2755 22.0475C20.2758 22.141 20.3132 22.2305 20.3794 22.2965C20.4457 22.3624 20.5355 22.3993 20.629 22.399H20.696C20.845 22.398 20.994 22.387 21.14 22.367C21.2324 22.3541 21.3159 22.305 21.3722 22.2306C21.4284 22.1562 21.4528 22.0624 21.44 21.97ZM22.994 20.98C22.9296 20.9126 22.8411 20.8735 22.748 20.8713C22.6548 20.869 22.5645 20.9038 22.497 20.968C22.3978 21.0627 22.2915 21.1497 22.179 21.228C22.108 21.2832 22.0608 21.3636 22.0472 21.4525C22.0335 21.5414 22.0544 21.6322 22.1056 21.7062C22.1568 21.7802 22.2344 21.8317 22.3224 21.8503C22.4105 21.8689 22.5023 21.853 22.579 21.806C22.7216 21.7072 22.8563 21.5975 22.982 21.478C23.0155 21.4461 23.0424 21.4079 23.0612 21.3656C23.0799 21.3233 23.0901 21.2777 23.0912 21.2315C23.0923 21.1852 23.0843 21.1392 23.0676 21.0961C23.051 21.0529 23.0259 21.0135 22.994 20.98ZM23.679 19.271C23.5875 19.254 23.493 19.2739 23.4162 19.3264C23.3394 19.3789 23.2865 19.4596 23.269 19.551C23.2433 19.6856 23.2072 19.818 23.161 19.947C23.1325 20.0342 23.1393 20.1291 23.1797 20.2114C23.2202 20.2937 23.2912 20.357 23.3776 20.3878C23.464 20.4186 23.559 20.4144 23.6424 20.3761C23.7258 20.3379 23.7909 20.2686 23.824 20.183C23.882 20.021 23.928 19.853 23.96 19.683C23.9687 19.6375 23.9683 19.5907 23.9589 19.5453C23.9494 19.5 23.9311 19.4569 23.905 19.4187C23.8789 19.3804 23.8455 19.3476 23.8067 19.3223C23.7679 19.297 23.7245 19.2795 23.679 19.271ZM23.888 18.14C23.8401 17.9732 23.7793 17.8103 23.706 17.653C23.6665 17.5684 23.595 17.503 23.5072 17.4711C23.4194 17.4392 23.3226 17.4435 23.238 17.483C23.1534 17.5225 23.0879 17.594 23.0561 17.6818C23.0242 17.7696 23.0285 17.8664 23.068 17.951C23.126 18.074 23.174 18.203 23.212 18.334C23.2409 18.4199 23.3018 18.4913 23.382 18.5334C23.4622 18.5756 23.5556 18.5851 23.6427 18.5601C23.7298 18.5351 23.8039 18.4775 23.8496 18.3992C23.8953 18.321 23.909 18.2281 23.888 18.14ZM18.956 15.726H18.491C18.4448 15.726 18.399 15.7351 18.3563 15.7528C18.3136 15.7705 18.2748 15.7964 18.2421 15.8291C18.2094 15.8618 18.1835 15.9006 18.1658 15.9433C18.1481 15.986 18.139 16.0318 18.139 16.078C18.139 16.1242 18.1481 16.17 18.1658 16.2127C18.1835 16.2554 18.2094 16.2942 18.2421 16.3269C18.2748 16.3596 18.3136 16.3855 18.3563 16.4032C18.399 16.4209 18.4448 16.43 18.491 16.43H18.956C19.0493 16.43 19.1389 16.3929 19.2049 16.3269C19.2709 16.2609 19.308 16.1714 19.308 16.078C19.308 15.9846 19.2709 15.8951 19.2049 15.8291C19.1389 15.7631 19.0493 15.726 18.956 15.726ZM17.375 21.71H17.373L16.909 21.712C16.819 21.7169 16.7344 21.7562 16.6725 21.8217C16.6105 21.8871 16.5761 21.9739 16.5762 22.064C16.5764 22.1541 16.6111 22.2407 16.6731 22.306C16.7352 22.3713 16.82 22.4103 16.91 22.415H16.912L17.377 22.413C17.4703 22.4127 17.5598 22.3754 17.6256 22.3092C17.6914 22.243 17.7283 22.1534 17.728 22.06C17.7277 21.9666 17.6904 21.8772 17.6242 21.8114C17.558 21.7456 17.4683 21.7097 17.375 21.71ZM20.831 15.73C20.781 15.727 20.731 15.726 20.681 15.726H20.351C20.2576 15.726 20.1681 15.7631 20.1021 15.8291C20.0361 15.8951 19.999 15.9846 19.999 16.078C19.999 16.1714 20.0361 16.2609 20.1021 16.3269C20.1681 16.3929 20.2576 16.43 20.351 16.43H20.681C20.726 16.4299 20.771 16.4309 20.816 16.433C20.8622 16.434 20.9082 16.4259 20.9513 16.4091C20.9944 16.3923 21.0337 16.3672 21.0671 16.3352C21.1005 16.3032 21.1272 16.265 21.1458 16.2226C21.1644 16.1803 21.1745 16.1347 21.1755 16.0885C21.1765 16.0423 21.1683 15.9963 21.1516 15.9532C21.1348 15.9101 21.1097 15.8708 21.0777 15.8374C21.0457 15.804 21.0075 15.7773 20.9651 15.7587C20.9228 15.7401 20.8772 15.731 20.831 15.73ZM19.234 21.701L18.768 21.703C18.6746 21.7033 18.5852 21.7406 18.5194 21.8068C18.4536 21.873 18.4167 21.9626 18.417 22.056C18.4173 22.1494 18.4546 22.2388 18.5208 22.3046C18.587 22.3704 18.6766 22.4073 18.77 22.407L19.236 22.405C19.3293 22.4047 19.4188 22.3674 19.4846 22.3012C19.5504 22.235 19.5873 22.1454 19.587 22.052C19.5867 21.9586 19.5494 21.8692 19.4832 21.8034C19.417 21.7376 19.3273 21.7007 19.234 21.701Z" fill="#3387EB"/>
</g>
<defs>
<clipPath id="clip0">
<rect width="24" height="24" fill="white"/>
</clipPath>
</defs>
</svg>
