<?xml version="1.0" encoding="utf-8"?>
<!-- Generator: Adobe Illustrator 19.0.0, SVG Export Plug-In . SVG Version: 6.00 Build 0)  -->
<svg version="1.1" id="Layer_1" xmlns="http://www.w3.org/2000/svg" xmlns:xlink="http://www.w3.org/1999/xlink" x="0px" y="0px"
	 viewBox="0 0 50 50" style="enable-background:new 0 0 50 50;" xml:space="preserve">
<style type="text/css">
	.st0{fill:#010101;}
</style>
<path id="XMLID_3_" class="st0" d="M1.2,46.3h39.4c3.9,0,3.9-3.9,3.9-3.9V30.3H30c-3.8,0-6.8-3.1-6.8-6.8v-5.9
	c0-3.8,3.1-6.8,6.8-6.8h2.8c0.1,0,0.1,0,0.2,0h11.7V7.6c0,0,0-3.9-3.9-3.9H1.2"/>
<path class="st0" d="M46.3,13.6L46.3,13.6L46.3,13.6C46.3,13.6,46.3,13.6,46.3,13.6l-13.4,0c0,0,0,0-0.1,0H30
	c-2.2,0-3.9,1.8-3.9,3.9v5.9c0,2.2,1.8,3.9,3.9,3.9h16.4v0c1.2,0,1.2-1.3,1.2-1.3V14.9C47.6,14.9,47.5,13.7,46.3,13.6z M31.6,22.8
	c-1.2,0-2.2-1-2.2-2.2c0-1.2,1-2.2,2.2-2.2c1.2,0,2.2,1,2.2,2.2C33.9,21.8,32.9,22.8,31.6,22.8z"/>
</svg>
