<?xml version="1.0" encoding="utf-8"?>
<!-- Generator: Adobe Illustrator 19.0.0, SVG Export Plug-In . SVG Version: 6.00 Build 0)  -->
<svg version="1.1" id="Layer_1" xmlns="http://www.w3.org/2000/svg" xmlns:xlink="http://www.w3.org/1999/xlink" x="0px" y="0px"
	 viewBox="0 0 100 100" style="enable-background:new 0 0 100 100;" xml:space="preserve">
<style type="text/css">
	.st0{fill:#193983;stroke:#193983;stroke-width:0.5;stroke-miterlimit:10;}
	.st1{fill:#58CEF2;}
</style>
<g>
	<g>
		<path class="st0" d="M83.1,97.4H16.9V2.6h66.2V97.4z M19,95.3h62V4.7H19L19,95.3z"/>
	</g>
	<g>
		<g>
			<rect id="XMLID_7_" x="32.2" y="64.1" class="st1" width="35.7" height="1.6"/>
			<rect id="XMLID_6_" x="32.2" y="68.3" class="st1" width="35.7" height="1.6"/>
			<rect id="XMLID_5_" x="32.2" y="72.5" class="st1" width="35.7" height="1.6"/>
			<rect id="XMLID_4_" x="32.2" y="76.8" class="st1" width="35.7" height="1.6"/>
		</g>
	</g>
</g>
<path class="st1" d="M38.8,44.1c0,6.2,5,11.2,11.2,11.2s11.2-5,11.2-11.2S50,21.7,50,21.7S38.8,38,38.8,44.1z M58.2,42.1
	c0,0.8-0.6,1.4-1.4,1.4c-0.8,0-1.4-0.6-1.4-1.4s0.6-1.4,1.4-1.4C57.6,40.7,58.2,41.3,58.2,42.1z M50,51c0-0.7,0.5-1.2,1.1-1.3
	c2.1-0.4,3.7-2,4.3-4c0.2-0.6,0.7-1.1,1.3-1.1l0,0c0.9,0,1.6,0.9,1.3,1.8c-0.8,3-3.3,5.4-6.4,6C50.8,52.6,50,51.9,50,51L50,51z"/>
</svg>
