<svg width="522" height="533" viewBox="0 0 522 533" fill="none" xmlns="http://www.w3.org/2000/svg">
<path d="M0.279297 395.281H34.202V533H0.279297V395.281Z" fill="white"/>
<path d="M487.797 395.281H521.72V533H487.797V395.281Z" fill="white"/>
<path d="M37.2705 215.209H87.6725V399.735H37.2705V215.209Z" fill="white"/>
<path d="M138.073 215.209H188.475V399.735H138.073V215.209Z" fill="white"/>
<path d="M238.877 215.209H289.279V399.735H238.877V215.209Z" fill="white"/>
<path d="M339.681 215.209H390.083V399.735H339.681V215.209Z" fill="white"/>
<path d="M440.485 215.209H490.887V399.735H440.485V215.209Z" fill="white"/>
<path d="M15.7871 184.73H513.966V217.836H15.7871V184.73Z" fill="white"/>
<path d="M261.294 129.114L149.539 179.434H380.213L261.294 129.114Z" fill="white"/>
<path d="M0.279297 175.461H521.72V184.731H0.279297V175.461Z" fill="white"/>
<path d="M34.2021 395.281H487.797V427.062H34.2021V395.281Z" fill="white"/>
<path fill-rule="evenodd" clip-rule="evenodd" d="M159.232 427.062H102.048V533H159.232V427.062ZM114.628 515.607V464.37C116.375 460.367 122.081 452.361 130.931 452.361C139.781 452.361 145.099 460.367 146.651 464.37V515.607H114.628Z" fill="white"/>
<path fill-rule="evenodd" clip-rule="evenodd" d="M294.923 427.062H227.077V533H294.923V427.062ZM242.003 515.607V464.37C244.076 460.367 250.845 452.361 261.345 452.361C271.845 452.361 278.154 460.367 279.997 464.37V515.607H242.003Z" fill="white"/>
<path fill-rule="evenodd" clip-rule="evenodd" d="M427.705 427.062H362.768V533H427.705V427.062ZM377.054 515.607V464.37C379.037 460.367 385.517 452.361 395.567 452.361C405.617 452.361 411.656 460.367 413.419 464.37V515.607H377.054Z" fill="white"/>
<path fill-rule="evenodd" clip-rule="evenodd" d="M487.797 427.062H419.951V533H487.797V427.062ZM434.877 515.607V464.37C436.95 460.367 443.719 452.361 454.219 452.361C464.719 452.361 471.028 460.367 472.871 464.37V515.607H434.877Z" fill="white"/>
<path fill-rule="evenodd" clip-rule="evenodd" d="M102.048 427.062H34.2021V533H102.048V427.062ZM49.1281 515.607V464.37C51.2005 460.367 57.9702 452.361 68.4702 452.361C78.9702 452.361 85.2794 460.367 87.1215 464.37V515.607H49.1281Z" fill="white"/>
<path fill-rule="evenodd" clip-rule="evenodd" d="M227.077 427.062H159.231V533H227.077V427.062ZM174.157 515.607V464.37C176.23 460.367 183 452.361 193.5 452.361C204 452.361 210.309 460.367 212.151 464.37V515.607H174.157Z" fill="white"/>
<path fill-rule="evenodd" clip-rule="evenodd" d="M362.767 427.062H294.922V533H362.767V427.062ZM309.848 515.607V464.37C311.92 460.367 318.69 452.361 329.19 452.361C339.69 452.361 345.999 460.367 347.841 464.37V515.607H309.848Z" fill="white"/>
<path d="M260.131 2L314.013 63.5458H260.131L318.358 108.895H260.131V63.5458V2Z" fill="white"/>
<path d="M260.131 180.159V108.895M260.131 63.5458V2L314.013 63.5458H260.131ZM260.131 63.5458L318.358 108.895H260.131M260.131 63.5458V108.895" stroke="white"/>
<rect x="256.655" y="2" width="3.47627" height="141.658" fill="white"/>
</svg>
