<svg width="77" height="81" viewBox="0 0 77 81" fill="none" xmlns="http://www.w3.org/2000/svg">
<path d="M42.7256 30.375V31.375H43.7256H45.1727C48.7229 31.375 54.5204 32.9254 59.4418 35.4838C61.8924 36.7578 64.0644 38.2508 65.61 39.8696C67.1609 41.4939 68 43.1556 68 44.7919V69.6994C68 73.3899 66.6062 75.9058 64.4179 77.5318C62.1859 79.1902 59.0192 80 55.3837 80H21.6215C17.9886 80 14.8204 79.1902 12.5863 77.5315C10.3959 75.9053 9 73.3892 9 69.6994V44.7919C9 43.1555 9.8389 41.4937 11.3894 39.8695C12.9347 38.2508 15.1064 36.7578 17.5569 35.4838C22.4782 32.9255 28.277 31.375 31.8324 31.375H33.622H34.622V30.375V16.9059L42.7256 16.1039V30.375Z" stroke="#3D3D3D" stroke-width="2"/>
<path d="M75.7594 2.10177L75.7601 2.10302C76.2845 3.03871 75.9274 4.24412 74.8428 4.77881L74.8422 4.77908C58.3794 12.9072 30.9295 18 3.20525 18C1.92783 18 1 17.0456 1 15.9943C1 14.941 1.93002 13.9837 3.20525 13.9837C30.1159 13.9837 56.7665 9.13722 72.7481 1.24392C73.8712 0.69017 75.2104 1.11879 75.7594 2.10177Z" stroke="#173D8A" stroke-width="2"/>
<rect x="15" y="47" width="8" height="12" rx="2" stroke="#173D8A" stroke-width="2"/>
<rect x="55" y="47" width="8" height="12" rx="2" stroke="#173D8A" stroke-width="2"/>
</svg>
