<svg width="61" height="63" viewBox="0 0 61 63" fill="none" xmlns="http://www.w3.org/2000/svg">
<path fill-rule="evenodd" clip-rule="evenodd" d="M24.8391 59.4304C24.3653 59.4252 23.8994 59.3211 23.4687 59.1266C23.0383 58.9323 22.6535 58.6525 22.334 58.3072C22.0147 57.9621 21.7662 57.5576 21.5995 57.1185C21.4332 56.6807 21.3506 56.2146 21.3548 55.7463V35.0645C21.3548 34.063 21.7388 33.2248 22.4096 32.6435C23.0692 32.0721 23.9446 31.8011 24.8484 31.8011H36.2995C37.2048 31.8011 38.0813 32.0718 38.7415 32.6433C39.4131 33.2246 39.7972 34.063 39.7972 35.0645V55.7499C39.7972 57.6996 38.3138 59.4305 36.2995 59.4305L24.8391 59.4304ZM22.9613 55.7574C22.9585 56.0435 23.009 56.326 23.1085 56.5882C23.2081 56.8504 23.3539 57.0849 23.5342 57.2798C23.7143 57.4745 23.9248 57.6253 24.1513 57.7276C24.3762 57.8291 24.6145 57.8818 24.8534 57.885H36.2995C37.2589 57.885 38.1906 57.0167 38.1906 55.7499V35.0645C38.1906 34.4621 37.9708 34.0552 37.667 33.7921C37.3518 33.5193 36.881 33.3466 36.2995 33.3466H24.8484C24.2694 33.3466 23.7997 33.519 23.4848 33.7919C23.1812 34.055 22.9614 34.462 22.9614 35.0645L22.9613 55.7574ZM33.0911 25.4261V13.706L28.1882 14.1728V25.4261H25.1441C22.453 25.4261 17.9229 26.576 14.0474 28.514C12.1259 29.475 10.4636 30.5821 9.3037 31.7509C8.1354 32.9282 7.60656 34.0308 7.60656 35.021V54.2677C7.60656 56.895 8.62408 58.6004 10.1629 59.6994C11.7719 60.8486 14.1263 61.4545 16.9418 61.4545H44.0623C46.88 61.4545 49.233 60.8485 50.8402 59.6997C52.3772 58.6012 53.3934 56.8959 53.3934 54.2677V35.021C53.3934 34.031 52.8645 32.9284 51.6959 31.751C50.5357 30.5822 48.8732 29.475 46.9516 28.514C43.0759 26.5759 38.5469 25.4261 35.86 25.4261H33.0911ZM26.5816 12.7727L34.6977 12V23.8807H35.86C41.8936 23.8807 55 28.8662 55 35.021V54.2677C55 60.4181 50.1082 63 44.0623 63H16.9418C10.9 63 6 60.4181 6 54.2677V35.021C6 28.8662 19.1023 23.8807 25.1441 23.8807H26.5816V12.7727Z" fill="#CECECE"/>
<path fill-rule="evenodd" clip-rule="evenodd" d="M59.6413 4.48085C60.8804 3.87211 61.3608 2.43363 60.7089 1.27431C60.0569 0.111119 58.528 -0.338649 57.2813 0.273966C44.772 6.43114 23.7948 10.2503 2.53923 10.2503C1.13998 10.2503 0 11.3127 0 12.6271C0 13.9415 1.13998 15 2.53923 15C24.5687 15 46.4495 10.9715 59.6413 4.48085ZM57.9825 1.68989C45.1703 7.99595 23.9216 11.8292 2.53923 11.8292C1.91797 11.8292 1.58442 12.2784 1.58442 12.6271C1.58442 12.9725 1.9145 13.4211 2.53923 13.4211C24.4364 13.4211 46.0477 9.40827 58.9399 3.06506L58.9407 3.06464C59.4201 2.82913 59.5056 2.36434 59.3267 2.04624L59.3256 2.04428C59.1077 1.6555 58.515 1.42853 57.9825 1.68989Z" fill="#368DEE"/>
<path fill-rule="evenodd" clip-rule="evenodd" d="M17.3 36.7143H13.7C13.2029 36.7143 12.8 37.098 12.8 37.5714V44.4286C12.8 44.902 13.2029 45.2857 13.7 45.2857H17.3C17.7971 45.2857 18.2 44.902 18.2 44.4286V37.5714C18.2 37.098 17.7971 36.7143 17.3 36.7143ZM13.7 35C12.2088 35 11 36.1513 11 37.5714V44.4286C11 45.8487 12.2088 47 13.7 47H17.3C18.7912 47 20 45.8487 20 44.4286V37.5714C20 36.1513 18.7912 35 17.3 35H13.7Z" fill="#368DEE"/>
<path fill-rule="evenodd" clip-rule="evenodd" d="M47.9 36.7143H45.1C44.7134 36.7143 44.4 37.098 44.4 37.5714V44.4286C44.4 44.902 44.7134 45.2857 45.1 45.2857H47.9C48.2866 45.2857 48.6 44.902 48.6 44.4286V37.5714C48.6 37.098 48.2866 36.7143 47.9 36.7143ZM45.1 35C43.9402 35 43 36.1513 43 37.5714V44.4286C43 45.8487 43.9402 47 45.1 47H47.9C49.0598 47 50 45.8487 50 44.4286V37.5714C50 36.1513 49.0598 35 47.9 35H45.1Z" fill="#368DEE"/>
</svg>
