<svg width="41" height="39" viewBox="0 0 41 39" fill="none" xmlns="http://www.w3.org/2000/svg">
<path d="M22 21.6C22 20.3446 20.4346 19.474 19.5469 18.5863C18.6592 17.6986 17.4553 17.2 16.1999 17.2H6.73331C5.47796 17.2 4.27402 17.6986 3.38635 18.5863C2.49869 19.474 2 20.6779 2 21.9333V24.2999" stroke="#727273" stroke-width="2" stroke-linecap="round" stroke-linejoin="round"/>
<path d="M11.4667 12.4666C14.0808 12.4666 16.2 10.3474 16.2 7.73331C16.2 5.11918 14.0808 3 11.4667 3C8.85257 3 6.7334 5.11918 6.7334 7.73331C6.7334 10.3474 8.85257 12.4666 11.4667 12.4666Z" stroke="#727273" stroke-width="2" stroke-linecap="round" stroke-linejoin="round"/>
<path d="M39.1722 34.8803H4.11408C3.91733 34.8803 3.75635 35.0399 3.75635 35.2349V37.7173C3.75635 37.9123 3.91733 38.0719 4.11408 38.0719H39.1722C39.369 38.0719 39.5299 37.9123 39.5299 37.7173V35.2349C39.5299 35.0399 39.369 34.8803 39.1722 34.8803ZM6.15765 29.3305L7.93291 31.0814C8.07154 31.2189 8.29959 31.2189 8.43822 31.0814L18.9333 20.7132L23.2977 25.0263C23.5666 25.2904 23.9298 25.4386 24.3083 25.4386C24.6868 25.4386 25.05 25.2904 25.3189 25.0263L37.1331 13.3593C37.2717 13.2219 37.2717 12.9958 37.1331 12.8584L35.3578 11.103C35.2906 11.037 35.1998 11 35.1052 11C35.0106 11 34.9198 11.037 34.8525 11.103L24.3127 21.52L19.9439 17.2069C19.675 16.9428 19.3118 16.7947 18.9333 16.7947C18.5548 16.7947 18.1916 16.9428 17.9227 17.2069L6.15765 28.8296C6.1242 28.8623 6.09764 28.9013 6.07952 28.9443C6.06139 28.9873 6.05206 29.0335 6.05206 29.0801C6.05206 29.1267 6.06139 29.1728 6.07952 29.2158C6.09764 29.2588 6.1242 29.2978 6.15765 29.3305Z" fill="#173D8A"/>
<rect x="3.51465" y="34.4337" width="36.7404" height="3.86742" fill="#848484"/>
</svg>
