<svg width="30" height="24" viewBox="0 0 30 24" fill="none" xmlns="http://www.w3.org/2000/svg">
<path d="M4.73684 0L25.2632 0C26.5194 0 27.7243 0.493485 28.6126 1.37189C29.5009 2.2503 30 3.44168 30 4.68394V18.7358C30 19.978 29.5009 21.1694 28.6126 22.0478C27.7243 22.9262 26.5194 23.4197 25.2632 23.4197H4.73684C3.48055 23.4197 2.27572 22.9262 1.38739 22.0478C0.499059 21.1694 0 19.978 0 18.7358L0 4.68394C0 3.44168 0.499059 2.2503 1.38739 1.37189C2.27572 0.493485 3.48055 0 4.73684 0ZM4.73684 1.56131C3.89932 1.56131 3.09609 1.8903 2.50387 2.47591C1.91165 3.06151 1.57895 3.85577 1.57895 4.68394L1.57895 6.24525L28.4211 6.24525V4.68394C28.4211 3.85577 28.0883 3.06151 27.4961 2.47591C26.9039 1.8903 26.1007 1.56131 25.2632 1.56131L4.73684 1.56131ZM1.57895 18.7358C1.57895 19.5639 1.91165 20.3582 2.50387 20.9438C3.09609 21.5294 3.89932 21.8584 4.73684 21.8584H25.2632C26.1007 21.8584 26.9039 21.5294 27.4961 20.9438C28.0883 20.3582 28.4211 19.5639 28.4211 18.7358V10.9292L1.57895 10.9292L1.57895 18.7358ZM4.73684 17.1744H11.0526V18.7358H4.73684V17.1744ZM14.2105 17.1744H18.9474V18.7358H14.2105V17.1744ZM1.57895 7.80656V9.36788L28.4211 9.36788V7.80656L1.57895 7.80656Z" fill="#6186A3"/>
<path d="M13.8862 16.8389H19.0158V19.015H13.8862V16.8389Z" fill="#6186A3"/>
<path d="M4.40381 16.8389H11.7095V19.015H4.40381V16.8389Z" fill="#6186A3"/>
<path d="M1.50293 5.85547L28.5496 5.85547V8.03163L1.50293 8.03163L1.50293 5.85547Z" fill="#6186A3"/>
<path d="M1.50293 8.75684L28.5496 8.75684V10.9848L1.50293 10.9848L1.50293 8.75684Z" fill="#6186A3"/>
</svg>
