<svg width="31" height="30" viewBox="0 0 31 30" fill="none" xmlns="http://www.w3.org/2000/svg">
<path opacity="0.7" d="M31 15C31 23.2843 24.0604 30 15.5 30C6.93959 30 0 23.2843 0 15C0 6.71573 6.93959 0 15.5 0C24.0604 0 31 6.71573 31 15Z" fill="#32465F"/>
<path d="M16.0001 15.5341C15.5686 15.5341 15.1468 15.6529 14.788 15.8754C14.4292 16.098 14.1495 16.4144 13.9844 16.7845C13.8192 17.1546 13.776 17.5619 13.8602 17.9548C13.9444 18.3477 14.1522 18.7086 14.4573 18.9919C14.7625 19.2752 15.1512 19.4681 15.5745 19.5462C15.9977 19.6244 16.4364 19.5843 16.8351 19.431C17.2338 19.2777 17.5745 19.018 17.8143 18.6849C18.054 18.3518 18.182 17.9602 18.182 17.5596C18.182 17.0224 17.9521 16.5072 17.5429 16.1273C17.1338 15.7475 16.5788 15.5341 16.0001 15.5341ZM16.0001 18.2348C15.8563 18.2348 15.7157 18.1952 15.5961 18.121C15.4765 18.0468 15.3833 17.9414 15.3282 17.818C15.2732 17.6946 15.2588 17.5589 15.2868 17.4279C15.3149 17.2969 15.3842 17.1766 15.4859 17.0822C15.5876 16.9878 15.7172 16.9235 15.8582 16.8974C15.9993 16.8714 16.1456 16.8847 16.2785 16.9358C16.4114 16.9869 16.5249 17.0735 16.6049 17.1845C16.6848 17.2955 16.7274 17.4261 16.7274 17.5596C16.7274 17.7387 16.6508 17.9104 16.5144 18.037C16.378 18.1637 16.193 18.2348 16.0001 18.2348ZM10.9091 17.5596C10.9091 17.6932 10.9518 17.8237 11.0317 17.9347C11.1116 18.0458 11.2252 18.1323 11.3581 18.1834C11.491 18.2345 11.6372 18.2479 11.7783 18.2218C11.9194 18.1958 12.049 18.1315 12.1507 18.037C12.2524 17.9426 12.3217 17.8223 12.3497 17.6913C12.3778 17.5604 12.3634 17.4246 12.3083 17.3012C12.2533 17.1779 12.1601 17.0724 12.0405 16.9982C11.9209 16.924 11.7803 16.8844 11.6364 16.8844C11.4435 16.8844 11.2585 16.9556 11.1222 17.0822C10.9858 17.2088 10.9091 17.3805 10.9091 17.5596ZM21.0911 17.5596C21.0911 17.4261 21.0485 17.2955 20.9686 17.1845C20.8886 17.0735 20.7751 16.9869 20.6422 16.9358C20.5093 16.8847 20.363 16.8714 20.222 16.8974C20.0809 16.9235 19.9513 16.9878 19.8496 17.0822C19.7479 17.1766 19.6786 17.2969 19.6505 17.4279C19.6225 17.5589 19.6369 17.6946 19.6919 17.818C19.747 17.9414 19.8402 18.0468 19.9598 18.121C20.0794 18.1952 20.22 18.2348 20.3638 18.2348C20.5567 18.2348 20.7417 18.1637 20.8781 18.037C21.0145 17.9104 21.0911 17.7387 21.0911 17.5596ZM21.8184 12.8334L18.9093 12.8334C18.7164 12.8334 18.5314 12.9045 18.395 13.0311C18.2586 13.1577 18.182 13.3295 18.182 13.5085C18.182 13.6876 18.2586 13.8593 18.395 13.986C18.5314 14.1126 18.7164 14.1837 18.9093 14.1837L21.8184 14.1837C22.0113 14.1837 22.1963 14.2549 22.3327 14.3815C22.4691 14.5081 22.5457 14.6798 22.5457 14.8589L22.5457 20.2603C22.5457 20.4394 22.4691 20.6111 22.3327 20.7378C22.1963 20.8644 22.0113 20.9355 21.8184 20.9355L10.1819 20.9355C9.98897 20.9355 9.80398 20.8644 9.66759 20.7378C9.53119 20.6111 9.45457 20.4394 9.45457 20.2603L9.45457 14.8589C9.45457 14.6798 9.53119 14.5081 9.66759 14.3815C9.80398 14.2549 9.98897 14.1837 10.1819 14.1837L13.091 14.1837C13.2839 14.1837 13.4689 14.1126 13.6053 13.986C13.7417 13.8593 13.8183 13.6876 13.8183 13.5085C13.8183 13.3295 13.7417 13.1577 13.6053 13.0311C13.4689 12.9045 13.2839 12.8334 13.091 12.8334L10.1819 12.8334C9.60319 12.8334 9.04823 13.0468 8.63905 13.4266C8.22987 13.8065 8 14.3217 8 14.8589L8 20.2603C8 20.7975 8.22987 21.3127 8.63905 21.6926C9.04823 22.0725 9.60319 22.2859 10.1819 22.2859L21.8184 22.2859C22.3971 22.2859 22.952 22.0725 23.3612 21.6926C23.7704 21.3127 24.0003 20.7975 24.0003 20.2603L24.0003 14.8589C24.0003 14.3217 23.7704 13.8065 23.3612 13.4266C22.952 13.0468 22.3971 12.8334 21.8184 12.8334Z" fill="white"/>
<path d="M15.5 13C15.5 13.2761 15.7239 13.5 16 13.5C16.2761 13.5 16.5 13.2761 16.5 13L15.5 13ZM16.3536 5.64645C16.1583 5.45118 15.8417 5.45118 15.6464 5.64645L12.4645 8.82843C12.2692 9.02369 12.2692 9.34027 12.4645 9.53553C12.6597 9.7308 12.9763 9.7308 13.1716 9.53553L16 6.70711L18.8284 9.53553C19.0237 9.7308 19.3403 9.7308 19.5355 9.53553C19.7308 9.34027 19.7308 9.02369 19.5355 8.82843L16.3536 5.64645ZM16.5 13L16.5 6L15.5 6L15.5 13L16.5 13Z" fill="white"/>
</svg>
