<svg width="30" height="30" viewBox="0 0 30 30" fill="none" xmlns="http://www.w3.org/2000/svg">
<path d="M30 14.513V14.4706C29.6234 9.54841 27.8661 5.85676 24.8117 3.52295C21.7992 1.14671 18.5356 0.00102678 14.9791 0.00102678C11.2552 -0.041406 7.78243 1.23158 4.68619 3.77755C1.54812 6.28108 0 10.0152 0 14.8525V15.1495C0 20.0293 1.54812 23.6785 4.68619 26.1821C7.82427 28.728 11.2971 30.001 15.0209 30.001H15.1883C18.8285 29.9586 22.1757 28.6856 25.272 26.1396C28.3682 23.6361 29.9582 19.7747 30 14.513ZM15.8996 7.8511V1.14671H16.9038C17.113 1.40131 17.2803 1.69834 17.4477 1.95294C17.6151 2.20753 17.7824 2.46213 17.9498 2.75916C18.1172 3.01376 18.3264 3.35322 18.4519 3.60782C18.6192 3.86241 18.7448 4.11701 18.8703 4.41404C19.1213 4.83837 19.3305 5.2627 19.4979 5.64459C19.7071 6.02649 19.8745 6.40838 20 6.74784C19.749 6.91758 19.4561 7.12974 19.1213 7.25704C18.7448 7.38434 18.3682 7.51164 17.9916 7.5965C17.5732 7.68137 17.1967 7.7238 16.8619 7.76623C16.4854 7.80866 16.1506 7.8511 15.8996 7.8511ZM14.1423 1.14671V7.80866C13.9331 7.80866 13.682 7.8511 13.431 7.80866C13.1799 7.80866 12.887 7.76623 12.636 7.7238C12.1757 7.63893 11.6318 7.51164 11.2134 7.38434C10.7531 7.21461 10.3347 7.00244 10.0418 6.74784C10.5439 5.51729 11.0879 4.54134 11.6318 3.60782C12.1757 2.67429 12.8033 1.86807 13.4728 1.18915V1.14671H14.1423ZM18.6611 1.52861V1.48618C18.954 1.61347 19.2469 1.82564 19.5816 1.95294C19.8745 2.08023 20.251 2.24997 20.5439 2.4197C21.1297 2.71673 21.7155 3.05619 22.3013 3.43808C22.8452 3.81998 23.3891 4.24431 23.8494 4.66864C23.682 4.83837 23.4728 5.0081 23.3054 5.1354C23.1381 5.2627 22.9289 5.43243 22.7197 5.60216C22.5523 5.68702 22.3431 5.81432 22.1339 5.98405C21.9247 6.11135 21.6736 6.28108 21.4226 6.45081C21.0879 5.68702 20.7531 4.8808 20.3347 4.15944C19.9163 3.39565 19.4561 2.67429 18.9958 2.0378C18.954 1.95294 18.9121 1.86807 18.8285 1.7832C18.7866 1.74077 18.7448 1.61347 18.6611 1.52861ZM5.85774 4.66864V4.6262C6.90377 3.81998 7.82427 3.14106 8.74477 2.71673C9.66527 2.2924 10.5858 1.86807 11.4226 1.52861C10.7531 2.20753 10.1674 3.05619 9.79079 3.86241C9.37239 4.71107 8.95398 5.60216 8.61925 6.45081C8.45188 6.36595 8.24268 6.28108 7.99163 6.11135C7.78243 5.98405 7.48954 5.85676 7.23849 5.72946C6.98745 5.55973 6.77824 5.38999 6.5272 5.22026C6.27615 5.0081 6.0251 4.83837 5.85774 4.66864ZM6.56904 14.1312H1.75732C1.75732 12.5611 2.09205 11.076 2.71967 9.54841C3.30544 8.06326 4.14226 6.83271 5.18828 5.77189V5.72946C5.39749 6.06892 5.69038 6.36595 5.98326 6.57811C6.31799 6.79028 6.61088 6.96001 6.94561 7.12974C7.15481 7.25704 7.36402 7.42677 7.57322 7.51164C7.78243 7.63893 8.07531 7.7238 8.28452 7.8511C8.11716 8.19056 7.94979 8.57246 7.78243 8.91192C7.6569 9.29381 7.4477 9.71814 7.36402 10.1C7.11297 10.779 6.94561 11.5003 6.77824 12.2217C6.65272 12.8582 6.56904 13.5371 6.56904 14.1312ZM21.7155 7.8511V7.80866C22.0502 7.63893 22.4268 7.51164 22.7197 7.3419C23.0126 7.12974 23.3054 6.91758 23.5565 6.74784C23.8075 6.62055 24.0586 6.45081 24.2678 6.28108C24.477 6.11135 24.6444 5.94162 24.8117 5.77189C25.8996 6.83271 26.6946 8.02083 27.1967 9.42111C27.7406 10.8214 28.1172 12.3914 28.2845 14.0887H23.1381C23.1381 12.9006 22.9707 11.7549 22.6778 10.6092C22.4268 9.42111 22.0502 8.53002 21.7155 7.8511ZM15.8996 14.0887V9.20895C16.2343 9.25138 16.6527 9.25138 17.0293 9.20895C17.4477 9.16652 17.8661 9.03922 18.2427 8.91192C18.5774 8.82705 18.9958 8.74219 19.3305 8.61489C19.7071 8.53002 20.0837 8.36029 20.3766 8.19056C20.6276 8.61489 20.8368 9.12408 21.0042 9.67571C21.2134 10.1849 21.3389 10.7365 21.4644 11.2457C21.5481 11.7549 21.59 12.3065 21.6318 12.7733C21.6736 13.2401 21.7155 13.7068 21.7155 14.0887H15.8996ZM14.1423 9.29381V14.0887H7.94979C7.94979 13.8341 7.94979 13.5371 7.99163 13.1976C8.07531 12.9006 8.11716 12.5187 8.159 12.1792C8.28452 11.6701 8.41004 11.1184 8.57741 10.6092C8.74477 10.1425 8.91213 9.67571 9.12134 9.29381C9.20502 9.08165 9.2887 8.82705 9.37239 8.65732C9.49791 8.44516 9.62343 8.31786 9.70711 8.19056C10.1674 8.53002 10.795 8.74219 11.5481 8.91192C12.2594 9.08165 13.0962 9.25138 13.8494 9.29381H14.1423ZM23.1381 15.489H28.2845C28.2845 16.2104 28.159 17.0166 27.9498 17.9925C27.7406 19.0109 27.3222 19.9445 26.8619 20.9628C26.6527 21.472 26.4017 21.9812 26.1506 22.4904C25.8577 22.9572 25.523 23.4664 25.1883 23.9331C24.9372 23.7634 24.6862 23.6361 24.477 23.5088C24.2259 23.3815 23.9331 23.2118 23.682 23.0845C23.3891 22.9572 23.0962 22.8299 22.7615 22.6601C22.4686 22.5329 22.0921 22.3631 21.7155 22.1934C22.0502 21.1326 22.4268 20.1142 22.6778 18.9685C22.9707 17.8652 23.1381 16.762 23.1381 15.5314V15.489ZM15.8996 20.4536V15.489H21.7155C21.7155 15.8285 21.6736 16.3377 21.59 16.8469C21.5481 17.356 21.4226 17.9077 21.3389 18.4593C21.1715 19.0534 21.046 19.6474 20.8787 20.1566C20.7113 20.6658 20.5439 21.0901 20.3766 21.472C19.6234 21.175 18.8703 20.9628 18.3682 20.8355C17.8243 20.6658 17.3222 20.5385 16.8201 20.4961H16.3598C16.1925 20.4536 16.0251 20.4536 15.8996 20.4536ZM14.1423 15.489V20.4112C13.8494 20.4536 13.5146 20.4961 13.1799 20.5385C12.8033 20.5809 12.3431 20.6658 11.9665 20.7507L11.3389 20.878C11.1297 20.9628 10.8787 21.0053 10.6695 21.0477C10.4184 21.1326 10.1674 21.175 9.91632 21.2599C9.70711 21.3447 9.49791 21.3872 9.33054 21.472C8.78661 20.0717 8.45188 18.9261 8.24268 17.9501C8.03347 17.0166 7.94979 16.2104 7.94979 15.5314V15.489H14.1423ZM1.75732 15.5314V15.489H6.56904V15.7436C6.61088 16.5498 6.7364 17.4833 6.90377 18.4593C7.07113 19.3928 7.4477 20.4961 7.94979 21.8539C7.28033 22.1934 6.65272 22.5329 6.15063 22.8723C5.64853 23.2118 5.18828 23.5937 4.85356 23.9331C4.14226 23.2118 3.51464 22.2358 2.97071 20.9628C2.42678 19.7323 2.05021 18.4593 1.841 17.1015C1.79916 16.8469 1.79916 16.5923 1.75732 16.3377V15.5314ZM15.8996 28.431V21.8115C16.9456 21.9812 17.8243 22.1934 18.4937 22.3631C19.1632 22.5329 19.6653 22.7026 20 22.8723C19.749 23.5088 19.4979 24.0604 19.2469 24.5696C18.9958 25.0364 18.7029 25.5456 18.4519 25.9699C18.3682 26.1396 18.2008 26.3094 18.0753 26.5215C17.9498 26.6913 17.8661 26.9034 17.7406 27.0732C17.6151 27.2853 17.4895 27.5399 17.364 27.7945C17.1967 28.0067 17.0711 28.2613 16.9038 28.431H15.8996ZM14.1423 28.431H13.1799C12.8033 28.134 12.4268 27.7097 12.1339 27.2429C11.7992 26.7761 11.4226 26.2245 11.1715 25.7577C10.8787 25.2061 10.5858 24.6969 10.3347 24.1877C10.0837 23.6785 9.87448 23.2118 9.70711 22.8723C10.1674 22.7026 10.795 22.5329 11.4226 22.3631C12.0502 22.1934 12.9289 22.0237 14.1423 21.8539V28.431ZM5.85774 24.9515V24.9091C5.94142 24.7818 6.10879 24.6121 6.23431 24.4848C6.35983 24.3575 6.56904 24.1877 6.77824 24.0604C6.94561 23.9331 7.15481 23.8058 7.40586 23.6785C7.6569 23.5512 7.99163 23.3815 8.28452 23.2118C8.45188 23.5512 8.74477 24.1453 9.16318 24.9515C9.53975 25.7577 10.2092 26.7337 11.046 27.7945C10 27.6248 9.0795 27.2429 8.24268 26.7337C7.32218 26.2669 6.5272 25.6304 5.85774 24.9515ZM21.4226 23.5937V23.5512C21.7155 23.721 22.1757 23.9331 22.636 24.1453C23.1381 24.3575 23.682 24.6121 24.1841 24.9515C23.8912 25.2061 23.5983 25.4607 23.3473 25.6304C23.0962 25.8426 22.8033 26.0123 22.5523 26.1821C22.0921 26.4791 21.5481 26.7761 21.0042 27.0307C20.4603 27.2853 19.7908 27.5399 18.954 27.7945C19.2469 27.4551 19.4561 27.0307 19.6653 26.6913C19.8745 26.3518 20.1255 26.0123 20.3347 25.6729C20.5439 25.3334 20.7113 24.9515 20.8787 24.6121C21.0879 24.2726 21.2552 23.9331 21.4226 23.5937Z" fill="#32465F" fill-opacity="0.7"/>
</svg>
