<svg width="30" height="28" viewBox="0 0 30 28" fill="none" xmlns="http://www.w3.org/2000/svg">
<path d="M15 0L30 6V8H28C28 8.27083 27.8932 8.50521 27.6797 8.70312C27.4661 8.90104 27.2135 9 26.9219 9H3.07812C2.78646 9 2.53385 8.90104 2.32031 8.70312C2.10677 8.50521 2 8.27083 2 8H0V6L15 0ZM4 10H6.25V22H10V10H12.5V22H16.649V10H19.375V22H23.125V10H26V22H26.9219C27.2135 22 27.4661 22.099 27.6797 22.2969C27.8932 22.4948 28 22.7292 28 23V24H2V23C2 22.7292 2.10677 22.4948 2.32031 22.2969C2.53385 22.099 2.78646 22 3.07812 22H4V10ZM28.9219 25C29.2135 25 29.4661 25.099 29.6797 25.2969C29.8932 25.4948 30 25.7292 30 26V28H0V26C0 25.7292 0.106771 25.4948 0.320312 25.2969C0.533854 25.099 0.786458 25 1.07812 25H28.9219Z" fill="#32465F" fill-opacity="0.7"/>
</svg>
