<?xml version="1.0" encoding="utf-8"?>
<!-- Generator: Adobe Illustrator 23.0.1, SVG Export Plug-In . SVG Version: 6.00 Build 0)  -->
<svg version="1.1" id="Capa_1" xmlns="http://www.w3.org/2000/svg" xmlns:xlink="http://www.w3.org/1999/xlink" x="0px" y="0px"
	 viewBox="0 0 511.8 511.8" style="enable-background:new 0 0 511.8 511.8;" xml:space="preserve">
<style type="text/css">
	.st0{fill:#193983;}
</style>
<g>
	<g>
		<path class="st0" d="M344.9,149.6v-20.2h7c4.7,0,7.8-3.1,7.8-7.8V88.3c0-4.7-3.1-7.8-7.8-7.8H159.5c-4.7,0-7.8,3.1-7.8,7.8v33.4
			c0,4.7,3.1,7.8,7.8,7.8h7v20.2c0,19.4,7.8,38,20.9,52.8l49.6,54.3l-49.6,54.3c-13.2,14.7-20.9,33.4-20.9,52.8v20.2h-7
			c-4.7,0-7.8,3.1-7.8,7.8V425c0,4.7,3.1,7.8,7.8,7.8h192.4c4.7,0,7.8-3.1,7.8-7.8v-33.4c0-4.7-3.1-7.8-7.8-7.8h-7v-20.2
			c0-19.4-7.8-38-20.9-52.8l-49.6-54.3l49.6-54.3C337.1,187.6,344.9,169,344.9,149.6z M167.2,96h176.9v17.8c-62.1,0-114,0-176.9,0
			L167.2,96L167.2,96z M344.1,417.2H167.2v-17.8c62.1,0,114,0,176.9,0L344.1,417.2L344.1,417.2z M312.3,321.8
			c10.9,11.6,17.1,27.2,17.1,42.7v20.2H182v-20.2c0-15.5,6.2-30.3,17.1-42.7l49.6-54.3c3.9-3.9,10.9-3.9,14.7,0L312.3,321.8z
			 M262.6,245.8c-3.9,3.9-10.9,3.9-14.7,0L199,191.5c-10.9-11.6-17.1-27.2-17.1-42.7v-20.2h147.4v20.2c0,15.5-6.2,30.3-17.1,42.7
			L262.6,245.8z"/>
	</g>
</g>
<g>
	<g>
		<path class="st0" d="M226.2,35.5c-0.8-3.9-4.7-7-9.3-6.2c-104,17.8-181.5,104-190.1,207.9l-13.2-15.5c-3.1-3.1-7.8-3.9-10.9-0.8
			s-3.9,7.8-0.8,10.9l26.4,30.3c1.6,1.6,3.1,2.3,5.4,2.3c1.6,0.8,3.9,0,5.4-1.6l27.9-27.9c3.1-3.1,3.1-7.8,0-10.9s-7.8-3.1-10.9,0
			l-14,14C51.6,140.3,123,61.1,220,44.8C223.8,44.1,226.9,40.2,226.2,35.5z"/>
	</g>
</g>
<g>
	<g>
		<path class="st0" d="M261.1,473.8l-27.9-27.2c-3.1-3.1-7.8-3.1-10.9,0s-3.1,7.8,0,10.9l14,14c-97-9.3-177.6-84.6-192.4-182.3
			c-0.8-3.9-4.7-7-8.5-6.2c-4.7,0.8-7.8,4.7-7,8.5C43.9,396.3,130,476.2,233.9,486.2l-16.3,11.6c-3.1,2.3-3.9,7.8-1.6,10.9
			s7.8,3.9,10.9,1.6l33.4-24.8c1.6-1.6,3.1-3.1,3.1-5.4S262.6,475.4,261.1,473.8z"/>
	</g>
</g>
<g>
	<g>
		<path class="st0" d="M510.1,282.2L483.7,252c-1.6-1.6-3.1-2.3-5.4-2.3s-3.9,0.8-5.4,2.3l-27.9,27.9c-3.1,3.1-3.1,7.8,0,10.9
			s7.8,3.1,10.9,0l14-14c-8.5,98.5-85.3,180.8-183.9,193.9c-3.9,0.8-7,4.7-7,8.5c0.8,3.9,4.7,7,8.5,7
			C394.5,471.5,476,383.1,485.3,276.8l14,15.5c3.1,3.1,7.8,3.9,10.9,0.8C512.4,290,512.4,285.3,510.1,282.2z"/>
	</g>
</g>
<g>
	<g>
		<path class="st0" d="M482.2,224c-14-106.3-101.6-187.7-206.4-197l15.5-13.2c3.1-3.1,3.9-7.8,0.8-10.9s-7.8-3.9-10.9-0.8L251,27.8
			c-2.3,1.6-3.1,3.9-3.1,6.2s0.8,4.7,2.3,6.2l27.9,27.2c3.1,3.1,7.8,3.1,10.9,0s3.1-7.8,0-10.9l-14-14
			c97,9.3,178.4,85.3,192.4,183.9c0.8,3.9,4.7,7,8.5,6.2S482.9,227.9,482.2,224z"/>
	</g>
</g>
</svg>
