<?xml version="1.0" encoding="utf-8"?>
<!-- Generator: Adobe Illustrator 23.0.1, SVG Export Plug-In . SVG Version: 6.00 Build 0)  -->
<svg version="1.1" id="Layer_1" xmlns="http://www.w3.org/2000/svg" xmlns:xlink="http://www.w3.org/1999/xlink" x="0px" y="0px"
	 viewBox="0 0 512 512" style="enable-background:new 0 0 512 512;" xml:space="preserve">
<style type="text/css">
	.st0{fill:#193983;}
</style>
<g>
	<path class="st0" d="M168,472h56c4.4,0,8-3.6,8-8s-3.6-8-8-8h-56c-4.4,0-8,3.6-8,8S163.6,472,168,472z"/>
	<path class="st0" d="M247,472h8c4.4,0,8-3.6,8-8s-3.6-8-8-8h-8c-4.4,0-8,3.6-8,8S242.6,472,247,472z"/>
	<path class="st0" d="M88,288c4.4,0,8-3.6,8-8s-3.6-8-8-8H72c-4.4,0-8,3.6-8,8v24c0,4.4,3.6,8,8,8h8v8h-8c-4.4,0-8,3.6-8,8
		s3.6,8,8,8h16c4.4,0,8-3.6,8-8v-24c0-4.4-3.6-8-8-8h-8v-8H88z"/>
	<path class="st0" d="M232,288c4.4,0,8-3.6,8-8s-3.6-8-8-8h-16c-4.4,0-8,3.6-8,8v24c0,4.4,3.6,8,8,8h8v8h-8c-4.4,0-8,3.6-8,8
		s3.6,8,8,8h16c4.4,0,8-3.6,8-8v-24c0-4.4-3.6-8-8-8h-8v-8H232z"/>
	<path class="st0" d="M136,272c-4.4,0-8,3.6-8,8v40h-8v-40c0-4.4-3.6-8-8-8s-8,3.6-8,8v48c0,4.4,3.6,8,8,8h24c4.4,0,8-3.6,8-8v-48
		C144,275.6,140.4,272,136,272z"/>
	<path class="st0" d="M272,288c4.4,0,8-3.6,8-8s-3.6-8-8-8h-16c-4.4,0-8,3.6-8,8v48c0,4.4,3.6,8,8,8h16c4.4,0,8-3.6,8-8s-3.6-8-8-8
		h-8v-32H272z"/>
	<path class="st0" d="M440,288c4.4,0,8-3.6,8-8s-3.6-8-8-8h-16c-4.4,0-8,3.6-8,8v48c0,4.4,3.6,8,8,8h16c4.4,0,8-3.6,8-8s-3.6-8-8-8
		h-8v-8c0.5,0,1-0.1,1.6-0.2c0.5-0.1,1-0.3,1.5-0.5c0.5-0.2,0.9-0.4,1.4-0.7c0.9-0.6,1.6-1.3,2.2-2.2c0.3-0.4,0.5-0.9,0.7-1.4
		c0.2-0.5,0.4-1,0.5-1.5c0.2-1,0.2-2.1,0-3.1c-0.1-0.5-0.3-1-0.5-1.5c-0.2-0.5-0.4-0.9-0.7-1.4c-0.6-0.9-1.3-1.6-2.2-2.2
		c-0.4-0.3-0.9-0.5-1.4-0.7c-1-0.4-2-0.6-3.1-0.6v-8H440z"/>
	<path class="st0" d="M344,272c-4.4,0-8,3.6-8,8v48c0,4.4,3.6,8,8,8s8-3.6,8-8v-48C352,275.6,348.4,272,344,272z"/>
	<path class="st0" d="M440,240h-56V48c0-22.1-17.9-40-40-40H168c-22.1,0-40,17.9-40,40v192H72c-22.1,0-40,17.9-40,40v48
		c0,22.1,17.9,40,40,40h56v96c0,22.1,17.9,40,40,40h176c22.1,0,40-17.9,40-40v-96h56c22.1,0,40-17.9,40-40v-48
		C480,257.9,462.1,240,440,240z M293.8,24l-4,16h-67.5l-4-16H293.8z M144,48c0-13.2,10.8-24,24-24h33.8l6.5,25.9
		c0.9,3.6,4.1,6.1,7.8,6.1h80c3.7,0,6.9-2.5,7.8-6.1l6.5-25.9H344c13.2,0,24,10.8,24,24v192H144V48z M368,464c0,13.2-10.8,24-24,24
		H168c-13.2,0-24-10.8-24-24v-96h224V464z M464,328c0,13.2-10.8,24-24,24H72c-13.2,0-24-10.8-24-24v-48c0-13.2,10.8-24,24-24h368
		c13.2,0,24,10.8,24,24V328z"/>
	<path class="st0" d="M192,296v-16c0-4.4-3.6-8-8-8h-24c-4.4,0-8,3.6-8,8v48c0,4.4,3.6,8,8,8h32c4.4,0,8-3.6,8-8v-24
		C200,299.6,196.4,296,192,296z M168,288h8v8h-8V288z M184,320h-16v-8h16V320z"/>
	<path class="st0" d="M328,304v-24c0-4.4-3.6-8-8-8h-24c-4.4,0-8,3.6-8,8v48c0,4.4,3.6,8,8,8s8-3.6,8-8v-4.7l10.3,10.4
		c3.1,3.1,8.2,3.1,11.3,0s3.1-8.2,0-11.3L315.3,312h4.7C324.4,312,328,308.4,328,304z M312,296h-8v-8h8V296z"/>
	<path class="st0" d="M400,296v-16c0-4.4-3.6-8-8-8h-24c-4.4,0-8,3.6-8,8v48c0,4.4,3.6,8,8,8h32c4.4,0,8-3.6,8-8v-24
		C408,299.6,404.4,296,400,296z M376,288h8v8h-8V288z M392,320h-16v-8h16V320z"/>
	<path class="st0" d="M299.6,160.8l-80-40c-4-2-8.8-0.4-10.7,3.6c-0.6,1.1-0.8,2.3-0.8,3.6v80c0,4.4,3.6,8,8,8
		c1.2,0,2.5-0.3,3.6-0.8l80-40c4-2,5.6-6.8,3.6-10.7C302.4,162.9,301.1,161.6,299.6,160.8z M224,195.1v-54.1l54.1,27.1L224,195.1z"
		/>
</g>
</svg>
