<svg width="58" height="61" viewBox="0 0 58 61" fill="none" xmlns="http://www.w3.org/2000/svg">
<path fill-rule="evenodd" clip-rule="evenodd" d="M51.3973 27.0847C48.2979 33.7458 44.5798 39.7495 42.0953 43.25L41.0638 42.863L43.8391 18.4087H33.3209L32.698 24.5755L18 12.8102L18.4628 12.3673C25.3343 5.7909 31.8358 1.86583 34.2672 0.710361L35.2359 0.25L34.3207 6.291H57V6.85462C57 13.0669 54.4901 20.4378 51.3973 27.0847ZM55.8544 7.41823H32.9986L33.7853 2.22572C31.0163 3.72431 25.5427 7.25063 19.7188 12.7365L31.7748 22.387L32.2905 17.2815H45.1127L42.4524 40.7226C44.7977 37.1949 47.7957 32.131 50.3632 26.613C53.3414 20.2125 55.709 13.2661 55.8544 7.41823Z" fill="#368DEE"/>
<path fill-rule="evenodd" clip-rule="evenodd" d="M42.2992 43.3947C42.2335 43.4872 42.1137 43.5239 42.0075 43.484L40.976 43.0971C40.8687 43.0568 40.8025 42.9487 40.8154 42.8348L43.5591 18.6587H33.5469L32.9468 24.6006C32.9376 24.6917 32.8793 24.7705 32.7948 24.806C32.7104 24.8415 32.6133 24.8279 32.5418 24.7707L17.8438 13.0054C17.7875 12.9603 17.7534 12.8932 17.7502 12.8212C17.7471 12.7493 17.7751 12.6794 17.8271 12.6296L18.2899 12.1867C25.1792 5.59328 31.7025 1.65236 34.1599 0.484543L35.1286 0.0241814C35.2121 -0.0155106 35.3107 -0.00585938 35.385 0.0492706C35.4592 0.104401 35.497 0.196003 35.4831 0.28743L34.6114 6.04098H57C57.1381 6.04098 57.25 6.15291 57.25 6.29098V6.8546C57.25 13.123 54.7208 20.5345 51.624 27.1901C48.5176 33.8663 44.7916 39.8831 42.2992 43.3947ZM42.0026 42.9482C44.4782 39.4377 48.1242 33.5265 51.1707 26.9792C54.2593 20.341 56.75 13.0108 56.75 6.8546V6.54098H34.3207C34.2478 6.54098 34.1786 6.50921 34.1311 6.45398C34.0836 6.39875 34.0626 6.32555 34.0735 6.25353L34.9183 0.677734L34.3745 0.936142C31.9691 2.07926 25.4894 5.98849 18.6356 12.5479L18.3791 12.7934L32.4955 24.0931L33.0722 18.3836C33.0851 18.2559 33.1926 18.1587 33.3209 18.1587H43.8391C43.9103 18.1587 43.9781 18.1891 44.0256 18.2422C44.073 18.2953 44.0955 18.3661 44.0875 18.4369L41.3342 42.6974L42.0026 42.9482ZM42.3667 40.9574C42.2583 40.9178 42.191 40.8091 42.204 40.6944L44.8327 17.5315H32.5165L32.0236 22.4121C32.0144 22.5032 31.9561 22.582 31.8716 22.6175C31.7872 22.6529 31.6901 22.6394 31.6186 22.5821L19.5626 12.9317C19.5061 12.8864 19.4719 12.8189 19.469 12.7466C19.4661 12.6742 19.4947 12.6042 19.5474 12.5545C25.3877 7.05314 30.8791 3.51427 33.6663 2.00583C33.7497 1.9607 33.8514 1.96663 33.929 2.02115C34.0066 2.07567 34.0467 2.1694 34.0325 2.26315L33.2893 7.16821H55.8544C55.9218 7.16821 55.9863 7.19541 56.0333 7.24364C56.0804 7.29188 56.106 7.35706 56.1043 7.42442C55.9576 13.3245 53.5723 20.3087 50.5899 26.7185C48.0163 32.2496 45.0117 37.3245 42.6606 40.861C42.5967 40.9571 42.4752 40.997 42.3667 40.9574ZM42.8191 39.7085C45.0608 36.2518 47.7806 31.5708 50.1366 26.5075C53.0667 20.2101 55.3912 13.4105 55.5967 7.66821H32.9986C32.9257 7.66821 32.8565 7.63644 32.809 7.58121C32.7615 7.52598 32.7405 7.45278 32.7514 7.38076L33.4622 2.68937C30.632 4.2777 25.5328 7.6405 20.1001 12.7215L31.5723 21.9046L32.0418 17.2563C32.0547 17.1286 32.1622 17.0315 32.2905 17.0315H45.1127C45.1839 17.0315 45.2518 17.0618 45.2992 17.115C45.3466 17.1681 45.3692 17.2389 45.3611 17.3097L42.8191 39.7085Z" fill="#368DEE"/>
<path fill-rule="evenodd" clip-rule="evenodd" d="M6.60268 33.4153C9.70205 26.7542 13.4202 20.7505 15.9047 17.25L16.9362 17.637L14.1609 42.0913H24.6791L25.302 35.9245L40 47.6898L39.5372 48.1327C32.6657 54.7091 26.1642 58.6342 23.7328 59.7896L22.7641 60.25L23.6793 54.209H1V53.6454C1 47.4331 3.50993 40.0622 6.60268 33.4153ZM2.14563 53.0818H25.0014L24.2147 58.2743C26.9837 56.7757 32.4573 53.2494 38.2812 47.7635L26.2252 38.113L25.7095 43.2185H12.8873L15.5476 19.7774C13.2023 23.3051 10.2043 28.369 7.63678 33.887C4.65863 40.2875 2.29099 47.2339 2.14563 53.0818Z" fill="#CECECE" stroke="#CECECE" stroke-width="0.25" stroke-linecap="round" stroke-linejoin="round"/>
</svg>
