<svg width="58" height="62" viewBox="0 0 58 62" fill="none" xmlns="http://www.w3.org/2000/svg">
<path fill-rule="evenodd" clip-rule="evenodd" d="M51.3973 27.8347C48.2979 34.4958 44.5798 40.4995 42.0953 44L41.0638 43.613L43.8391 19.1587H33.3209L32.698 25.3255L18 13.5602L18.4628 13.1173C25.3343 6.5409 31.8358 2.61583 34.2672 1.46036L35.2359 1L34.3207 7.041H57V7.60462C57 13.8169 54.4901 21.1878 51.3973 27.8347ZM55.8544 8.16823H32.9986L33.7853 2.97572C31.0163 4.47431 25.5427 8.00063 19.7188 13.4865L31.7748 23.137L32.2905 18.0315H45.1127L42.4524 41.4726C44.7977 37.9449 47.7957 32.881 50.3632 27.363C53.3414 20.9625 55.709 14.0161 55.8544 8.16823Z" fill="#173D8A" stroke="#173D8A" stroke-width="0.25" stroke-linecap="round" stroke-linejoin="round"/>
<path fill-rule="evenodd" clip-rule="evenodd" d="M6.60268 34.1653C9.70205 27.5042 13.4202 21.5005 15.9047 18L16.9362 18.387L14.1609 42.8413H24.6791L25.302 36.6745L40 48.4398L39.5372 48.8827C32.6657 55.4591 26.1642 59.3842 23.7328 60.5396L22.7641 61L23.6793 54.959H1V54.3954C1 48.1831 3.50993 40.8122 6.60268 34.1653ZM2.14563 53.8318H25.0014L24.2147 59.0243C26.9837 57.5257 32.4573 53.9994 38.2812 48.5135L26.2252 38.863L25.7095 43.9685H12.8873L15.5476 20.5274C13.2023 24.0551 10.2043 29.119 7.63678 34.637C4.65863 41.0375 2.29099 47.9839 2.14563 53.8318Z" fill="#3D3D3D" stroke="#3D3D3D" stroke-width="0.25" stroke-linecap="round" stroke-linejoin="round"/>
</svg>
