<?xml version="1.0" encoding="utf-8"?>
<!-- Generator: Adobe Illustrator 23.0.1, SVG Export Plug-In . SVG Version: 6.00 Build 0)  -->
<svg version="1.1" id="Layer_1" xmlns="http://www.w3.org/2000/svg" xmlns:xlink="http://www.w3.org/1999/xlink" x="0px" y="0px"
	 viewBox="0 0 48 48" style="enable-background:new 0 0 48 48;" xml:space="preserve">
<style type="text/css">
	.st0{fill:#006837;stroke:#000000;stroke-width:1.5;stroke-miterlimit:10;}
</style>
<path class="st0" d="M38.7,33.3c0,0-7.3-3.2-14.7-3.3c-7.5,0-15,3.1-15,3V16.4c0-5.8,4.9-10.6,10.9-10.6h8.2c6,0,10.9,4.7,10.9,10.6
	v16.6C39,33.2,38.9,33.3,38.7,33.3z"/>
<path class="st0" d="M40.9,42.2H7.1V37c0,0,4.9-3.6,16.9-3.6S40.9,37,40.9,37V42.2z"/>
<path class="st0" d="M5.1,35.6H3.6c-0.5,0-0.9-0.4-0.9-0.9V24.3c0-0.5,0.4-0.9,0.9-0.9h1.5c0.5,0,0.9,0.4,0.9,0.9v10.4
	C6.1,35.2,5.6,35.6,5.1,35.6z"/>
<path class="st0" d="M44.4,35.6h-1.5c-0.5,0-0.9-0.4-0.9-0.9V24.3c0-0.5,0.4-0.9,0.9-0.9h1.5c0.5,0,0.9,0.4,0.9,0.9v10.4
	C45.4,35.2,44.9,35.6,44.4,35.6z"/>
</svg>
