<?xml version="1.0" encoding="utf-8"?>
<!-- Generator: Adobe Illustrator 19.0.0, SVG Export Plug-In . SVG Version: 6.00 Build 0)  -->
<svg version="1.1" id="Layer_1" xmlns="http://www.w3.org/2000/svg" xmlns:xlink="http://www.w3.org/1999/xlink" x="0px" y="0px"
	 viewBox="0 0 100 100" style="enable-background:new 0 0 100 100;" xml:space="preserve">
<style type="text/css">
	.st0{fill:#ffffff;}
	.st1{fill:#58CEF2;}
</style>
<g>
	<path class="st0" d="M81.9,7c-0.1,0-12.5-1.6-32-1.6c-19.1,0-31.6,1.6-32,1.7c-8.8,2.7-14,11-14,22.2c0,8.7,8.7,9.5,17.8,9.5
		c7.5,0,10.9-2.4,12.5-4.4c1.5-1.9,1.9-4.2,1.3-6.5c-0.2-0.8-1-2.3-1.8-3.4c1.2-0.9,4.9-2.8,16.4-2.8c11.7,0,15.2,2,16.2,2.8
		c-0.7,1.1-1.6,2.6-1.8,3.4c-0.6,2.4-0.1,4.7,1.3,6.5c1.6,2,5,4.4,12.5,4.4c0,0,0.1,0,0.1,0c0,0,0.1,0,0.1,0
		c6.3,0,10.3-0.6,12.9-1.8c3.1-1.5,4.6-4,4.6-7.7C96.1,18.9,90.3,9.6,81.9,7z M90.2,34.1c-2.2,1-5.8,1.5-11.7,1.5h0c0,0-0.1,0-0.1,0
		c-4.9,0-8.4-1.1-10.1-3.2c-1.1-1.4-1-2.9-0.8-3.9c0.1-0.5,1.4-2.6,1.7-3c0.4-0.4,0.5-0.9,0.4-1.3c-0.2-1.3-2.3-5.7-19.7-5.7
		c-17.3,0-19.5,4.3-19.8,5.6c-0.1,0.5,0.1,1,0.4,1.4c0.4,0.4,1.6,2.4,1.8,3c0.2,1,0.3,2.5-0.8,3.9c-1.6,2.1-5.2,3.2-10.2,3.2
		C9.2,35.6,7,33.4,7,29.2c0-9.9,4.3-16.9,11.6-19.2c0.1,0,12.4-1.6,31.5-1.6c0,0,0.1,0,0.1,0c18.8,0,30.9,1.5,31.1,1.5
		C88,12.1,93,20.4,93,29.2C93,31.7,92.2,33.1,90.2,34.1z"/>
	<path class="st0" d="M71.3,46.4c0.1-0.3,0.1-0.6,0.1-0.8c0-3.4-3.7-4.4-8-5.7l-0.5-0.1v-2.8c0-2-1.2-3-4-3c0,0,0,0,0,0l-1.2,0
		c-2.4,0-3.7,1-3.7,3v2.6h-8.4v-2.6c0-2-1.2-3-4-3c0,0,0,0,0,0l-1.2,0c-2.4,0-3.7,1-3.7,3v2.8l-0.4,0.1c-4.3,1.2-8,2.3-8,5.7
		c0,0.3,0,0.6,0.1,0.8c-15.5,6.9-24.7,21-24.7,38c0,10,46.8,10.1,48.8,10.1c11.3,0,21.6-0.7,29.1-2.1c9.5-1.7,14.1-4.4,14.1-8
		C95.9,67.4,86.8,53.3,71.3,46.4z M81.2,89.5c-7.3,1.3-17.4,2-28.6,2C24.8,91.5,7,87.4,7,84.5c0-16.2,9-29.6,24.1-35.8
		c0.4-0.2,0.7-0.5,0.9-0.9c0.1-0.4,0.1-0.9-0.1-1.3c-0.2-0.3-0.3-0.6-0.3-0.9c0-1.1,2.9-1.9,5.7-2.7l1.5-0.4
		c0.7-0.2,1.1-0.8,1.1-1.5l0-3.8c0.2,0,0.4,0,0.9,0l0.4,0l0.8,0c0.3,0,0.4,0,0.6,0v4c0,0.9,0.7,1.5,1.5,1.5h11.5
		c0.9,0,1.5-0.7,1.5-1.5l0-4c0.2,0,0.5,0,0.9,0l0.4,0l0.8,0c0.3,0,0.4,0,0.6,0V41c0,0.7,0.4,1.3,1.1,1.5l1.6,0.5
		c2.8,0.8,5.7,1.7,5.7,2.7c0,0.3-0.1,0.6-0.3,0.9c-0.2,0.4-0.3,0.9-0.1,1.3c0.1,0.4,0.5,0.8,0.9,0.9c15.1,6.2,24.1,19.5,24.1,35.8
		C92.8,85.8,89.8,87.9,81.2,89.5z"/>
	<path id="XMLID_9_" class="st1" d="M41.1,58.3c0-0.6-0.3-0.9-0.9-0.9c-1.4,0-2.8,0-4.2,0c-0.6,0-0.9,0.3-0.9,0.9c0,1.4,0,2.8,0,4.2
		c0,0.6,0.3,0.9,0.9,0.9c1.4,0,2.8,0,4.2,0c0.7,0,0.9-0.4,0.9-1c0-0.7,0-1.4,0-2C41.1,59.7,41.1,59,41.1,58.3z"/>
	<path id="XMLID_8_" class="st1" d="M47.9,63.4c1.4,0,2.7,0,4.1,0c0.6,0,1-0.3,1-1c0-1.4,0-2.7,0-4.1c0-0.6-0.3-1-1-1
		c-0.7,0-1.4,0-2,0c-0.7,0-1.4,0-2,0c-0.6,0-1,0.3-1,1c0,1.4,0,2.7,0,4.1C47,63.1,47.3,63.4,47.9,63.4z"/>
	<path id="XMLID_7_" class="st1" d="M59.9,63.4c1.4,0,2.7,0,4.1,0c0.6,0,0.9-0.3,0.9-0.9c0-1.4,0-2.8,0-4.2c0-0.6-0.3-1-1-1
		c-0.6,0-1.3,0-2,0c-0.7,0-1.4,0-2,0c-0.7,0-1,0.3-1,1c0,1.4,0,2.7,0,4.1C58.9,63.1,59.2,63.4,59.9,63.4z"/>
	<path id="XMLID_6_" class="st1" d="M36,72.4c0.7,0,1.4,0,2,0c0.7,0,1.4,0,2,0c0.6,0,1-0.3,1-1c0-1.4,0-2.7,0-4.1c0-0.6-0.3-1-1-1
		c-1.4,0-2.7,0-4.1,0c-0.6,0-1,0.3-1,1c0,1.4,0,2.7,0,4.1C35.1,72,35.4,72.4,36,72.4z"/>
	<path id="XMLID_5_" class="st1" d="M52,66.3c-1.4,0-2.7,0-4.1,0c-0.6,0-1,0.3-1,1c0,0.6,0,1.3,0,2c0,0.7,0,1.4,0,2.1
		c0,0.6,0.3,1,1,1c1.4,0,2.7,0,4.1,0c0.6,0,1-0.3,1-1c0-1.4,0-2.7,0-4.1C53,66.6,52.7,66.3,52,66.3z"/>
	<path id="XMLID_4_" class="st1" d="M64.9,67.3c0-0.6-0.3-0.9-0.9-0.9c-1.4,0-2.8,0-4.2,0c-0.6,0-0.9,0.3-0.9,0.9c0,1.4,0,2.8,0,4.2
		c0,0.6,0.3,0.9,0.9,0.9c1.4,0,2.8,0,4.2,0c0.7,0,0.9-0.4,0.9-1c0-0.7,0-1.4,0-2C64.9,68.6,64.9,67.9,64.9,67.3z"/>
	<path id="XMLID_3_" class="st1" d="M40.1,75.3c-1.4,0-2.7,0-4.1,0c-0.6,0-1,0.3-1,1c0,1.4,0,2.7,0,4.1c0,0.6,0.3,1,1,1
		c1.4,0,2.7,0,4.1,0c0.6,0,1-0.3,1-1c0-0.7,0-1.4,0-2c0-0.7,0-1.4,0-2C41.1,75.6,40.8,75.3,40.1,75.3z"/>
	<path id="XMLID_2_" class="st1" d="M52,75.3c-0.6,0-1.3,0-2,0c-0.7,0-1.4,0-2.1,0c-0.6,0-1,0.3-1,1c0,1.4,0,2.7,0,4.1
		c0,0.7,0.3,1,1,1c1.4,0,2.7,0,4.1,0c0.6,0,1-0.3,1-1c0-1.4,0-2.7,0-4.1C53,75.6,52.7,75.3,52,75.3z"/>
	<path id="XMLID_1_" class="st1" d="M64,75.3c-1.4,0-2.8,0-4.2,0c-0.6,0-0.9,0.3-0.9,0.9c0,1.4,0,2.8,0,4.2c0,0.6,0.3,0.9,0.9,0.9
		c1.4,0,2.8,0,4.2,0c0.7,0,0.9-0.4,0.9-1c0-0.7,0-1.4,0-2c0-0.7,0-1.4,0-2C64.9,75.6,64.6,75.3,64,75.3z"/>
</g>
</svg>
