<?xml version="1.0" encoding="utf-8"?>
<!-- Generator: Adobe Illustrator 19.0.0, SVG Export Plug-In . SVG Version: 6.00 Build 0)  -->
<svg version="1.1" id="Layer_1" xmlns="http://www.w3.org/2000/svg" xmlns:xlink="http://www.w3.org/1999/xlink" x="0px" y="0px"
	 viewBox="0 0 100 100" style="enable-background:new 0 0 100 100;" xml:space="preserve">
<style type="text/css">
	.st0{fill:#ffffff;stroke:#ffffff;stroke-width:0.1;stroke-miterlimit:10;}
	.st1{fill:#58CEF2;}
	.st2{fill:#ffffff;stroke:#ffffff;stroke-width:0.1;stroke-miterlimit:10;}
</style>
<g>
	<g>
		<path class="st0" d="M59.1,79.4c-0.9,0-1.3,0.7-1.3,1.3v3.1H8.5V16.3h49.3v3.1c0,0.9,0.7,1.3,1.3,1.3c0.9,0,1.3-0.7,1.3-1.3V8.5
			c0-4.2-3.3-7.5-7.5-7.5h-40c-4,0-7.3,3.6-7.3,7.5v82.8c0,4.2,3.3,7.5,7.5,7.5h40c4.2,0,7.5-3.3,7.5-7.5V80.7
			C60.7,80,60,79.4,59.1,79.4L59.1,79.4z M13.1,3.9h40c2.7,0,4.7,2,4.7,4.7v4.7H8.5V8.5C8.5,6.1,10.5,3.9,13.1,3.9L13.1,3.9z
			 M53.1,96.2h-40c-2.7,0-4.7-2-4.7-4.7v-4.7h49.3v4.7C57.8,94,55.5,96.2,53.1,96.2L53.1,96.2z"/>
		<path class="st1" d="M86.9,24.1H24c-4.2,0-7.5,3.3-7.5,7.5v36.9c0,4.2,3.3,7.5,7.5,7.5h62.8c4.2,0,7.5-3.3,7.5-7.5V31.6
			C94.4,27.4,91.1,24.1,86.9,24.1L86.9,24.1z M91.5,68.5c0,2.7-2,4.7-4.7,4.7H24c-2.7,0-4.7-2-4.7-4.7V31.6c0-2.7,2-4.7,4.7-4.7
			h62.8c2.7,0,4.7,2,4.7,4.7L91.5,68.5z"/>
		<path class="st1" d="M27.4,47h11.5c1.1,0,1.8-0.9,1.8-1.8v-8.4c0-1.1-0.9-1.8-1.8-1.8H27.4c-1.1,0-1.8,0.9-1.8,1.8v8.4
			C25.6,46.1,26.5,47,27.4,47L27.4,47z M37.8,44.1h-3.3v-6.4h3.3V44.1z M28.5,37.6h3.3v6.4h-3.3V37.6z"/>
		<path class="st1" d="M79.1,34.7h-6.2c-3.3,0-6,2.7-6,6s2.7,6,6,6h6.2c3.3,0,6-2.7,6-6C85.3,37.6,82.4,34.7,79.1,34.7L79.1,34.7z
			 M79.1,44.1h-6.2c-1.8,0-3.1-1.3-3.1-3.1s1.3-3.1,3.1-3.1h6.2c1.8,0,3.1,1.3,3.1,3.1C82.4,42.5,80.9,44.1,79.1,44.1L79.1,44.1z"/>
		<path id="XMLID_8_" class="st2" d="M33.1,94.2L33.1,94.2"/>
	</g>
	<path id="XMLID_7_" class="st1" d="M34,93.4c0.9,0,1.6-0.7,1.6-1.6s-0.7-1.6-1.6-1.6h-3.3c-0.9,0-1.6,0.7-1.6,1.6s0.7,1.6,1.6,1.6
		H34L34,93.4z"/>
	<path id="XMLID_6_" class="st1" d="M31.6,59.4c0.9,0,1.6-0.7,1.6-1.6c0-0.9-0.7-1.6-1.6-1.6h-3.3c-0.9,0-1.6,0.7-1.6,1.6
		c0,0.9,0.7,1.6,1.6,1.6H31.6L31.6,59.4z"/>
	<path id="XMLID_5_" class="st1" d="M48.2,59.4c0.9,0,1.6-0.7,1.6-1.6c0-0.9-0.7-1.6-1.6-1.6h-3.3c-0.9,0-1.6,0.7-1.6,1.6
		c0,0.9,0.7,1.6,1.6,1.6H48.2L48.2,59.4z"/>
	<path id="XMLID_4_" class="st1" d="M64.7,59.4c0.9,0,1.6-0.7,1.6-1.6c0-0.9-0.7-1.6-1.6-1.6h-3.3c-0.9,0-1.6,0.7-1.6,1.6
		c0,0.9,0.7,1.6,1.6,1.6H64.7L64.7,59.4z"/>
	<path id="XMLID_3_" class="st1" d="M80.9,59.4c0.9,0,1.6-0.7,1.6-1.6c0-0.9-0.7-1.6-1.6-1.6h-3.3c-0.9,0-1.6,0.7-1.6,1.6
		c0,0.9,0.7,1.6,1.6,1.6H80.9L80.9,59.4z"/>
	<path id="XMLID_2_" class="st1" d="M28.2,64c-0.9,0-1.6,0.7-1.6,1.6s0.7,1.6,1.6,1.6h24.6c0.9,0,1.6-0.7,1.6-1.6S53.8,64,52.9,64
		H28.2L28.2,64z"/>
	<path id="XMLID_1_" class="st1" d="M64.7,67.2c0.9,0,1.6-0.7,1.6-1.6S65.5,64,64.7,64h-3.3c-0.9,0-1.6,0.7-1.6,1.6s0.7,1.6,1.6,1.6
		H64.7L64.7,67.2z"/>
</g>
</svg>
