<?xml version="1.0" encoding="utf-8"?>
<!-- Generator: Adobe Illustrator 19.0.0, SVG Export Plug-In . SVG Version: 6.00 Build 0)  -->
<svg version="1.1" id="Layer_1" xmlns="http://www.w3.org/2000/svg" xmlns:xlink="http://www.w3.org/1999/xlink" x="0px" y="0px"
	 viewBox="0 0 100 100" style="enable-background:new 0 0 100 100;" xml:space="preserve">
<style type="text/css">
	.st0{fill:#FFFFFF;}
	.st1{fill:#58CEF2;stroke:#58CEF2;stroke-width:0.5;stroke-miterlimit:10;}
</style>
<g>
	<g>
		<path class="st0" d="M67.1,1.3H32.9c-4.5,0-8.1,3.6-8.1,8.1v81.3c0,4.5,3.6,8.1,8.1,8.1h34.1c4.5,0,8.1-3.6,8.1-8.1V9.4
			C75.2,4.9,71.5,1.3,67.1,1.3z M71.9,90.6c0,2.7-2.2,4.9-4.9,4.9H32.9c-2.7,0-4.9-2.2-4.9-4.9v-3.3h43.9V90.6z M71.9,84.1H28.1
			V15.9h43.9V84.1z M71.9,12.6H28.1V9.4c0-2.7,2.2-4.9,4.9-4.9h34.1c2.7,0,4.9,2.2,4.9,4.9V12.6z"/>
	</g>
</g>
<path id="XMLID_5_" class="st1" d="M51.7,66.8v-29L62.9,49c0.4,0.4,0.9,0.4,1.3,0c0.4-0.4,0.4-0.9,0-1.3L51.4,34.9
	c-0.2-0.2-0.4-0.3-0.7-0.3s-0.5,0-0.7,0.3L37.1,47.7c-0.2,0.2-0.3,0.4-0.3,0.6c0,0.2,0.1,0.4,0.3,0.6c0.4,0.4,0.9,0.4,1.3,0
	l11.5-11.4v29.2c0,0.5,0.4,0.9,0.9,0.9S51.7,67.3,51.7,66.8z"/>
</svg>
