<?xml version="1.0" encoding="utf-8"?>
<!-- Generator: Adobe Illustrator 19.0.0, SVG Export Plug-In . SVG Version: 6.00 Build 0)  -->
<svg version="1.1" id="Layer_1" xmlns="http://www.w3.org/2000/svg" xmlns:xlink="http://www.w3.org/1999/xlink" x="0px" y="0px"
	 viewBox="0 0 100 100" style="enable-background:new 0 0 100 100;" xml:space="preserve">
<style type="text/css">
	.st0{fill:#ffffff;}
	.st1{fill:#58CEF2;}
</style>
<g>
	<g>
		<path class="st0" d="M88.5,25.9H11.5C5.9,25.9,1.3,30.4,1.3,36v44.6c0,5.6,4.6,10.1,10.1,10.1h77.1c5.6,0,10.1-4.6,10.1-10.1V36
			C98.7,30.4,94.1,25.9,88.5,25.9z M94.6,80.6c0,3.4-2.4,6.7-5.8,6.7H11.4c-3.4,0-6.9-3.4-6.9-6.8V36.1c0-3.4,3.1-6.7,6.4-6.8h77.6
			c3.4,0.2,6.8,3.5,6.8,6.8v44.4L94.6,80.6z"/>
	</g>
</g>
<g>
	<g>
		<path class="st1" d="M56.1,34H23.6c-7.8,0-14.2,6.4-14.2,14.2v20.3c0,7.8,6.4,14.2,14.2,14.2h32.5c7.8,0,14.2-6.4,14.2-14.2V48.2
			C70.3,40.4,63.9,34,56.1,34z M67.3,68.4c0,5.6-5.4,11.5-11,11.5H23.8c-5.6,0-11.4-5.5-11.4-11.1V48.1c0-5.6,5.7-10.9,11.3-10.9
			h32.6c5.6,0,11,5.3,11,10.9V68.4z"/>
	</g>
</g>
<g>
	<g>
		<path id="XMLID_6_" class="st1" d="M84.5,48.1h-8.1c-1.1,0-2,0.9-2,2s0.9,2,2,2h8.1c1.1,0,2-0.9,2-2S85.6,48.1,84.5,48.1z"/>
	</g>
</g>
<g>
	<g>
		<path id="XMLID_5_" class="st1" d="M84.5,56.2h-8.1c-1.1,0-2,0.9-2,2s0.9,2,2,2h8.1c1.1,0,2-0.9,2-2S85.6,56.2,84.5,56.2z"/>
	</g>
</g>
<g>
	<g>
		<path id="XMLID_4_" class="st1" d="M84.5,64.4h-8.1c-1.1,0-2,0.9-2,2s0.9,2,2,2h8.1c1.1,0,2-0.9,2-2S85.6,64.4,84.5,64.4z"/>
	</g>
</g>
<g>
	<g>
		<path id="XMLID_3_" class="st0" d="M15.5,88.1c-1.1,0-2,0.9-2,2v8.1c0,1.1,0.9,2,2,2s2-0.9,2-2v-8.1C17.5,89,16.6,88.1,15.5,88.1z
			"/>
	</g>
</g>
<g>
	<g>
		<path id="XMLID_2_" class="st0" d="M84.5,87.7c-1.1,0-2,0.9-2,2v8.1c0,1.1,0.9,2,2,2c1.1,0,2-0.9,2-2v-8.1
			C86.5,88.6,85.6,87.7,84.5,87.7z"/>
	</g>
</g>
<g>
	<g>
		<path id="XMLID_1_" class="st1" d="M69.7,1.4c-0.8-0.8-2.1-0.8-2.9,0L43.9,24.3L21,1.4c-0.8-0.8-2.1-0.8-2.9,0
			c-0.8,0.8-0.8,2.1,0,2.9l24.3,24.2c0.4,0.4,0.9,0.6,1.4,0.6c0.5,0,1-0.2,1.4-0.6L69.7,4.2C70.5,3.4,70.5,2.2,69.7,1.4z"/>
	</g>
</g>
</svg>
