<svg width="24" height="24" viewBox="0 0 24 24" fill="none" xmlns="http://www.w3.org/2000/svg">
<path d="M12 11.52C11.28 11.52 10.8 12 10.8 12.72C10.8 13.2 11.16 13.56 11.52 13.68L11.16 15.36H12.72L12.36 13.68C12.84 13.56 13.08 13.2 13.08 12.72C13.2 12 12.72 11.52 12 11.52ZM12.12 6.35999C11.28 6.35999 10.44 6.95999 10.44 7.79999V9.59999H13.68V7.79999C13.56 6.95999 12.96 6.35999 12.12 6.35999ZM12 2.39999L3.60001 5.99999V9.59999C3.72001 14.88 7.08001 19.56 12 21.48C16.92 19.56 20.28 14.88 20.4 9.59999V5.99999L12 2.39999ZM16.8 15.6C16.8 16.32 16.32 16.8 15.6 16.8H8.40001C7.68001 16.8 7.20001 16.32 7.20001 15.6V10.8C7.20001 10.08 7.68001 9.59999 8.40001 9.59999H8.76001V7.79999C8.88001 6.11999 10.32 4.79999 12 4.79999C13.68 4.79999 15.12 6.11999 15.24 7.79999V9.59999H15.6C16.32 9.59999 16.8 10.08 16.8 10.8V15.6Z" fill="white"/>
</svg>
