<svg width="20" height="20" viewBox="0 0 20 20" fill="none" xmlns="http://www.w3.org/2000/svg">
<path d="M10 1.25V5.625C10 6.12228 10.1975 6.59919 10.5492 6.95083C10.9008 7.30246 11.3777 7.5 11.875 7.5H16.25V16.875C16.25 17.3723 16.0525 17.8492 15.7008 18.2008C15.3492 18.5525 14.8723 18.75 14.375 18.75H5.625C5.12772 18.75 4.65081 18.5525 4.29917 18.2008C3.94754 17.8492 3.75 17.3723 3.75 16.875V3.125C3.75 2.62772 3.94754 2.15081 4.29917 1.79917C4.65081 1.44754 5.12772 1.25 5.625 1.25H10Z" fill="white"/>
<path d="M11.25 1.5625V5.625C11.25 5.79076 11.3158 5.94973 11.4331 6.06694C11.5503 6.18415 11.7092 6.25 11.875 6.25H15.9375L11.25 1.5625Z" fill="white"/>
</svg>
