<svg width="36" height="28" viewBox="0 0 36 28" fill="none" xmlns="http://www.w3.org/2000/svg">
<path d="M5.56431 0H29.6763C31.1521 0 32.5674 0.579565 33.6109 1.6112C34.6544 2.64283 35.2406 4.04203 35.2406 5.50097V22.0039C35.2406 23.4628 34.6544 24.862 33.6109 25.8937C32.5674 26.9253 31.1521 27.5049 29.6763 27.5049H5.56431C4.08856 27.5049 2.67326 26.9253 1.62975 25.8937C0.586238 24.862 0 23.4628 0 22.0039V5.50097C0 4.04203 0.586238 2.64283 1.62975 1.6112C2.67326 0.579565 4.08856 0 5.56431 0ZM5.56431 1.83366C4.58048 1.83366 3.63694 2.22003 2.94127 2.90779C2.24559 3.59554 1.85477 4.52834 1.85477 5.50097V7.33463H33.3858V5.50097C33.3858 4.52834 32.995 3.59554 32.2993 2.90779C31.6037 2.22003 30.6601 1.83366 29.6763 1.83366H5.56431ZM1.85477 22.0039C1.85477 22.9765 2.24559 23.9093 2.94127 24.5971C3.63694 25.2848 4.58048 25.6712 5.56431 25.6712H29.6763C30.6601 25.6712 31.6037 25.2848 32.2993 24.5971C32.995 23.9093 33.3858 22.9765 33.3858 22.0039V12.8356H1.85477V22.0039ZM5.56431 20.1702H12.9834V22.0039H5.56431V20.1702ZM16.6929 20.1702H22.2572V22.0039H16.6929V20.1702ZM1.85477 9.16829V11.0019H33.3858V9.16829H1.85477Z" fill="white"/>
<rect x="16.3311" y="19.7691" width="6.01669" height="2.57858" fill="#368DEE"/>
<rect x="5.15723" y="19.7691" width="8.59527" height="2.57858" fill="#368DEE"/>
<rect x="1.71899" y="6.87622" width="31.8025" height="2.57858" fill="#368DEE"/>
<rect x="1.71899" y="10.3143" width="31.8025" height="2.57858" fill="#368DEE"/>
</svg>
