<svg width="78" height="61" viewBox="0 0 78 61" fill="none" xmlns="http://www.w3.org/2000/svg">
<path d="M12.3158 0H65.6842C68.9506 0 72.0831 1.28306 74.3928 3.56692C76.7025 5.85079 78 8.94837 78 12.1782V48.713C78 51.9428 76.7025 55.0404 74.3928 57.3243C72.0831 59.6081 68.9506 60.8912 65.6842 60.8912H12.3158C9.04944 60.8912 5.91687 59.6081 3.60721 57.3243C1.29755 55.0404 0 51.9428 0 48.713V12.1782C0 8.94837 1.29755 5.85079 3.60721 3.56692C5.91687 1.28306 9.04944 0 12.3158 0V0ZM12.3158 4.05941C10.1382 4.05941 8.04984 4.91479 6.51007 6.43736C4.9703 7.95994 4.10526 10.025 4.10526 12.1782V16.2377H73.8947V12.1782C73.8947 10.025 73.0297 7.95994 71.4899 6.43736C69.9502 4.91479 67.8618 4.05941 65.6842 4.05941H12.3158ZM4.10526 48.713C4.10526 50.8662 4.9703 52.9313 6.51007 54.4538C8.04984 55.9764 10.1382 56.8318 12.3158 56.8318H65.6842C67.8618 56.8318 69.9502 55.9764 71.4899 54.4538C73.0297 52.9313 73.8947 50.8662 73.8947 48.713V28.4159H4.10526V48.713ZM12.3158 44.6535H28.7368V48.713H12.3158V44.6535ZM36.9474 44.6535H49.2632V48.713H36.9474V44.6535ZM4.10526 20.2971V24.3565H73.8947V20.2971H4.10526Z" fill="#727273"/>
<path d="M36.1035 43.7824H49.4403V49.4404H36.1035V43.7824Z" fill="#173D8A"/>
<path d="M11.4507 43.7824H30.4455V49.4404H11.4507V43.7824Z" fill="#173D8A"/>
<path d="M3.90674 15.2228H74.228V20.8808H3.90674V15.2228Z" fill="#173D8A"/>
<path d="M3.90674 22.7668H74.228V28.5596H3.90674V22.7668Z" fill="#173D8A"/>
</svg>
