<svg width="29" height="64" viewBox="0 0 29 64" fill="none" xmlns="http://www.w3.org/2000/svg">
<path d="M20.3606 44.8967C21.5534 44.8967 22.5204 43.9331 22.5204 42.7444C22.5204 41.5557 21.5534 40.5921 20.3606 40.5921C19.1677 40.5921 18.2007 41.5557 18.2007 42.7444C18.2007 43.9331 19.1677 44.8967 20.3606 44.8967Z" fill="#193983"/>
<path d="M13.881 19.3707C13.4693 19.6076 13.1474 19.9732 12.9655 20.411C12.7835 20.8487 12.7516 21.334 12.8747 21.7917C12.9977 22.2493 13.2689 22.6537 13.6461 22.9421C14.0233 23.2305 14.4855 23.3869 14.9609 23.3869C15.4364 23.3869 15.8986 23.2305 16.2758 22.9421C16.653 22.6537 16.9241 22.2493 17.0472 21.7917C17.1703 21.334 17.1383 20.8487 16.9564 20.411C16.7744 19.9732 16.4526 19.6076 16.0409 19.3707V20.1455C16.0409 20.4309 15.9271 20.7046 15.7246 20.9064C15.522 21.1083 15.2474 21.2216 14.9609 21.2216C14.6745 21.2216 14.3998 21.1083 14.1973 20.9064C13.9948 20.7046 13.881 20.4309 13.881 20.1455V19.3707Z" fill="#193983"/>
<path d="M16.0409 13.7532V17.0785C17.0589 17.3404 17.9461 17.9633 18.5361 18.8305C19.1262 19.6976 19.3787 20.7494 19.2462 21.7888C19.1137 22.8281 18.6054 23.7836 17.8165 24.4762C17.0276 25.1688 16.0123 25.5509 14.9609 25.5509C13.9095 25.5509 12.8943 25.1688 12.1054 24.4762C11.3165 23.7836 10.8081 22.8281 10.6757 21.7888C10.5432 20.7494 10.7956 19.6976 11.3857 18.8305C11.9758 17.9633 12.863 17.3404 13.881 17.0785V13.7532L0.921875 24.1057V63.1911H29V24.1057L16.0409 13.7532ZM10.6412 26.6023C11.4956 26.6023 12.3308 26.8548 13.0411 27.3278C13.7515 27.8008 14.3052 28.4731 14.6321 29.2596C14.9591 30.0462 15.0446 30.9117 14.8779 31.7467C14.7113 32.5817 14.2998 33.3487 13.6957 33.9507C13.0916 34.5527 12.3219 34.9626 11.484 35.1287C10.646 35.2948 9.77747 35.2096 8.98814 34.8838C8.19882 34.558 7.52417 34.0063 7.04952 33.2984C6.57486 32.5905 6.32151 31.7583 6.32151 30.9069C6.32151 29.7653 6.77663 28.6704 7.58673 27.8631C8.39683 27.0559 9.49557 26.6023 10.6412 26.6023V26.6023ZM22.5204 61.0388H7.40144C7.11503 61.0388 6.84034 60.9254 6.63782 60.7236C6.43529 60.5218 6.32151 60.248 6.32151 59.9626C6.32151 59.6772 6.43529 59.4035 6.63782 59.2017C6.84034 58.9999 7.11503 58.8865 7.40144 58.8865H22.5204C22.8068 58.8865 23.0815 58.9999 23.2841 59.2017C23.4866 59.4035 23.6004 59.6772 23.6004 59.9626C23.6004 60.248 23.4866 60.5218 23.2841 60.7236C23.0815 60.9254 22.8068 61.0388 22.5204 61.0388ZM22.5204 56.7342H7.40144C7.11503 56.7342 6.84034 56.6208 6.63782 56.419C6.43529 56.2172 6.32151 55.9435 6.32151 55.6581C6.32151 55.3727 6.43529 55.099 6.63782 54.8971C6.84034 54.6953 7.11503 54.5819 7.40144 54.5819H22.5204C22.8068 54.5819 23.0815 54.6953 23.2841 54.8971C23.4866 55.099 23.6004 55.3727 23.6004 55.6581C23.6004 55.9435 23.4866 56.2172 23.2841 56.419C23.0815 56.6208 22.8068 56.7342 22.5204 56.7342ZM8.48137 51.3535C8.48137 51.0681 8.59515 50.7944 8.79767 50.5926C9.0002 50.3908 9.27488 50.2774 9.5613 50.2774H20.3606C20.647 50.2774 20.9217 50.3908 21.1242 50.5926C21.3267 50.7944 21.4405 51.0681 21.4405 51.3535C21.4405 51.6389 21.3267 51.9127 21.1242 52.1145C20.9217 52.3163 20.647 52.4297 20.3606 52.4297H9.5613C9.27488 52.4297 9.0002 52.3163 8.79767 52.1145C8.59515 51.9127 8.48137 51.6389 8.48137 51.3535ZM20.3606 47.049C19.5062 47.049 18.671 46.7965 17.9607 46.3235C17.2503 45.8505 16.6966 45.1783 16.3697 44.3917C16.0427 43.6051 15.9572 42.7396 16.1239 41.9046C16.2905 41.0696 16.702 40.3026 17.3061 39.7006C17.9102 39.0986 18.6799 38.6887 19.5178 38.5226C20.3558 38.3565 21.2243 38.4417 22.0137 38.7675C22.803 39.0933 23.4776 39.6451 23.9523 40.3529C24.4269 41.0608 24.6803 41.8931 24.6803 42.7444C24.6803 43.8861 24.2252 44.9809 23.4151 45.7882C22.605 46.5955 21.5062 47.049 20.3606 47.049ZM8.16819 45.6608L6.64549 44.1434L23.9243 26.9252L25.447 28.4425L8.16819 45.6608Z" fill="#193983"/>
<path d="M10.6412 33.0592C11.8341 33.0592 12.8011 32.0956 12.8011 30.9069C12.8011 29.7182 11.8341 28.7546 10.6412 28.7546C9.44837 28.7546 8.48137 29.7182 8.48137 30.9069C8.48137 32.0956 9.44837 33.0592 10.6412 33.0592Z" fill="#193983"/>
<path d="M14.9609 0.775002C14.6745 0.775002 14.3998 0.88838 14.1973 1.0902C13.9948 1.29201 13.881 1.56573 13.881 1.85114V11.5364C13.881 11.8218 13.9948 12.0955 14.1973 12.2973C14.3998 12.4991 14.6745 12.6125 14.9609 12.6125C15.2474 12.6125 15.522 12.4991 15.7246 12.2973C15.9271 12.0955 16.0409 11.8218 16.0409 11.5364V1.85114C16.0409 1.56573 15.9271 1.29201 15.7246 1.0902C15.522 0.88838 15.2474 0.775002 14.9609 0.775002V0.775002Z" fill="#193983"/>
</svg>
