<svg width="80" height="70" viewBox="0 0 80 70" fill="none" xmlns="http://www.w3.org/2000/svg">
<path d="M24.1454 31.6192C24.3767 31.989 24.4494 32.4341 24.3476 32.8568C24.2458 33.2794 23.9778 33.6449 23.6025 33.8728C23.2272 34.1007 22.7754 34.1723 22.3465 34.072C21.9176 33.9717 21.5467 33.7075 21.3154 33.3378C21.208 33.2208 21.0814 33.1226 20.9408 33.0473C20.6151 32.8661 19.9059 32.6062 18.5806 32.8464C17.6764 33.0102 17.2088 33.5758 16.9207 34.303C16.744 34.7587 16.6423 35.2394 16.6193 35.7267V38.4563C16.6193 39.0355 16.8528 39.5909 17.2684 40.0005C17.684 40.41 18.2477 40.64 18.8355 40.64H19.3895C19.8811 40.6404 20.3589 40.4797 20.7477 40.1832C21.1364 39.8867 21.4141 39.4713 21.537 39.0023H20.4976C20.0568 39.0023 19.634 38.8297 19.3223 38.5226C19.0106 38.2154 18.8355 37.7989 18.8355 37.3645C18.8355 36.9301 19.0106 36.5136 19.3223 36.2064C19.634 35.8993 20.0568 35.7267 20.4976 35.7267H23.2678C23.7086 35.7267 24.1314 35.8993 24.4431 36.2064C24.7548 36.5136 24.9299 36.9301 24.9299 37.3645V38.4563C24.9299 39.1733 24.7866 39.8832 24.5082 40.5455C24.2298 41.2079 23.8217 41.8097 23.3072 42.3166C22.7927 42.8236 22.1819 43.2257 21.5098 43.5C20.8376 43.7744 20.1171 43.9156 19.3895 43.9156H18.8355C17.3661 43.9156 15.9568 43.3404 14.9178 42.3166C13.8788 41.2928 13.2951 39.9042 13.2951 38.4563V35.6372L13.3039 35.4625C13.354 34.6569 13.5296 33.8636 13.8247 33.1107C14.3677 31.7415 15.5622 30.0622 17.9823 29.6233C20.0034 29.2586 21.5082 29.6058 22.5631 30.1867C23.0728 30.4684 23.4473 30.7872 23.7022 31.0536C23.8582 31.2171 23.9991 31.3939 24.1233 31.5821L24.1366 31.6039L24.141 31.6126L24.1432 31.617L24.1454 31.6192ZM6.04375 30.4007C7.36458 28.8197 9.9708 29.7412 9.9708 31.7895V37.9104H10.5248C10.9657 37.9104 11.3884 38.083 11.7001 38.3901C12.0119 38.6973 12.187 39.1138 12.187 39.5482C12.187 39.9826 12.0119 40.3991 11.7001 40.7063C11.3884 41.0134 10.9657 41.186 10.5248 41.186H9.9708V42.2778C9.9708 42.7122 9.79568 43.1288 9.48398 43.4359C9.17227 43.743 8.7495 43.9156 8.30867 43.9156C7.86785 43.9156 7.44508 43.743 7.13337 43.4359C6.82166 43.1288 6.64654 42.7122 6.64654 42.2778V41.186H2.6663C0.416891 41.186 -0.817515 38.6092 0.611914 36.8994L6.04375 30.4007ZM6.64654 37.9104V34.8314L4.07579 37.9104H6.64654ZM39.8891 36.8186C40.4769 36.8186 41.0406 37.0486 41.4562 37.4582C41.8718 37.8677 42.1053 38.4231 42.1053 39.0023V67.3904C42.1053 67.9695 41.8718 68.5249 41.4562 68.9345C41.0406 69.344 40.4769 69.5741 39.8891 69.5741C39.3013 69.5741 38.7376 69.344 38.322 68.9345C37.9064 68.5249 37.6729 67.9695 37.6729 67.3904V39.0023C37.6729 38.4231 37.9064 37.8677 38.322 37.4582C38.7376 37.0486 39.3013 36.8186 39.8891 36.8186ZM31.0244 43.3697C32.2477 43.3697 33.2406 44.3436 33.2406 45.5424V67.4013C33.2406 68.6023 32.2477 69.5741 31.0244 69.5741C29.8011 69.5741 28.8082 68.6001 28.8082 67.4013V45.5424C28.8082 44.3414 29.8011 43.3697 31.0244 43.3697ZM22.1597 49.9208C22.7475 49.9208 23.3112 50.1508 23.7268 50.5604C24.1424 50.9699 24.3759 51.5253 24.3759 52.1045V67.3904C24.3759 67.9695 24.1424 68.5249 23.7268 68.9345C23.3112 69.344 22.7475 69.5741 22.1597 69.5741C21.572 69.5741 21.0083 69.344 20.5927 68.9345C20.1771 68.5249 19.9436 67.9695 19.9436 67.3904V52.1045C19.9436 51.5253 20.1771 50.9699 20.5927 50.5604C21.0083 50.1508 21.572 49.9208 22.1597 49.9208ZM13.2951 56.4719C14.5184 56.4719 15.5112 57.4436 15.5112 58.6425V67.4035C15.5112 68.6023 14.5184 69.5741 13.2951 69.5741C12.0717 69.5741 11.0789 68.6023 11.0789 67.4035V58.6425C11.0789 57.4436 12.0717 56.4719 13.2951 56.4719ZM4.43038 63.023C5.6537 63.023 6.64654 63.9838 6.64654 65.1717V67.4253C6.64423 67.7098 6.58506 67.991 6.47243 68.253C6.3598 68.5149 6.19591 68.7524 5.99012 68.952C5.78433 69.1515 5.54066 69.3091 5.27304 69.4159C5.00542 69.5226 4.71908 69.5764 4.43038 69.5741C3.20705 69.5741 2.21421 68.6132 2.21421 67.4253V65.1717C2.21652 64.8872 2.27569 64.606 2.38832 64.3441C2.50095 64.0821 2.66484 63.8446 2.87063 63.6451C3.07642 63.4455 3.32009 63.2879 3.58771 63.1811C3.85533 63.0744 4.14167 63.0207 4.43038 63.023Z" fill="#CECECE"/>
<path d="M52.665 10.5117C52.6655 10.0544 52.517 9.60933 52.2421 9.24389C51.9672 8.87844 51.5807 8.61246 51.1412 8.48617C50.7016 8.35988 50.2329 8.38014 49.8059 8.54389C49.379 8.70764 49.0169 9.00598 48.7745 9.39378L43.1156 15.0527C42.9201 15.2483 42.7651 15.4805 42.6594 15.736C42.5536 15.9915 42.4993 16.2654 42.4994 16.5419C42.4995 16.8184 42.554 17.0922 42.6599 17.3477C42.7658 17.6031 42.921 17.8352 43.1166 18.0306C43.3122 18.2261 43.5444 18.3811 43.7999 18.4868C44.0554 18.5926 44.3293 18.6469 44.6058 18.6468C44.8823 18.6467 45.1561 18.5922 45.4115 18.4863C45.667 18.3804 45.8991 18.2252 46.0945 18.0296L48.4524 15.6696L48.4524 31.5643C48.4524 32.1227 48.6742 32.6581 49.069 33.053C49.4638 33.4478 49.9993 33.6696 50.5577 33.6696C51.116 33.6696 51.6515 33.4478 52.0463 33.053C52.4411 32.6581 52.6629 32.1227 52.6629 31.5643L52.6629 10.5117L52.665 10.5117Z" fill="#368DEE"/>
<path d="M56.8084 40.0151C56.808 40.4724 56.9564 40.9174 57.2314 41.2829C57.5063 41.6483 57.8928 41.9143 58.3323 42.0406C58.7718 42.1669 59.2405 42.1466 59.6675 41.9829C60.0945 41.8191 60.4566 41.5208 60.699 41.133L66.3579 35.474C66.7527 35.079 66.9743 34.5433 66.9741 33.9849C66.9739 33.4264 66.7519 32.8909 66.3569 32.4961C65.9618 32.1014 65.4261 31.8797 64.8677 31.8799C64.3092 31.8801 63.7737 32.1021 63.379 32.4972L61.0211 34.8572L61.0211 18.9624C61.0211 18.4041 60.7993 17.8686 60.4044 17.4738C60.0096 17.079 59.4741 16.8572 58.9158 16.8572C58.3574 16.8572 57.822 17.079 57.4272 17.4738C57.0323 17.8686 56.8105 18.4041 56.8105 18.9624L56.8105 40.0151L56.8084 40.0151Z" fill="#368DEE"/>
</svg>
