<svg width="81" height="70" viewBox="0 0 81 70" fill="none" xmlns="http://www.w3.org/2000/svg">
<path d="M24.3954 31.6192C24.6267 31.989 24.6994 32.4341 24.5976 32.8568C24.4958 33.2794 24.2278 33.6449 23.8525 33.8728C23.4772 34.1007 23.0254 34.1723 22.5965 34.072C22.1676 33.9717 21.7967 33.7075 21.5654 33.3378C21.458 33.2208 21.3314 33.1226 21.1908 33.0473C20.8651 32.8661 20.1559 32.6062 18.8306 32.8464C17.9264 33.0102 17.4588 33.5758 17.1707 34.303C16.994 34.7587 16.8923 35.2394 16.8693 35.7267V38.4563C16.8693 39.0355 17.1028 39.5909 17.5184 40.0005C17.934 40.41 18.4977 40.64 19.0855 40.64H19.6395C20.1311 40.6404 20.6089 40.4797 20.9977 40.1832C21.3864 39.8867 21.6641 39.4713 21.787 39.0023H20.7476C20.3068 39.0023 19.884 38.8297 19.5723 38.5226C19.2606 38.2154 19.0855 37.7989 19.0855 37.3645C19.0855 36.9301 19.2606 36.5136 19.5723 36.2064C19.884 35.8993 20.3068 35.7267 20.7476 35.7267H23.5178C23.9586 35.7267 24.3814 35.8993 24.6931 36.2064C25.0048 36.5136 25.1799 36.9301 25.1799 37.3645V38.4563C25.1799 39.1733 25.0366 39.8832 24.7582 40.5455C24.4798 41.2079 24.0717 41.8097 23.5572 42.3166C23.0427 42.8236 22.4319 43.2257 21.7598 43.5C21.0876 43.7744 20.3671 43.9156 19.6395 43.9156H19.0855C17.6161 43.9156 16.2068 43.3404 15.1678 42.3166C14.1288 41.2928 13.5451 39.9042 13.5451 38.4563V35.6372L13.5539 35.4625C13.604 34.6569 13.7796 33.8636 14.0747 33.1107C14.6177 31.7415 15.8122 30.0622 18.2323 29.6233C20.2534 29.2586 21.7582 29.6058 22.8131 30.1867C23.3228 30.4684 23.6973 30.7872 23.9522 31.0536C24.1082 31.2171 24.2491 31.3939 24.3733 31.5821L24.3866 31.6039L24.391 31.6126L24.3932 31.617L24.3954 31.6192ZM6.29375 30.4007C7.61458 28.8197 10.2208 29.7412 10.2208 31.7895V37.9104H10.7748C11.2157 37.9104 11.6384 38.083 11.9501 38.3901C12.2619 38.6973 12.437 39.1138 12.437 39.5482C12.437 39.9826 12.2619 40.3991 11.9501 40.7063C11.6384 41.0134 11.2157 41.186 10.7748 41.186H10.2208V42.2778C10.2208 42.7122 10.0457 43.1288 9.73398 43.4359C9.42227 43.743 8.9995 43.9156 8.55867 43.9156C8.11785 43.9156 7.69508 43.743 7.38337 43.4359C7.07166 43.1288 6.89654 42.7122 6.89654 42.2778V41.186H2.9163C0.666891 41.186 -0.567515 38.6092 0.861914 36.8994L6.29375 30.4007ZM6.89654 37.9104V34.8314L4.32579 37.9104H6.89654ZM40.1391 36.8186C40.7269 36.8186 41.2906 37.0486 41.7062 37.4582C42.1218 37.8677 42.3553 38.4231 42.3553 39.0023V67.3904C42.3553 67.9695 42.1218 68.5249 41.7062 68.9345C41.2906 69.344 40.7269 69.5741 40.1391 69.5741C39.5513 69.5741 38.9876 69.344 38.572 68.9345C38.1564 68.5249 37.9229 67.9695 37.9229 67.3904V39.0023C37.9229 38.4231 38.1564 37.8677 38.572 37.4582C38.9876 37.0486 39.5513 36.8186 40.1391 36.8186ZM31.2744 43.3697C32.4977 43.3697 33.4906 44.3436 33.4906 45.5424V67.4013C33.4906 68.6023 32.4977 69.5741 31.2744 69.5741C30.0511 69.5741 29.0582 68.6001 29.0582 67.4013V45.5424C29.0582 44.3414 30.0511 43.3697 31.2744 43.3697ZM22.4097 49.9208C22.9975 49.9208 23.5612 50.1508 23.9768 50.5604C24.3924 50.9699 24.6259 51.5253 24.6259 52.1045V67.3904C24.6259 67.9695 24.3924 68.5249 23.9768 68.9345C23.5612 69.344 22.9975 69.5741 22.4097 69.5741C21.822 69.5741 21.2583 69.344 20.8427 68.9345C20.4271 68.5249 20.1936 67.9695 20.1936 67.3904V52.1045C20.1936 51.5253 20.4271 50.9699 20.8427 50.5604C21.2583 50.1508 21.822 49.9208 22.4097 49.9208ZM13.5451 56.4719C14.7684 56.4719 15.7612 57.4436 15.7612 58.6425V67.4035C15.7612 68.6023 14.7684 69.5741 13.5451 69.5741C12.3217 69.5741 11.3289 68.6023 11.3289 67.4035V58.6425C11.3289 57.4436 12.3217 56.4719 13.5451 56.4719ZM4.68038 63.023C5.9037 63.023 6.89654 63.9838 6.89654 65.1717V67.4253C6.89423 67.7098 6.83506 67.991 6.72243 68.253C6.6098 68.5149 6.44591 68.7524 6.24012 68.952C6.03433 69.1515 5.79066 69.3091 5.52304 69.4159C5.25542 69.5226 4.96908 69.5764 4.68038 69.5741C3.45705 69.5741 2.46421 68.6132 2.46421 67.4253V65.1717C2.46652 64.8872 2.52569 64.606 2.63832 64.3441C2.75095 64.0821 2.91484 63.8446 3.12063 63.6451C3.32642 63.4455 3.57009 63.2879 3.83771 63.1811C4.10533 63.0744 4.39167 63.0207 4.68038 63.023Z" fill="#3D3D3D"/>
<path d="M52.915 10.5117C52.9155 10.0544 52.767 9.60933 52.4921 9.24389C52.2172 8.87844 51.8307 8.61246 51.3912 8.48617C50.9516 8.35988 50.4829 8.38014 50.0559 8.54389C49.629 8.70764 49.2669 9.00598 49.0245 9.39378L43.3656 15.0527C43.1701 15.2483 43.0151 15.4805 42.9094 15.736C42.8036 15.9915 42.7493 16.2654 42.7494 16.5419C42.7495 16.8184 42.804 17.0922 42.9099 17.3477C43.0158 17.6031 43.171 17.8352 43.3666 18.0306C43.5622 18.2261 43.7944 18.3811 44.0499 18.4868C44.3054 18.5926 44.5793 18.6469 44.8558 18.6468C45.1323 18.6467 45.4061 18.5922 45.6615 18.4863C45.917 18.3804 46.1491 18.2252 46.3445 18.0296L48.7024 15.6696L48.7024 31.5643C48.7024 32.1227 48.9242 32.6581 49.319 33.053C49.7138 33.4478 50.2493 33.6696 50.8077 33.6696C51.366 33.6696 51.9015 33.4478 52.2963 33.053C52.6911 32.6581 52.9129 32.1227 52.9129 31.5643L52.9129 10.5117L52.915 10.5117Z" fill="#173D8A"/>
<path d="M57.0584 40.0151C57.058 40.4724 57.2064 40.9174 57.4814 41.2829C57.7563 41.6483 58.1428 41.9143 58.5823 42.0406C59.0218 42.1669 59.4905 42.1466 59.9175 41.9829C60.3445 41.8191 60.7066 41.5208 60.949 41.133L66.6079 35.474C67.0027 35.079 67.2243 34.5433 67.2241 33.9849C67.2239 33.4264 67.0019 32.8909 66.6069 32.4961C66.2118 32.1014 65.6761 31.8797 65.1177 31.8799C64.5592 31.8801 64.0237 32.1021 63.629 32.4972L61.2711 34.8572L61.2711 18.9624C61.2711 18.4041 61.0493 17.8686 60.6544 17.4738C60.2596 17.079 59.7241 16.8572 59.1658 16.8572C58.6074 16.8572 58.072 17.079 57.6772 17.4738C57.2823 17.8686 57.0605 18.4041 57.0605 18.9624L57.0605 40.0151L57.0584 40.0151Z" fill="#173D8A"/>
</svg>
