<svg width="78" height="61" viewBox="0 0 78 61" fill="none" xmlns="http://www.w3.org/2000/svg">
<path d="M67.66 0.183599H10.33C8.97308 0.182283 7.62923 0.448564 6.37534 0.967229C5.12145 1.48589 3.98216 2.24675 3.02266 3.20624C2.06317 4.16573 1.30232 5.30502 0.78365 6.5589C0.264985 7.81279 -0.00131064 9.15666 4.8501e-06 10.5136V49.9636C4.8501e-06 52.7033 1.08834 55.3308 3.02559 57.268C4.96284 59.2053 7.59032 60.2936 10.33 60.2936H67.66C70.4006 60.2936 73.0291 59.2056 74.968 57.2686C76.9068 55.3316 77.9974 52.7042 78 49.9636V10.5136C78 9.15619 77.7325 7.81209 77.2127 6.55814C76.693 5.3042 75.9312 4.16499 74.9709 3.20563C74.0106 2.24627 72.8707 1.48559 71.6162 0.967046C70.3618 0.448503 69.0174 0.182285 67.66 0.183599V0.183599ZM10.13 48.9236H4V42.7936H10.13V48.9236ZM10.13 39.6436H4V33.5236H10.13V39.6436ZM10.13 30.3736H4V24.2436H10.13V30.3736ZM10.13 20.1536H4V14.0436H10.13V20.1536ZM64.13 48.9536C64.13 49.789 63.7981 50.5902 63.2074 51.181C62.6167 51.7717 61.8154 52.1036 60.98 52.1036H17.07C16.2346 52.1036 15.4334 51.7717 14.8426 51.181C14.2519 50.5902 13.92 49.789 13.92 48.9536V11.5136C13.92 10.6782 14.2519 9.87694 14.8426 9.2862C15.4334 8.69546 16.2346 8.36359 17.07 8.36359H60.98C61.8154 8.36359 62.6167 8.69546 63.2074 9.2862C63.7981 9.87694 64.13 10.6782 64.13 11.5136V48.9536ZM74.13 48.9536H68.01V42.8236H74.13V48.9536ZM74.13 39.6736H68.01V33.5536H74.13V39.6736ZM74.13 30.4036H68.01V24.2436H74.13V30.4036ZM74.13 20.1836H68.01V14.0436H74.13V20.1836Z" fill="#6186A3"/>
<path d="M31.19 19.9446C31.19 24.9946 31.19 35.6946 31.19 40.7946C31.194 41.0697 31.2721 41.3387 31.4161 41.5733C31.5602 41.8078 31.7648 41.9991 32.0084 42.1271C32.2521 42.255 32.5257 42.3149 32.8005 42.3004C33.0754 42.2858 33.3412 42.1975 33.57 42.0446L49.57 31.5146C49.7826 31.3766 49.9573 31.1877 50.0782 30.965C50.1991 30.7424 50.2625 30.493 50.2625 30.2396C50.2625 29.9862 50.1991 29.7368 50.0782 29.5141C49.9573 29.2914 49.7826 29.1025 49.57 28.9646L33.57 18.6746C33.3414 18.5133 33.0725 18.4187 32.7933 18.4013C32.5141 18.384 32.2355 18.4445 31.9887 18.5762C31.7419 18.7079 31.5365 18.9056 31.3955 19.1472C31.2544 19.3888 31.1833 19.6649 31.19 19.9446V19.9446Z" fill="#6186A3"/>
</svg>
