<svg width="79" height="61" viewBox="0 0 79 61" fill="none" xmlns="http://www.w3.org/2000/svg">
<path d="M68.4922 0.433599H11.1622C9.80524 0.432283 8.46138 0.698564 7.20749 1.21723C5.95361 1.73589 4.81431 2.49675 3.85482 3.45624C2.89533 4.41573 2.13447 5.55502 1.6158 6.8089C1.09714 8.06279 0.830843 9.40666 0.832158 10.7636V50.2136C0.832158 52.9533 1.9205 55.5808 3.85775 57.518C5.795 59.4553 8.42247 60.5436 11.1622 60.5436H68.4922C71.2328 60.5436 73.8613 59.4556 75.8001 57.5186C77.739 55.5816 78.8295 52.9542 78.8322 50.2136V10.7636C78.8322 9.40619 78.5646 8.06209 78.0449 6.80814C77.5251 5.5542 76.7633 4.41499 75.803 3.45563C74.8428 2.49627 73.7028 1.73559 72.4484 1.21705C71.1939 0.698503 69.8496 0.432285 68.4922 0.433599V0.433599ZM10.9622 49.1736H4.83216V43.0436H10.9622V49.1736ZM10.9622 39.8936H4.83216V33.7736H10.9622V39.8936ZM10.9622 30.6236H4.83216V24.4936H10.9622V30.6236ZM10.9622 20.4036H4.83216V14.2936H10.9622V20.4036ZM64.9622 49.2036C64.9622 50.039 64.6303 50.8402 64.0396 51.431C63.4488 52.0217 62.6476 52.3536 61.8122 52.3536H17.9022C17.0667 52.3536 16.2655 52.0217 15.6748 51.431C15.084 50.8402 14.7522 50.039 14.7522 49.2036V11.7636C14.7522 10.9282 15.084 10.1269 15.6748 9.5362C16.2655 8.94546 17.0667 8.61359 17.9022 8.61359H61.8122C62.6476 8.61359 63.4488 8.94546 64.0396 9.5362C64.6303 10.1269 64.9622 10.9282 64.9622 11.7636V49.2036ZM74.9622 49.2036H68.8422V43.0736H74.9622V49.2036ZM74.9622 39.9236H68.8422V33.8036H74.9622V39.9236ZM74.9622 30.6536H68.8422V24.4936H74.9622V30.6536ZM74.9622 20.4336H68.8422V14.2936H74.9622V20.4336Z" fill="white"/>
<path d="M32.0222 20.1946C32.0222 25.2446 32.0222 35.9446 32.0222 41.0446C32.0261 41.3197 32.1042 41.5887 32.2483 41.8233C32.3923 42.0578 32.5969 42.2491 32.8406 42.3771C33.0842 42.505 33.3579 42.5649 33.6327 42.5504C33.9075 42.5358 34.1733 42.4475 34.4022 42.2946L50.4022 31.7646C50.6147 31.6266 50.7894 31.4377 50.9104 31.215C51.0313 30.9924 51.0946 30.743 51.0946 30.4896C51.0946 30.2362 51.0313 29.9868 50.9104 29.7641C50.7894 29.5414 50.6147 29.3525 50.4022 29.2146L34.4022 18.9246C34.1736 18.7633 33.9047 18.6687 33.6254 18.6513C33.3462 18.634 33.0677 18.6945 32.8208 18.8262C32.574 18.9579 32.3687 19.1556 32.2276 19.3972C32.0866 19.6388 32.0155 19.9149 32.0222 20.1946V20.1946Z" fill="white"/>
</svg>
