<?xml version="1.0" encoding="utf-8"?>
<!-- Generator: Adobe Illustrator 26.0.2, SVG Export Plug-In . SVG Version: 6.00 Build 0)  -->
<svg version="1.1" id="Layer_1" xmlns="http://www.w3.org/2000/svg" xmlns:xlink="http://www.w3.org/1999/xlink" x="0px" y="0px"
	 viewBox="0 0 707.4 751.7" style="enable-background:new 0 0 707.4 751.7;" xml:space="preserve">
<style type="text/css">
	.st0{fill:#FFFFFF;}
	.st1{opacity:0.3;fill:#A09F9F;enable-background:new    ;}
</style>
<g>
	<path class="st0" d="M353.9,751.7H55c-31.3,0-55-23.4-55-54.4c0-186.7,0-373.4,0-560.1C0,106.4,23.7,83,54.7,82.9
		c27.9,0,55.7-0.1,83.6,0.1c3.4,0,4.1-0.9,4.1-4.1c-0.2-16.8-0.1-33.5-0.1-50.3c0-16.2,11.8-28.4,27.5-28.6
		c15.5-0.1,27.8,12.3,28,28.3c0.1,16.8,0.1,33.5,0,50.3c0,3.2,0.5,4.4,4.2,4.4c97-0.1,194-0.1,290.9,0c3.7,0,4.2-1.1,4.2-4.4
		c-0.2-16.8-0.1-33.5-0.1-50.3c0-16,12.2-28.4,27.9-28.3c15.4,0.1,27.7,12.4,27.7,28.1c0.1,16.6,0.2,33.3-0.1,49.9
		c-0.1,4.4,1.3,5.1,5.3,5.1c31.4-0.2,62.8-0.1,94.2-0.1c32.1,0,55.4,23.1,55.4,54.7v559.3c0,31.6-23.4,54.7-55.5,54.7H353.9z
		 M354,282.3c-102.1,0-204.3,0-306.4-0.1c-4.6,0-5.4,1.3-5.4,5.5c0.1,128.5,0.1,257-0.1,385.5c-0.1,22.3,17.2,39.3,39.5,39.3
		c183.4-0.3,366.7-0.3,550,0c19.1,0,33.5-14.3,33.5-33c-0.4-130.7-0.4-261.4-0.1-392.1c0-4.1-0.7-5.3-5.1-5.3
		C558,282.3,456,282.3,354,282.3z M142.3,119.1c-7,5.8-11.9,13.7-14,22.5c-2.1,8.8-1.4,18,2.1,26.3c7,16.4,24.9,27.5,41.7,25.9
		c20.3-1.8,35.6-14.6,39.8-33.3c3.4-15-3.1-34-14.2-40.6v24.6c0,4.8,0.3,9.6-1.1,14.3c-3.7,12.9-16.6,21.9-29.3,20.2
		c-14.8-1.9-25-13.1-25.1-27.4C142.2,141,142.3,130.4,142.3,119.1z M497,119.6c-13.2,9.2-18.6,29.4-12.6,46
		c6.3,17.4,24,29.4,41.9,28.2c20.1-1.3,36.4-14.6,40.5-33.1c3.4-15.6-3.3-35.1-14.2-40.7c0,10.3,0,20.5,0,30.6
		c-0.1,16-12.2,28.5-27.8,28.5c-15.6,0-27.8-12.4-27.8-28.4C496.9,140.6,497,130.4,497,119.6L497,119.6z"/>
	<path class="st1" d="M501.4,369.7c0-8.5,0-16.9,0-25.4c0.1-9.4,6.4-16.1,15.9-16.1c17.5-0.1,35-0.1,52.6,0
		c9.3,0.1,15.9,6.3,16,15.7c0.2,17.5,0.2,35,0,52.5c-0.1,9.3-6.7,15.4-16.2,15.5c-17.4,0.1-34.8,0.1-52.2,0
		c-9.9-0.1-16.2-6.5-16.2-16.3C501.4,386.9,501.4,378.3,501.4,369.7z"/>
	<path class="st1" d="M501.4,494.8c0-8.5,0-16.9,0-25.4c0.1-9.4,6.4-16.1,15.9-16.1c17.5-0.1,35.1-0.1,52.6,0
		c9.3,0.1,15.9,6.3,16,15.7c0.2,17.5,0.2,35,0,52.5c-0.1,9.3-6.7,15.4-16.2,15.5c-17.4,0.1-34.8,0.1-52.1,0
		c-9.9-0.1-16.2-6.6-16.2-16.3C501.4,512,501.4,503.4,501.4,494.8z"/>
	<path class="st1" d="M206,495c0,8.6,0,17.2,0,25.8c0,9.6-6.1,16.1-15.8,16.2c-17.7,0.2-35.4,0.2-53,0c-9.3-0.1-15.4-6.4-15.5-15.6
		c-0.1-17.5-0.1-35,0-52.5c0.1-9.3,6.6-15.5,16-15.6c17.4-0.1,34.8-0.1,52.1,0c9.8,0,16.1,6.5,16.2,16.3C206,478,206,486.5,206,495z
		"/>
	<path class="st1" d="M206,370c0,8.6,0,17.2,0,25.8c0,9.3-6.1,15.9-15.5,16c-17.8,0.2-35.6,0.2-53.5,0c-9-0.1-15.2-6.4-15.3-15.3
		c-0.2-17.6-0.2-35.3,0-52.9c0.1-9,6.6-15.3,15.7-15.4c17.5-0.1,35.1-0.1,52.6,0c9.6,0.1,16,6.6,16,16C206,352.8,206,361.4,206,370z
		"/>
	<path class="st1" d="M374.9,369.9c0-8.6,0-17.2,0-25.8c0-9.2,6.3-15.9,15.6-16c17.7-0.2,35.4-0.2,53,0c9.2,0.1,15.6,6.4,15.7,15.4
		c0.2,17.6,0.2,35.3,0,52.9c-0.1,8.9-6.3,15.1-15.3,15.2c-17.8,0.2-35.6,0.2-53.5,0c-9.4-0.1-15.5-6.6-15.5-16
		C374.8,387.1,374.9,378.5,374.9,369.9z"/>
	<path class="st1" d="M459.2,495.2c0,8.5,0.1,16.9,0,25.4c-0.1,10.2-6.2,16.4-16.5,16.4c-17.1,0.1-34.2,0.1-51.3,0
		c-10.4-0.1-16.6-6.3-16.6-16.7c0-16.9,0-33.8,0-50.7c0-9.7,6.4-16.2,16.3-16.2c17.2-0.1,34.5-0.1,51.7,0c9.9,0,16.3,6.3,16.4,16.1
		C459.3,478,459.2,486.6,459.2,495.2z"/>
	<path class="st1" d="M248.3,370.1c0-8.8-0.1-17.5,0-26.3c0.1-9,6.3-15.6,15.4-15.7c17.8-0.2,35.6-0.2,53.5,0
		c9.1,0.1,15.3,6.7,15.3,15.7c0.1,17.3,0.1,34.7,0,52c0,9.2-5.9,15.7-15.2,15.8c-18,0.2-35.9,0.2-53.9,0
		c-9.3-0.1-15.1-6.6-15.2-15.8C248.3,387.3,248.3,378.7,248.3,370.1z"/>
	<path class="st1" d="M163.7,666.2c-8.5,0-17.1,0.1-25.7,0c-10.4-0.1-16.4-6-16.4-16.3c-0.1-16.9-0.1-33.8,0-50.7
		c0-10.4,6.2-16.4,16.8-16.4c16.9,0,33.9,0,50.8,0c10.5,0,16.7,6.2,16.7,16.6c0,16.8,0,33.5,0,50.3c0,10.5-6,16.5-16.6,16.6
		C180.8,666.2,172.3,666.2,163.7,666.2z"/>
	<path class="st1" d="M459.2,624.8c0,8.5,0.1,16.9,0,25.4c-0.1,10-6.1,16-16.3,16c-17.2,0.1-34.5,0.1-51.7,0
		c-10.3-0.1-16.4-6.2-16.4-16.4c0-16.9,0-33.8,0-50.7c0-10,6.4-16.3,16.5-16.3c17.1,0,34.2,0,51.2,0c10.2,0,16.5,6.1,16.6,16.2
		C459.3,607.6,459.2,616.2,459.2,624.8z"/>
	<path class="st1" d="M248.3,494.8c0-8.6,0-17.2,0-25.8c0.1-9.8,6.1-15.9,15.8-16c17.5-0.1,35-0.1,52.6,0c9.7,0,15.8,6.1,15.8,15.9
		c0,17.2,0,34.4,0,51.6c0,9.6-6.3,15.8-16,15.8c-17.4,0-34.8,0-52.1,0c-9.7,0-16-6.2-16.1-15.8C248.3,512,248.3,503.4,248.3,494.8z"
		/>
	<path class="st1" d="M332.6,624.8c0,8.6,0,17.2,0,25.8c-0.1,9.2-6,15.4-15.4,15.5c-17.8,0.2-35.6,0.2-53.4,0
		c-9.3-0.1-15.4-6.3-15.4-15.5c-0.1-17.5-0.1-35,0-52.5c0-9,6.5-15.4,15.6-15.4c17.7-0.1,35.4-0.1,53,0c9.1,0,15.5,6.4,15.6,15.4
		C332.6,607.1,332.5,615.9,332.6,624.8z"/>
</g>
</svg>
